<?xml version="1.0" encoding="iso-8859-1"?>
<!-- Generator: Adobe Illustrator 19.0.0, SVG Export Plug-In . SVG Version: 6.00 Build 0)  -->
<svg xmlns="http://www.w3.org/2000/svg" xmlns:xlink="http://www.w3.org/1999/xlink" version="1.1" id="Layer_1" x="0px" y="0px" viewBox="0 0 496.162 496.162" style="enable-background:new 0 0 496.162 496.162;" xml:space="preserve">
<path style="fill:#334D5C;" d="M248.077,0C111.072,0,0.002,111.062,0.002,248.082c0,137.006,111.07,248.08,248.075,248.08  c137.013,0,248.083-111.074,248.083-248.08C496.16,111.062,385.09,0,248.077,0z"/>
<path style="fill:#1A5437;" d="M24.024,354.705c39.875,83.646,125.216,141.457,224.053,141.457  c98.783,0,184.071-57.727,223.983-141.285L24.024,354.705z"/>
<path style="fill:#BFAC00;" d="M326.931,183.994c-0.222-0.914-0.918-1.637-1.828-1.889l-64.311-17.91  c-1.086-0.307-2.249,0.137-2.868,1.082l-70.821,108.266c-0.521,0.801-0.566,1.822-0.107,2.664c0.452,0.836,1.324,1.361,2.28,1.361  h43.555l-42.354,54.83c-0.604,0.781-0.712,1.844-0.275,2.732c0.437,0.891,1.339,1.453,2.333,1.453h34.703l-43.792,55.719  c-0.826,1.049-0.727,2.539,0.229,3.469c0.498,0.49,1.155,0.738,1.813,0.738c0.589,0,1.171-0.199,1.652-0.596l100.375-83.131  c0.85-0.695,1.163-1.852,0.788-2.877c-0.367-1.033-1.347-1.721-2.44-1.721h-31.482l50.042-60.049c0.65-0.773,0.788-1.852,0.36-2.762  c-0.429-0.914-1.347-1.5-2.356-1.5h-37.595l61.35-57.367C326.87,185.865,327.152,184.904,326.931,183.994z"/>
<path style="fill:#496370;" d="M404.774,55.779c-5.982-4.885-12.194-9.502-18.621-13.82c-26.371-17.699-56.315-30.471-88.539-37.002  c-0.987-0.199-1.989-0.344-2.983-0.535C279.544,1.561,263.998,0,248.077,0c-19.884,0-39.193,2.406-57.723,6.824  c-6.687,1.596-13.274,3.455-19.746,5.578c-28.031,9.211-53.845,23.279-76.467,41.213c-10.917,8.652-21.115,18.17-30.426,28.51  c-19.387,21.52-35.009,46.465-45.957,73.801c10.466,18.846,29.386,32.674,52.406,35.598c20.603,2.619,40.203-4.051,54.747-16.676  c10.718,11.217,25.192,18.982,41.787,21.09c14.489,1.844,28.513-0.895,40.616-7.07c10.979,14.494,27.534,24.75,46.997,27.221  c27.504,3.496,53.247-9.506,67.462-31.252c9.548,7.379,21.077,12.439,33.915,14.074c22.859,2.902,44.495-5.613,59.329-21.035  c24.237-1.951,45.528-16.473,56.499-37.695C455.643,107.359,432.737,78.59,404.774,55.779z"/>
<g style="opacity:0.3;">
	<path style="fill:#243D49;" d="M372.956,33.75c-5.661-3.305-11.43-6.449-17.366-9.307c-14.016-6.752-28.781-12.195-44.113-16.234   c-0.788-0.211-1.568-0.42-2.363-0.619c-15.424-3.906-31.421-6.373-47.839-7.234c-4.368-0.229-8.768-0.355-13.197-0.355   c-11.797,0-23.388,0.881-34.756,2.475c-21.835,3.064-42.767,8.924-62.391,17.287c-0.956,0.404-1.882,0.859-2.83,1.277   c-8.684,3.828-17.099,8.141-25.224,12.898C95.488,49.989,71.473,71.131,52.095,96.083c-0.712,0.908-1.438,1.795-2.135,2.713   c0.91,0.367,1.859,0.654,2.784,0.982c5.906,31.176,31.987,55.822,65.137,58.396c14.979,1.164,29.232-2.348,41.351-9.299   c12.004,14.334,29.517,24.033,49.629,25.596c28.422,2.207,54.196-12.438,67.707-35.48c10.176,7.096,22.271,11.717,35.537,12.75   c23.617,1.836,45.405-7.994,59.865-24.582c26.853-3.488,49.43-21.938,58.441-47.248C413.718,61.816,394.354,46.24,372.956,33.75z"/>
</g>
<path style="fill:#334D5C;" d="M248.077,0c-74.669,0-141.58,33.039-187.063,85.242c4.101-0.383,8.117-1.078,12.012-2.078  c12.554,23.018,36.967,38.641,65.036,38.641c18.729,0,35.789-7.016,48.826-18.484c13.044,11.469,30.104,18.484,48.833,18.484  c32.117,0,59.383-20.488,69.635-49.082c12.271,9.031,27.374,14.432,43.776,14.432c23.885,0,45.062-11.354,58.603-28.902  C364.579,21.918,308.898,0,248.077,0z"/>
<g>
	<path style="fill:#496370;" d="M364.411,215.346c0,0-15.837,18.014-15.837,34.471c0,8.748,7.092,15.84,15.837,15.84   c8.744,0,15.836-7.092,15.836-15.84C380.247,231.496,364.411,237.086,364.411,215.346z"/>
	<path style="fill:#496370;" d="M428.445,215.346c0,0-15.836,18.014-15.836,34.471c0,8.748,7.092,15.84,15.836,15.84   c8.752,0,15.837-7.092,15.837-15.84C444.282,231.496,428.445,237.086,428.445,215.346z"/>
	<path style="fill:#496370;" d="M334.383,276.06c0,0-15.837,18.014-15.837,34.469c0,8.75,7.084,15.842,15.837,15.842   c8.744,0,15.836-7.092,15.836-15.842C350.219,292.211,334.383,297.799,334.383,276.06z"/>
	<path style="fill:#496370;" d="M398.417,276.06c0,0-15.836,18.014-15.836,34.469c0,8.75,7.092,15.842,15.836,15.842   c8.752,0,15.837-7.092,15.837-15.842C414.254,292.211,398.417,297.799,398.417,276.06z"/>
	<path style="fill:#496370;" d="M91.525,215.346c0,0-15.837,18.014-15.837,34.471c0,8.748,7.084,15.84,15.837,15.84   c8.744,0,15.836-7.092,15.836-15.84C107.361,231.496,91.525,237.086,91.525,215.346z"/>
	<path style="fill:#496370;" d="M155.56,215.346c0,0-15.837,18.014-15.837,34.471c0,8.748,7.093,15.84,15.837,15.84   c8.752,0,15.837-7.092,15.837-15.84C171.396,231.496,155.56,237.086,155.56,215.346z"/>
	<path style="fill:#496370;" d="M61.497,276.06c0,0-15.845,18.014-15.845,34.469c0,8.75,7.092,15.842,15.845,15.842   c8.744,0,15.828-7.092,15.828-15.842C77.325,292.211,61.497,297.799,61.497,276.06z"/>
	<path style="fill:#496370;" d="M125.531,276.06c0,0-15.836,18.014-15.836,34.469c0,8.75,7.092,15.842,15.836,15.842   c8.745,0,15.837-7.092,15.837-15.842C141.368,292.211,125.531,297.799,125.531,276.06z"/>
</g>
<g>
</g>
<g>
</g>
<g>
</g>
<g>
</g>
<g>
</g>
<g>
</g>
<g>
</g>
<g>
</g>
<g>
</g>
<g>
</g>
<g>
</g>
<g>
</g>
<g>
</g>
<g>
</g>
<g>
</g>
</svg>
