<?xml version="1.0" encoding="iso-8859-1"?>
<!-- Generator: Adobe Illustrator 19.0.0, SVG Export Plug-In . SVG Version: 6.00 Build 0)  -->
<svg xmlns="http://www.w3.org/2000/svg" xmlns:xlink="http://www.w3.org/1999/xlink" version="1.1" id="Layer_1" x="0px" y="0px" viewBox="0 0 496.162 496.162" style="enable-background:new 0 0 496.162 496.162;" xml:space="preserve">
<path style="fill:#A3D5E0;" d="M248.077,0C111.072,0,0.002,111.062,0.002,248.082c0,137.006,111.07,248.08,248.075,248.08  c137.013,0,248.083-111.074,248.083-248.08C496.16,111.062,385.09,0,248.077,0z"/>
<g style="opacity:0.5;">
	<path style="fill:#E4F2F4;" d="M404.775,55.779c-5.987-4.885-12.195-9.502-18.625-13.82   c-26.371-17.699-56.319-30.471-88.535-37.002c-0.987-0.199-1.997-0.344-2.988-0.535C279.544,1.561,263.995,0,248.078,0   c-19.884,0-39.193,2.406-57.723,6.824c-6.694,1.596-13.277,3.455-19.746,5.578c-28.032,9.211-53.844,23.279-76.471,41.213   c-10.917,8.652-21.115,18.17-30.426,28.51c-19.382,21.52-35.008,46.465-45.953,73.801c10.458,18.846,29.382,32.674,52.406,35.598   c20.603,2.619,40.203-4.051,54.743-16.676c10.718,11.217,25.193,18.982,41.783,21.09c14.498,1.844,28.513-0.895,40.616-7.07   c10.982,14.494,27.538,24.75,47.001,27.221c27.507,3.496,53.244-9.506,67.462-31.252c9.548,7.379,21.081,12.439,33.915,14.074   c22.863,2.902,44.491-5.613,59.33-21.035c24.237-1.951,45.528-16.473,56.502-37.695C455.639,107.359,432.737,78.59,404.775,55.779z   "/>
</g>
<g>
	<path style="fill:#E4F2F4;" d="M56.092,229.144c-11.472,0-20.771,9.303-20.771,20.775c0,11.467,9.299,20.766,20.771,20.766   c11.468,0,20.771-9.299,20.771-20.766C76.863,238.447,67.56,229.144,56.092,229.144z"/>
	<path style="fill:#E4F2F4;" d="M133.71,229.144c-11.472,0-20.768,9.303-20.768,20.775c0,11.467,9.295,20.766,20.768,20.766   c11.472,0,20.771-9.299,20.771-20.766C154.481,238.447,145.182,229.144,133.71,229.144z"/>
	<path style="fill:#E4F2F4;" d="M211.558,229.144c-11.472,0-20.771,9.303-20.771,20.775c0,11.467,9.299,20.766,20.771,20.766   c11.468,0,20.771-9.299,20.771-20.766C232.329,238.447,223.025,229.144,211.558,229.144z"/>
	<path style="fill:#E4F2F4;" d="M289.176,229.144c-11.472,0-20.768,9.303-20.768,20.775c0,11.467,9.295,20.766,20.768,20.766   c11.472,0,20.771-9.299,20.771-20.766C309.947,238.447,300.647,229.144,289.176,229.144z"/>
	<path style="fill:#E4F2F4;" d="M366.281,229.144c-11.472,0-20.771,9.303-20.771,20.775c0,11.467,9.299,20.766,20.771,20.766   c11.468,0,20.771-9.299,20.771-20.766C387.052,238.447,377.749,229.144,366.281,229.144z"/>
	<path style="fill:#E4F2F4;" d="M443.899,229.144c-11.472,0-20.767,9.303-20.767,20.775c0,11.467,9.295,20.766,20.767,20.766   s20.771-9.299,20.771-20.766C464.67,238.447,455.372,229.144,443.899,229.144z"/>
	<path style="fill:#E4F2F4;" d="M133.71,350.572c-11.472,0-20.768,9.303-20.768,20.775c0,11.469,9.295,20.768,20.768,20.768   c11.472,0,20.771-9.299,20.771-20.768C154.481,359.875,145.182,350.572,133.71,350.572z"/>
	<path style="fill:#E4F2F4;" d="M211.558,350.572c-11.472,0-20.771,9.303-20.771,20.775c0,11.469,9.299,20.768,20.771,20.768   c11.468,0,20.771-9.299,20.771-20.768C232.329,359.875,223.025,350.572,211.558,350.572z"/>
	<path style="fill:#E4F2F4;" d="M289.176,350.572c-11.472,0-20.768,9.303-20.768,20.775c0,11.469,9.295,20.768,20.768,20.768   c11.472,0,20.771-9.299,20.771-20.768C309.947,359.875,300.647,350.572,289.176,350.572z"/>
	<path style="fill:#E4F2F4;" d="M366.281,350.572c-11.472,0-20.771,9.303-20.771,20.775c0,11.469,9.299,20.768,20.771,20.768   c11.468,0,20.771-9.299,20.771-20.768C387.052,359.875,377.749,350.572,366.281,350.572z"/>
	<path style="fill:#E4F2F4;" d="M95.262,289.859c-11.472,0-20.771,9.303-20.771,20.773c0,11.469,9.299,20.768,20.771,20.768   c11.468,0,20.771-9.299,20.771-20.768C116.033,299.162,106.73,289.859,95.262,289.859z"/>
	<path style="fill:#E4F2F4;" d="M172.88,289.859c-11.472,0-20.767,9.303-20.767,20.773c0,11.469,9.295,20.768,20.767,20.768   s20.771-9.299,20.771-20.768C193.651,299.162,184.352,289.859,172.88,289.859z"/>
	<path style="fill:#E4F2F4;" d="M250.728,289.859c-11.472,0-20.771,9.303-20.771,20.773c0,11.469,9.299,20.768,20.771,20.768   c11.468,0,20.771-9.299,20.771-20.768C271.499,299.162,262.196,289.859,250.728,289.859z"/>
	<path style="fill:#E4F2F4;" d="M328.346,289.859c-11.472,0-20.767,9.303-20.767,20.773c0,11.469,9.295,20.768,20.767,20.768   s20.771-9.299,20.771-20.768C349.117,299.162,339.818,289.859,328.346,289.859z"/>
	<path style="fill:#E4F2F4;" d="M405.452,289.859c-11.472,0-20.771,9.303-20.771,20.773c0,11.469,9.299,20.768,20.771,20.768   c11.468,0,20.771-9.299,20.771-20.768C426.223,299.162,416.92,289.859,405.452,289.859z"/>
	<path style="fill:#E4F2F4;" d="M172.88,409.328c-11.472,0-20.767,9.303-20.767,20.775c0,11.469,9.295,20.768,20.767,20.768   s20.771-9.299,20.771-20.768C193.651,418.631,184.352,409.328,172.88,409.328z"/>
	<path style="fill:#E4F2F4;" d="M250.728,409.328c-11.472,0-20.771,9.303-20.771,20.775c0,11.469,9.299,20.768,20.771,20.768   c11.468,0,20.771-9.299,20.771-20.768C271.499,418.631,262.196,409.328,250.728,409.328z"/>
	<path style="fill:#E4F2F4;" d="M328.346,409.328c-11.472,0-20.767,9.303-20.767,20.775c0,11.469,9.295,20.768,20.767,20.768   s20.771-9.299,20.771-20.768C349.117,418.631,339.818,409.328,328.346,409.328z"/>
</g>
<g style="opacity:0.5;">
	<path style="fill:#E4F2F4;" d="M372.953,33.75c-5.662-3.305-11.43-6.449-17.363-9.307c-14.02-6.752-28.781-12.195-44.113-16.234   c-0.788-0.211-1.576-0.42-2.368-0.619c-15.423-3.906-31.417-6.373-47.838-7.234c-4.372-0.229-8.768-0.355-13.193-0.355   c-11.801,0-23.395,0.881-34.756,2.475c-21.834,3.064-42.77,8.926-62.397,17.287c-0.952,0.404-1.878,0.861-2.827,1.277   c-8.684,3.828-17.095,8.141-25.224,12.898C95.485,49.989,71.466,71.131,52.091,96.083c-0.708,0.908-1.442,1.795-2.134,2.713   c0.907,0.367,1.855,0.654,2.785,0.982c5.906,31.176,31.987,55.822,65.133,58.396c14.979,1.164,29.236-2.348,41.354-9.299   c12.004,14.334,29.52,24.033,49.629,25.596c28.421,2.207,54.2-12.438,67.707-35.48c10.175,7.096,22.274,11.717,35.537,12.75   c23.621,1.836,45.406-7.994,59.865-24.582c26.857-3.488,49.43-21.938,58.446-47.248C413.714,61.816,394.347,46.24,372.953,33.75z"/>
</g>
<path style="fill:#E4F2F4;" d="M248.077,0C173.404,0,106.489,33.039,61.011,85.242c4.104-0.383,8.117-1.078,12.012-2.078  c12.554,23.018,36.967,38.641,65.037,38.641c18.732,0,35.789-7.016,48.83-18.484c13.04,11.469,30.097,18.484,48.833,18.484  c32.117,0,59.379-20.488,69.627-49.082c12.271,9.031,27.377,14.432,43.784,14.432c23.881,0,45.058-11.354,58.595-28.902  C364.579,21.918,308.899,0,248.077,0z"/>
<g>
</g>
<g>
</g>
<g>
</g>
<g>
</g>
<g>
</g>
<g>
</g>
<g>
</g>
<g>
</g>
<g>
</g>
<g>
</g>
<g>
</g>
<g>
</g>
<g>
</g>
<g>
</g>
<g>
</g>
</svg>
