<?xml version="1.0" encoding="iso-8859-1"?>
<!-- Generator: Adobe Illustrator 19.0.0, SVG Export Plug-In . SVG Version: 6.00 Build 0)  -->
<svg xmlns="http://www.w3.org/2000/svg" xmlns:xlink="http://www.w3.org/1999/xlink" version="1.1" id="Layer_1" x="0px" y="0px" viewBox="0 0 496.162 496.162" style="enable-background:new 0 0 496.162 496.162;" xml:space="preserve">
<path style="fill:#A3D5E0;" d="M248.077,0C111.072,0,0.002,111.062,0.002,248.082c0,137.006,111.07,248.08,248.075,248.08  c137.013,0,248.083-111.074,248.083-248.08C496.16,111.062,385.09,0,248.077,0z"/>
<g style="opacity:0.5;">
	<path style="fill:#E4F2F4;" d="M404.775,55.779c-5.987-4.885-12.195-9.502-18.625-13.82   c-26.367-17.699-56.319-30.471-88.535-37.002c-0.987-0.197-1.997-0.344-2.984-0.535C279.545,1.561,263.999,0,248.078,0   c-19.884,0-39.193,2.406-57.723,6.824c-6.694,1.596-13.273,3.455-19.746,5.578c-28.032,9.211-53.844,23.279-76.471,41.213   c-10.914,8.652-21.112,18.17-30.426,28.51c-19.382,21.52-35.005,46.465-45.953,73.801c10.458,18.846,29.382,32.674,52.406,35.598   c20.603,2.619,40.203-4.051,54.743-16.676c10.718,11.217,25.197,18.982,41.783,21.09c14.498,1.844,28.513-0.895,40.616-7.07   c10.982,14.494,27.538,24.75,47.005,27.221c27.503,3.496,53.24-9.506,67.458-31.252c9.548,7.379,21.081,12.439,33.918,14.074   c22.86,2.902,44.488-5.613,59.326-21.035c24.24-1.951,45.528-16.473,56.502-37.695C455.643,107.359,432.737,78.59,404.775,55.779z"/>
</g>
<g>
	<path style="fill:#7CB7C1;" d="M108.976,259.98c0,0-25.847,1.66-38.413,14.221c-6.679,6.68-6.675,17.512,0.004,24.191   c6.675,6.676,17.504,6.676,24.183-0.008C108.739,284.4,92.382,276.582,108.976,259.98z"/>
	<path style="fill:#7CB7C1;" d="M186.957,259.98c0,0-25.844,1.66-38.41,14.221c-6.679,6.68-6.679,17.506,0,24.188   c6.679,6.68,17.504,6.676,24.184-0.004C186.72,284.4,170.363,276.574,186.957,259.98z"/>
	<path style="fill:#7CB7C1;" d="M139.956,329.064c0,0-25.847,1.652-38.413,14.221c-6.679,6.68-6.679,17.506,0.004,24.188   c6.675,6.676,17.504,6.676,24.183-0.004C139.719,353.484,123.359,345.658,139.956,329.064z"/>
	<path style="fill:#7CB7C1;" d="M362.28,259.98c0,0-25.848,1.66-38.414,14.221c-6.679,6.68-6.675,17.512,0.004,24.191   c6.675,6.676,17.504,6.676,24.183-0.008C362.043,284.4,345.686,276.582,362.28,259.98z"/>
	<path style="fill:#7CB7C1;" d="M440.266,259.98c0,0-25.844,1.66-38.41,14.221c-6.679,6.68-6.679,17.506,0,24.188   c6.679,6.68,17.504,6.676,24.184-0.004C440.028,284.4,423.671,276.574,440.266,259.98z"/>
	<path style="fill:#7CB7C1;" d="M393.261,329.064c0,0-25.847,1.652-38.413,14.221c-6.679,6.68-6.679,17.506,0.004,24.188   c6.675,6.676,17.504,6.676,24.183-0.004C393.023,353.484,376.663,345.658,393.261,329.064z"/>
</g>
<g style="opacity:0.5;">
	<path style="fill:#E4F2F4;" d="M372.953,33.75c-5.662-3.305-11.426-6.449-17.363-9.307c-14.02-6.752-28.781-12.195-44.113-16.234   c-0.788-0.211-1.576-0.42-2.364-0.619c-15.427-3.906-31.42-6.373-47.842-7.234c-4.372-0.229-8.768-0.355-13.193-0.355   c-11.801,0-23.395,0.881-34.756,2.475c-21.834,3.064-42.77,8.926-62.397,17.287c-0.949,0.404-1.878,0.861-2.827,1.277   c-8.68,3.828-17.095,8.141-25.22,12.898C95.489,49.989,71.466,71.131,52.091,96.083c-0.708,0.908-1.442,1.795-2.134,2.713   c0.907,0.367,1.855,0.654,2.785,0.982c5.906,31.176,31.987,55.822,65.133,58.396c14.979,1.164,29.24-2.348,41.358-9.299   c12.003,14.334,29.516,24.033,49.629,25.596c28.417,2.207,54.196-12.438,67.707-35.48c10.175,7.096,22.271,11.717,35.533,12.75   c23.621,1.836,45.406-7.994,59.865-24.582c26.857-3.488,49.43-21.938,58.446-47.248C413.714,61.816,394.347,46.24,372.953,33.75z"/>
</g>
<path style="fill:#E4F2F4;" d="M248.077,0C173.408,0,106.489,33.039,61.014,85.242c4.101-0.383,8.117-1.078,12.011-2.078  c12.555,23.018,36.967,38.641,65.033,38.641c18.732,0,35.793-7.016,48.83-18.484c13.04,11.469,30.097,18.484,48.833,18.484  c32.117,0,59.379-20.488,69.627-49.082c12.271,9.031,27.381,14.432,43.784,14.432c23.881,0,45.062-11.354,58.595-28.902  C364.579,21.918,308.898,0,248.077,0z"/>
<g>
</g>
<g>
</g>
<g>
</g>
<g>
</g>
<g>
</g>
<g>
</g>
<g>
</g>
<g>
</g>
<g>
</g>
<g>
</g>
<g>
</g>
<g>
</g>
<g>
</g>
<g>
</g>
<g>
</g>
</svg>
