<?xml version="1.0" encoding="iso-8859-1"?>
<!-- Generator: Adobe Illustrator 19.0.0, SVG Export Plug-In . SVG Version: 6.00 Build 0)  -->
<svg xmlns="http://www.w3.org/2000/svg" xmlns:xlink="http://www.w3.org/1999/xlink" version="1.1" id="Layer_1" x="0px" y="0px" viewBox="0 0 496.2 496.2" style="enable-background:new 0 0 496.2 496.2;" xml:space="preserve">
<path style="fill:#334D5C;" d="M248.1,0C111.1,0,0,111.1,0,248.1s111.1,248.1,248.1,248.1s248.1-111.1,248.1-248.1S385.1,0,248.1,0z  "/>
<path style="fill:#1A5437;" d="M24,354.7c39.9,83.7,125.3,141.5,224.1,141.5s184.1-57.7,224-141.3L24,354.7z"/>
<g>
	<path style="fill:#BFAC00;" d="M316.9,184c-0.2-0.9-0.9-1.6-1.8-1.9l-64.3-17.9c-1.1-0.3-2.3,0.1-2.9,1.1l-70.8,108.3   c-0.5,0.8-0.6,1.8-0.1,2.7c0.5,0.8,1.3,1.4,2.3,1.4h43.6l-42.4,54.8c-0.6,0.8-0.7,1.8-0.3,2.7c0.4,0.9,1.3,1.5,2.3,1.5h34.7   l-43.8,55.7c-0.8,1-0.7,2.5,0.2,3.5c0.5,0.5,1.2,0.7,1.8,0.7s1.2-0.2,1.7-0.6l100.4-83.1c0.8-0.7,1.2-1.9,0.8-2.9   c-0.4-1-1.4-1.7-2.4-1.7h-31.5l50-60c0.6-0.8,0.8-1.9,0.4-2.8c-0.4-0.9-1.3-1.5-2.4-1.5h-37.6l61.3-57.4   C316.9,185.9,317.2,184.9,316.9,184z"/>
	<path style="fill:#BFAC00;" d="M163.9,170.2c-0.1-0.6-0.6-1-1.1-1.2l-40.4-11.3c-0.7-0.2-1.4,0.1-1.8,0.7l-44.5,68.1   c-0.3,0.5-0.4,1.1-0.1,1.7c0.3,0.5,0.8,0.9,1.4,0.9h27.4l-26.7,34.4c-0.4,0.5-0.4,1.2-0.2,1.7s0.8,0.9,1.5,0.9h21.8l-27.5,35   c-0.5,0.7-0.5,1.6,0.1,2.2c0.3,0.3,0.7,0.5,1.1,0.5s0.7-0.1,1-0.4l63.1-52.3c0.5-0.4,0.7-1.2,0.5-1.8s-0.8-1.1-1.5-1.1h-19.8   l31.5-37.7c0.4-0.5,0.5-1.2,0.2-1.7c-0.3-0.6-0.8-0.9-1.5-0.9h-23.6l38.6-36.1C163.8,171.4,164,170.8,163.9,170.2z"/>
	<path style="fill:#BFAC00;" d="M438,170.2c-0.1-0.6-0.6-1-1.1-1.2l-40.4-11.3c-0.7-0.2-1.4,0.1-1.8,0.7l-44.6,68.1   c-0.3,0.5-0.4,1.1-0.1,1.7c0.3,0.5,0.8,0.9,1.4,0.9h27.4l-26.6,34.5c-0.4,0.5-0.4,1.2-0.2,1.7s0.8,0.9,1.5,0.9h21.8l-27.5,35   c-0.5,0.7-0.5,1.6,0.1,2.2c0.3,0.3,0.7,0.5,1.1,0.5s0.7-0.1,1-0.4l63.1-52.3c0.5-0.4,0.7-1.2,0.5-1.8s-0.8-1.1-1.5-1.1h-19.8   l31.5-37.7c0.4-0.5,0.5-1.2,0.2-1.7c-0.3-0.6-0.8-0.9-1.5-0.9h-23.6l38.6-36.1C438,171.4,438.2,170.8,438,170.2z"/>
</g>
<path style="fill:#496370;" d="M404.8,55.8c-6-4.9-12.2-9.5-18.6-13.8c-26.4-17.7-56.3-30.5-88.5-37c-1-0.2-2-0.3-3-0.5  c-15.1-2.9-30.6-4.4-46.6-4.4c-19.9,0-39.2,2.4-57.7,6.8c-6.7,1.6-13.3,3.5-19.7,5.6c-28,9.2-53.8,23.3-76.5,41.2  c-11,8.6-21.2,18.1-30.5,28.4c-19.4,21.5-35,46.5-46,73.8c10.5,18.8,29.4,32.7,52.4,35.6c20.6,2.6,40.2-4.1,54.7-16.7  c10.7,11.2,25.2,19,41.8,21.1c14.5,1.8,28.5-0.9,40.6-7.1c11,14.5,27.5,24.8,47,27.2c27.5,3.5,53.2-9.5,67.5-31.3  c9.5,7.4,21.1,12.4,33.9,14.1c22.9,2.9,44.5-5.6,59.3-21c24.2-2,45.5-16.5,56.5-37.7C455.7,107.4,432.8,78.6,404.8,55.8z"/>
<g style="opacity:0.3;">
	<path style="fill:#243D49;" d="M373,33.8c-5.7-3.3-11.4-6.4-17.4-9.3c-14-6.8-28.8-12.2-44.1-16.2c-0.8-0.2-1.6-0.4-2.4-0.6   c-15.4-3.9-31.4-6.4-47.8-7.2c-4.4-0.2-8.8-0.4-13.2-0.4c-11.8,0-23.4,0.9-34.8,2.5c-21.8,3.1-42.8,8.9-62.4,17.3   c-1,0.4-1.9,0.9-2.8,1.3c-8.7,3.8-17.1,8.1-25.2,12.9C95.5,50,71.5,71.2,52.1,96.1c-0.7,0.9-1.4,1.8-2.1,2.7c0.9,0.4,1.9,0.7,2.8,1   c5.9,31.2,32,55.8,65.1,58.4c15,1.2,29.2-2.3,41.4-9.3c12,14.3,29.5,24,49.6,25.6c28.4,2.2,54.2-12.4,67.7-35.5   c10.2,7.1,22.3,11.7,35.5,12.8c23.6,1.8,45.4-8,59.9-24.6c26.9-3.5,49.4-21.9,58.4-47.2C413.7,61.8,394.4,46.3,373,33.8z"/>
</g>
<path style="fill:#334D5C;" d="M248.1,0C173.4,0,106.5,33,61,85.2c4.1-0.4,8.1-1.1,12-2.1c12.6,23,37,38.6,65,38.6  c18.7,0,35.8-7,48.8-18.5c13,11.5,30.1,18.5,48.8,18.5c32.1,0,59.4-20.5,69.6-49.1c12.3,9,27.4,14.4,43.8,14.4  c23.9,0,45.1-11.4,58.6-28.9C364.6,21.9,308.9,0,248.1,0z"/>
<g>
</g>
<g>
</g>
<g>
</g>
<g>
</g>
<g>
</g>
<g>
</g>
<g>
</g>
<g>
</g>
<g>
</g>
<g>
</g>
<g>
</g>
<g>
</g>
<g>
</g>
<g>
</g>
<g>
</g>
</svg>
