<?xml version="1.0" encoding="iso-8859-1"?>
<!-- Generator: Adobe Illustrator 19.0.0, SVG Export Plug-In . SVG Version: 6.00 Build 0)  -->
<svg xmlns="http://www.w3.org/2000/svg" xmlns:xlink="http://www.w3.org/1999/xlink" version="1.1" id="Layer_1" x="0px" y="0px" viewBox="0 0 496.162 496.162" style="enable-background:new 0 0 496.162 496.162;" xml:space="preserve">
<path style="fill:#334D5C;" d="M248.077,0C111.072,0,0.002,111.062,0.002,248.082c0,137.006,111.07,248.08,248.075,248.08  c137.013,0,248.083-111.074,248.083-248.08C496.16,111.062,385.09,0,248.077,0z"/>
<path style="fill:#1A5437;" d="M24.021,354.705c39.878,83.65,125.216,141.457,224.056,141.457c98.78,0,184.071-57.73,223.98-141.289  L24.021,354.705z"/>
<path style="fill:#BFAC00;" d="M326.927,183.994c-0.222-0.914-0.918-1.637-1.829-1.889l-64.306-17.91  c-1.09-0.307-2.253,0.137-2.873,1.082l-70.82,108.27c-0.521,0.797-0.566,1.818-0.107,2.656c0.452,0.842,1.328,1.361,2.28,1.361  h43.555l-42.354,54.83c-0.604,0.789-0.711,1.848-0.275,2.74c0.436,0.887,1.343,1.449,2.333,1.449h34.707l-43.795,55.723  c-0.822,1.041-0.723,2.539,0.229,3.465c0.501,0.49,1.155,0.734,1.813,0.734c0.589,0,1.174-0.195,1.656-0.596l100.375-83.123  c0.845-0.699,1.159-1.852,0.788-2.885s-1.351-1.717-2.444-1.717l-31.482,0.004l50.042-60.053c0.65-0.773,0.788-1.852,0.359-2.762  c-0.428-0.914-1.346-1.5-2.356-1.5h-37.59l61.345-57.367C326.866,185.865,327.153,184.904,326.927,183.994z"/>
<path style="fill:#496370;" d="M404.775,55.779c-5.987-4.885-12.195-9.502-18.625-13.82c-26.372-17.699-56.315-30.471-88.536-37.002  c-0.987-0.199-1.993-0.344-2.987-0.535C279.544,1.561,263.994,0,248.077,0c-19.884,0-39.193,2.406-57.723,6.824  c-6.69,1.596-13.277,3.455-19.746,5.578c-28.032,9.211-53.844,23.279-76.471,41.213c-10.917,8.652-21.115,18.17-30.426,28.51  c-19.382,21.52-35.008,46.465-45.953,73.801C28.22,174.772,47.14,188.6,70.164,191.524c20.603,2.619,40.203-4.051,54.743-16.676  c10.718,11.217,25.193,18.982,41.787,21.09c14.494,1.844,28.514-0.895,40.617-7.07c10.979,14.494,27.534,24.75,46.997,27.221  c27.507,3.496,53.248-9.506,67.462-31.252c9.548,7.379,21.081,12.439,33.915,14.074c22.863,2.902,44.495-5.613,59.33-21.035  c24.237-1.951,45.528-16.473,56.502-37.695C455.639,107.359,432.737,78.59,404.775,55.779z"/>
<g style="opacity:0.3;">
	<path style="fill:#243D49;" d="M372.953,33.75c-5.662-3.305-11.43-6.449-17.363-9.307c-14.02-6.752-28.781-12.195-44.113-16.234   c-0.788-0.211-1.572-0.42-2.368-0.619c-15.424-3.906-31.417-6.373-47.839-7.234c-4.368-0.229-8.768-0.355-13.193-0.355   c-11.801,0-23.391,0.881-34.756,2.475c-21.834,3.064-42.77,8.926-62.394,17.287c-0.956,0.404-1.882,0.861-2.831,1.277   c-8.683,3.828-17.095,8.141-25.224,12.898C95.483,49.989,71.468,71.131,52.089,96.083c-0.708,0.908-1.438,1.795-2.134,2.713   c0.91,0.367,1.859,0.654,2.785,0.982c5.906,31.176,31.987,55.822,65.136,58.396c14.98,1.164,29.233-2.348,41.351-9.299   c12.004,14.334,29.52,24.033,49.629,25.596c28.421,2.207,54.2-12.438,67.707-35.48c10.175,7.096,22.274,11.717,35.537,12.75   c23.621,1.836,45.406-7.994,59.865-24.582c26.857-3.488,49.43-21.938,58.446-47.248C413.714,61.816,394.351,46.24,372.953,33.75z"/>
</g>
<path style="fill:#334D5C;" d="M248.077,0C173.404,0,106.493,33.039,61.011,85.242c4.104-0.383,8.117-1.078,12.011-2.078  c12.554,23.018,36.967,38.641,65.037,38.641c18.732,0,35.789-7.016,48.83-18.484c13.04,11.469,30.101,18.484,48.833,18.484  c32.117,0,59.379-20.488,69.631-49.082c12.271,9.031,27.374,14.432,43.78,14.432c23.881,0,45.058-11.354,58.599-28.902  C364.579,21.918,308.899,0,248.077,0z"/>
<g>
	<path style="fill:#496370;" d="M364.407,215.346c0,0-15.836,18.014-15.836,34.471c0,8.748,7.092,15.836,15.836,15.836   c8.749,0,15.837-7.088,15.837-15.836C380.244,231.496,364.407,237.086,364.407,215.346z"/>
	<path style="fill:#496370;" d="M428.445,215.346c0,0-15.836,18.014-15.836,34.471c0,8.748,7.088,15.836,15.836,15.836   c8.749,0,15.837-7.088,15.837-15.836C444.282,231.496,428.445,237.086,428.445,215.346z"/>
	<path style="fill:#496370;" d="M334.379,276.064c0,0-15.837,18.01-15.837,34.465c0,8.75,7.088,15.838,15.837,15.838   c8.744,0,15.836-7.088,15.836-15.838C350.215,292.207,334.379,297.799,334.379,276.064z"/>
	<path style="fill:#496370;" d="M398.414,276.064c0,0-15.836,18.01-15.836,34.465c0,8.75,7.092,15.838,15.836,15.838   c8.752,0,15.836-7.088,15.836-15.838C414.25,292.207,398.414,297.799,398.414,276.064z"/>
	<path style="fill:#496370;" d="M91.521,215.346c0,0-15.836,18.014-15.836,34.471c0,8.748,7.088,15.836,15.836,15.836   c8.745,0,15.837-7.088,15.837-15.836C107.358,231.496,91.521,237.086,91.521,215.346z"/>
	<path style="fill:#496370;" d="M155.556,215.346c0,0-15.836,18.014-15.836,34.471c0,8.748,7.092,15.836,15.836,15.836   c8.752,0,15.837-7.088,15.837-15.836C171.393,231.496,155.556,237.086,155.556,215.346z"/>
	<path style="fill:#496370;" d="M61.493,276.064c0,0-15.84,18.01-15.84,34.465c0,8.75,7.088,15.838,15.84,15.838   c8.744,0,15.833-7.088,15.833-15.838C77.326,292.207,61.493,297.799,61.493,276.064z"/>
	<path style="fill:#496370;" d="M125.528,276.064c0,0-15.837,18.01-15.837,34.465c0,8.75,7.092,15.838,15.837,15.838   c8.748,0,15.836-7.088,15.836-15.838C141.364,292.207,125.528,297.799,125.528,276.064z"/>
</g>
<g>
</g>
<g>
</g>
<g>
</g>
<g>
</g>
<g>
</g>
<g>
</g>
<g>
</g>
<g>
</g>
<g>
</g>
<g>
</g>
<g>
</g>
<g>
</g>
<g>
</g>
<g>
</g>
<g>
</g>
</svg>
