<?xml version="1.0" encoding="iso-8859-1"?>
<!-- Generator: Adobe Illustrator 19.0.0, SVG Export Plug-In . SVG Version: 6.00 Build 0)  -->
<svg xmlns="http://www.w3.org/2000/svg" xmlns:xlink="http://www.w3.org/1999/xlink" version="1.1" id="Layer_1" x="0px" y="0px" viewBox="0 0 496.161 496.161" style="enable-background:new 0 0 496.161 496.161;" xml:space="preserve">
<path style="fill:#A3D5E0;" d="M248.077,0C111.072,0,0.002,111.063,0.002,248.083c0,137.005,111.07,248.078,248.075,248.078  c137.013,0,248.083-111.073,248.083-248.078C496.16,111.063,385.09,0,248.077,0z"/>
<g style="opacity:0.5;">
	<path style="fill:#E4F2F4;" d="M404.773,55.78c-5.982-4.885-12.194-9.502-18.621-13.82c-26.371-17.695-56.323-30.472-88.539-37.002   c-0.987-0.198-1.997-0.344-2.983-0.531c-15.087-2.865-30.633-4.426-46.554-4.426c-19.884,0-39.193,2.406-57.723,6.824   c-6.694,1.595-13.274,3.454-19.746,5.581c-28.031,9.211-53.845,23.276-76.467,41.209c-10.917,8.657-21.115,18.17-30.426,28.51   c-19.387,21.521-35.009,46.47-45.957,73.801c10.458,18.847,29.386,32.675,52.406,35.602c20.603,2.616,40.203-4.055,54.747-16.678   c10.718,11.215,25.192,18.98,41.779,21.092c14.497,1.84,28.513-0.898,40.616-7.072c10.986,14.493,27.542,24.749,47.005,27.224   c27.503,3.493,53.239-9.51,67.462-31.252c9.548,7.375,21.077,12.439,33.915,14.069c22.859,2.903,44.487-5.608,59.329-21.031   c24.237-1.955,45.528-16.476,56.499-37.698C455.643,107.36,432.737,78.59,404.773,55.78z"/>
</g>
<g>
	<path style="fill:#E4F2F4;" d="M213.184,257.133c-4.958,4.962-4.958,12.995,0,17.952c4.957,4.958,12.99,4.954,17.947,0   l10.559-28.506L213.184,257.133z"/>
	<path style="fill:#E4F2F4;" d="M36.862,257.133c-4.958,4.962-4.958,12.995,0,17.952c4.957,4.958,12.99,4.954,17.948,0   l10.558-28.506L36.862,257.133z"/>
	<path style="fill:#E4F2F4;" d="M123.091,257.133c-4.957,4.962-4.957,12.995,0,17.952c4.958,4.958,12.99,4.954,17.948,0   l10.558-28.506L123.091,257.133z"/>
	<path style="fill:#E4F2F4;" d="M213.184,398.148c-4.958,4.961-4.958,12.994,0,17.952c4.957,4.957,12.99,4.953,17.947,0   l10.559-28.506L213.184,398.148z"/>
	<path style="fill:#E4F2F4;" d="M123.091,398.148c-4.957,4.961-4.957,12.994,0,17.952c4.958,4.957,12.99,4.953,17.948,0   l10.558-28.506L123.091,398.148z"/>
	<path style="fill:#E4F2F4;" d="M78.642,327.641c-4.958,4.961-4.958,12.994,0,17.951c4.957,4.958,12.99,4.954,17.948,0   l10.558-28.506L78.642,327.641z"/>
	<path style="fill:#E4F2F4;" d="M164.87,327.641c-4.957,4.961-4.957,12.994,0,17.951c4.958,4.958,12.991,4.954,17.948,0   l10.558-28.506L164.87,327.641z"/>
</g>
<g style="opacity:0.5;">
	<path style="fill:#E4F2F4;" d="M372.956,33.75c-5.661-3.305-11.43-6.449-17.366-9.307c-14.016-6.752-28.781-12.195-44.113-16.234   c-0.788-0.211-1.576-0.421-2.363-0.62c-15.424-3.905-31.421-6.373-47.839-7.233c-4.376-0.229-8.768-0.355-13.197-0.355   c-11.797,0-23.396,0.88-34.756,2.475c-21.835,3.064-42.767,8.925-62.397,17.286c-0.949,0.406-1.875,0.861-2.823,1.282   c-8.684,3.825-17.099,8.136-25.224,12.898C95.489,49.989,71.467,71.131,52.096,96.083c-0.712,0.907-1.446,1.795-2.135,2.713   c0.902,0.367,1.852,0.653,2.784,0.986c5.906,31.172,31.987,55.818,65.129,58.396c14.979,1.163,29.24-2.353,41.358-9.303   c12.004,14.333,29.516,24.034,49.629,25.599c28.422,2.203,54.196-12.44,67.707-35.483c10.176,7.1,22.271,11.717,35.537,12.75   c23.617,1.836,45.405-7.995,59.865-24.577c26.853-3.489,49.43-21.942,58.441-47.254C413.717,61.816,394.346,46.244,372.956,33.75z"/>
</g>
<path style="fill:#E4F2F4;" d="M248.077,0C173.408,0,106.489,33.038,61.014,85.242c4.101-0.379,8.117-1.075,12.012-2.077  c12.554,23.02,36.967,38.639,65.036,38.639c18.729,0,35.789-7.012,48.826-18.483c13.044,11.472,30.097,18.483,48.833,18.483  c32.117,0,59.383-20.488,69.627-49.082c12.271,9.031,27.382,14.433,43.784,14.433c23.885,0,45.062-11.354,58.595-28.903  C364.578,21.923,308.897,0,248.077,0z"/>
<g>
	<path style="fill:#A3D5E0;" d="M446.34,362.603l-26.425,13.484l14.65,8.102c1.232,0.686,2.005,1.981,2.021,3.397   c0.007,1.411-0.742,2.724-1.967,3.427l-14.658,8.424l17.727,8.553c9.456-11.204,17.917-23.257,25.292-36.029L446.34,362.603z"/>
	<path style="fill:#A3D5E0;" d="M469.987,350.275l3.29,1.862c0.788-1.698,1.568-3.396,2.311-5.114L469.987,350.275z"/>
	<path style="fill:#A3D5E0;" d="M410.993,415.285v15.875c0,1.389-0.734,2.67-1.928,3.374s-2.67,0.723-3.886,0.05l-13.779-7.65   l1.897,22.229c10.635-7.696,20.672-16.17,29.944-25.419L410.993,415.285z"/>
	<path style="fill:#A3D5E0;" d="M483.031,327.694l-3.289-5.691c-0.528-0.91-1.393-1.568-2.41-1.832   c-1.01-0.257-2.096-0.107-2.999,0.432l-15.431,9.269v-30.827c0-1.381-0.728-2.663-1.921-3.366   c-1.186-0.708-2.662-0.738-3.871-0.073l-15.668,8.538c-1.263,0.685-2.043,2.005-2.043,3.439v35.689l-24.405,16.716v-16.356   c0-1.4-0.741-2.693-1.958-3.394c-1.209-0.699-2.708-0.699-3.917,0l-13.702,7.911l2.486-28.973l30.334-18.196   c1.179-0.708,1.905-1.981,1.905-3.358v-17.1c0-1.389-0.734-2.67-1.936-3.374c-1.193-0.707-2.67-0.727-3.887-0.049l-26.233,14.57   v-14.712c0-2.162-1.752-3.917-3.917-3.917h-16.38c-2.165,0-3.917,1.755-3.917,3.917v14.78l-26.968-14.654   c-1.217-0.662-2.686-0.635-3.871,0.072c-1.186,0.708-1.913,1.985-1.913,3.366v17.1c0,1.388,0.734,2.674,1.936,3.377l30.97,18.186   l2.096,29.19l-14.772-8.171c-1.217-0.673-2.693-0.654-3.887,0.054c-1.193,0.704-1.928,1.989-1.928,3.374v16.353l-24.39-16.708   v-35.695c0-1.378-0.728-2.651-1.905-3.359l-14.237-8.538c-1.209-0.727-2.716-0.741-3.948-0.049   c-1.224,0.695-1.981,1.996-1.981,3.408v30.942l-16.196-9.41c-0.918-0.536-2.027-0.678-3.052-0.379   c-1.025,0.295-1.89,0.998-2.38,1.943l-7.122,13.549c-0.957,1.817-0.345,4.066,1.399,5.148l15.025,9.322l-27.006,15.271   c-1.217,0.685-1.974,1.967-1.989,3.358c-0.022,1.393,0.704,2.693,1.897,3.408l14.245,8.546c1.193,0.723,2.686,0.746,3.909,0.073   l33.073-18.22l26.211,13.476l-14.674,8.117c-1.231,0.686-2.004,1.981-2.02,3.397c-0.008,1.411,0.742,2.724,1.966,3.427   l14.682,8.438l-26.188,12.728l-33.165-16.924c-1.209-0.619-2.662-0.562-3.817,0.149l-12.822,7.842   c-1.163,0.716-1.875,1.989-1.867,3.358c0.008,1.37,0.727,2.636,1.897,3.34l26.195,15.71l-16.089,8.829   c-0.91,0.497-1.584,1.343-1.875,2.345c-0.29,0.998-0.168,2.073,0.337,2.983l7.107,12.83c0.505,0.914,1.354,1.588,2.356,1.871   c0.994,0.282,2.073,0.16,2.991-0.353l16.969-9.548v30.346c0,1.385,0.727,2.666,1.921,3.374c1.186,0.7,2.67,0.727,3.886,0.058   l14.238-7.834c1.247-0.689,2.027-2.001,2.027-3.432v-34.989l24.39-16.847v15.871c0,1.377,0.727,2.65,1.904,3.358   c1.171,0.704,2.632,0.742,3.856,0.1l14.842-7.896l-2.104,29.474l-30.924,17.489c-1.231,0.696-1.989,1.996-1.989,3.408v2.54   c20.121-7.742,38.972-18.028,56.178-30.472l-1.897-22.229l13.779,7.65c1.216,0.673,2.692,0.654,3.886-0.05s1.928-1.985,1.928-3.374   v-15.875l12.249,8.458c5.049-5.03,9.846-10.306,14.444-15.753l-17.727-8.553l14.658-8.424c1.225-0.703,1.974-2.016,1.967-3.427   c-0.016-1.416-0.788-2.712-2.021-3.397l-14.65-8.102l26.425-13.484l16.64,9.357c3.719-6.435,7.161-13.041,10.298-19.823   l-3.29-1.862l5.601-3.252C478.341,340.715,480.806,334.262,483.031,327.694z"/>
</g>
<g style="opacity:0.5;">
	<path style="fill:#E4F2F4;" d="M483.031,327.694l-3.289-5.691c-0.528-0.91-1.393-1.568-2.41-1.832   c-1.01-0.257-2.096-0.107-2.999,0.432l-15.431,9.269v-30.827c0-1.381-0.728-2.663-1.921-3.366   c-1.186-0.708-2.662-0.738-3.871-0.073l-15.668,8.538c-1.263,0.685-2.043,2.005-2.043,3.439v35.689l-24.405,16.716v-16.356   c0-1.4-0.741-2.693-1.958-3.394c-1.209-0.699-2.708-0.699-3.917,0l-13.702,7.911l2.486-28.973l30.334-18.196   c1.179-0.708,1.905-1.981,1.905-3.358v-17.1c0-1.389-0.734-2.67-1.936-3.374c-1.193-0.707-2.67-0.727-3.887-0.049l-26.233,14.57   v-14.712c0-2.162-1.752-3.917-3.917-3.917h-16.38c-2.165,0-3.917,1.755-3.917,3.917v14.78l-26.968-14.654   c-1.217-0.662-2.686-0.635-3.871,0.072c-1.186,0.708-1.913,1.985-1.913,3.366v17.1c0,1.388,0.734,2.674,1.936,3.377l30.97,18.186   l2.096,29.19l-14.772-8.171c-1.217-0.673-2.693-0.654-3.887,0.054c-1.193,0.704-1.928,1.989-1.928,3.374v16.353l-24.39-16.708   v-35.695c0-1.378-0.728-2.651-1.905-3.359l-14.237-8.538c-1.209-0.727-2.716-0.741-3.948-0.049   c-1.224,0.695-1.981,1.996-1.981,3.408v30.942l-16.196-9.41c-0.918-0.536-2.027-0.678-3.052-0.379   c-1.025,0.295-1.89,0.998-2.38,1.943l-7.122,13.549c-0.957,1.817-0.345,4.066,1.399,5.148l15.025,9.322l-27.006,15.271   c-1.217,0.685-1.974,1.967-1.989,3.358c-0.022,1.393,0.704,2.693,1.897,3.408l14.245,8.546c1.193,0.723,2.686,0.746,3.909,0.073   l33.073-18.22l26.211,13.476l-14.674,8.117c-1.231,0.686-2.004,1.981-2.02,3.397c-0.008,1.411,0.742,2.724,1.966,3.427   l14.682,8.438l-26.188,12.728l-33.165-16.924c-1.209-0.619-2.662-0.562-3.817,0.149l-12.822,7.842   c-1.163,0.716-1.875,1.989-1.867,3.358c0.008,1.37,0.727,2.636,1.897,3.34l26.195,15.71l-16.089,8.829   c-0.91,0.497-1.584,1.343-1.875,2.345c-0.29,0.998-0.168,2.073,0.337,2.983l7.107,12.83c0.505,0.914,1.354,1.588,2.356,1.871   c0.994,0.282,2.073,0.16,2.991-0.353l16.969-9.548v30.346c0,1.385,0.727,2.666,1.921,3.374c1.186,0.7,2.67,0.727,3.886,0.058   l14.238-7.834c1.247-0.689,2.027-2.001,2.027-3.432v-34.989l24.39-16.847v15.871c0,1.377,0.727,2.65,1.904,3.358   c1.171,0.704,2.632,0.742,3.856,0.1l14.842-7.896l-2.104,29.474l-30.924,17.489c-1.231,0.696-1.989,1.996-1.989,3.408v2.54   c20.121-7.742,38.972-18.028,56.178-30.472l-1.897-22.229l13.779,7.65c1.216,0.673,2.692,0.654,3.886-0.05s1.928-1.985,1.928-3.374   v-15.875l12.249,8.458c5.049-5.03,9.846-10.306,14.444-15.753l-17.727-8.553l14.658-8.424c1.225-0.703,1.974-2.016,1.967-3.427   c-0.016-1.416-0.788-2.712-2.021-3.397l-14.65-8.102l26.425-13.484l16.64,9.357c3.719-6.435,7.161-13.041,10.298-19.823   l-3.29-1.862l5.601-3.252C478.341,340.715,480.806,334.262,483.031,327.694z"/>
</g>
<g>
</g>
<g>
</g>
<g>
</g>
<g>
</g>
<g>
</g>
<g>
</g>
<g>
</g>
<g>
</g>
<g>
</g>
<g>
</g>
<g>
</g>
<g>
</g>
<g>
</g>
<g>
</g>
<g>
</g>
</svg>
