<?xml version="1.0" encoding="iso-8859-1"?>
<!-- Generator: Adobe Illustrator 19.0.0, SVG Export Plug-In . SVG Version: 6.00 Build 0)  -->
<svg xmlns="http://www.w3.org/2000/svg" xmlns:xlink="http://www.w3.org/1999/xlink" version="1.1" id="Layer_1" x="0px" y="0px" viewBox="0 0 496.161 496.161" style="enable-background:new 0 0 496.161 496.161;" xml:space="preserve">
<path style="fill:#A3D5E0;" d="M248.078,0C111.073,0,0.002,111.063,0.002,248.083c0,137.005,111.07,248.078,248.075,248.078  c137.013,0,248.082-111.073,248.082-248.078C496.16,111.063,385.09,0,248.078,0z"/>
<g style="opacity:0.5;">
	<path style="fill:#E4F2F4;" d="M404.775,55.78c-5.99-4.885-12.194-9.502-18.629-13.82c-26.363-17.695-56.315-30.472-88.531-37.002   c-0.987-0.198-1.997-0.344-2.984-0.531c-15.086-2.865-30.632-4.426-46.553-4.426c-19.884,0-39.193,2.406-57.724,6.824   c-6.693,1.595-13.273,3.454-19.745,5.581c-28.032,9.211-53.845,23.276-76.475,41.209c-10.91,8.657-21.108,18.17-30.426,28.51   c-19.379,21.521-35.002,46.47-45.949,73.801c10.458,18.847,29.378,32.675,52.405,35.602c20.604,2.616,40.204-4.055,54.74-16.678   c10.718,11.215,25.2,18.98,41.786,21.092c14.498,1.84,28.514-0.898,40.617-7.072c10.979,14.493,27.534,24.749,47.005,27.224   c27.503,3.493,53.239-9.509,67.454-31.252c9.548,7.375,21.085,12.439,33.922,14.069c22.86,2.903,44.488-5.607,59.322-21.031   c24.244-1.955,45.528-16.476,56.507-37.698C455.643,107.36,432.738,78.59,404.775,55.78z"/>
</g>
<g>
	<path style="fill:#E4F2F4;" d="M199.099,238.949c-6.679,6.683-6.679,17.508,0,24.187s17.504,6.679,24.183,0l14.23-38.409   L199.099,238.949z"/>
	<path style="fill:#E4F2F4;" d="M28.378,238.949c-6.68,6.683-6.68,17.508,0,24.187c6.679,6.679,17.504,6.679,24.183,0l14.23-38.409   L28.378,238.949z"/>
	<path style="fill:#E4F2F4;" d="M113.574,238.949c-6.679,6.683-6.679,17.508,0,24.187s17.505,6.679,24.184,0l14.229-38.409   L113.574,238.949z"/>
	<path style="fill:#E4F2F4;" d="M199.099,361.685c-6.679,6.68-6.679,17.505,0,24.188c6.679,6.679,17.504,6.675,24.183-0.004   l14.23-38.405L199.099,361.685z"/>
	<path style="fill:#E4F2F4;" d="M113.574,361.685c-6.679,6.68-6.679,17.505,0,24.188c6.679,6.679,17.505,6.675,24.184-0.004   l14.229-38.405L113.574,361.685z"/>
	<path style="fill:#E4F2F4;" d="M65.59,298.683c-6.679,6.684-6.679,17.509,0,24.188s17.504,6.679,24.183,0l14.23-38.409   L65.59,298.683z"/>
	<path style="fill:#E4F2F4;" d="M150.786,298.683c-6.679,6.684-6.679,17.509,0,24.188c6.68,6.679,17.505,6.679,24.184,0   l14.229-38.409L150.786,298.683z"/>
	<path style="fill:#E4F2F4;" d="M239.899,298.683c-6.679,6.684-6.679,17.509,0,24.188s17.505,6.679,24.184,0l14.229-38.409   L239.899,298.683z"/>
</g>
<g style="opacity:0.5;">
	<path style="fill:#E4F2F4;" d="M372.949,33.75c-5.661-3.305-11.422-6.449-17.358-9.307c-14.023-6.752-28.781-12.195-44.113-16.234   c-0.788-0.211-1.576-0.421-2.364-0.62c-15.431-3.905-31.42-6.372-47.846-7.233c-4.368-0.229-8.768-0.355-13.189-0.355   c-11.805,0-23.396,0.88-34.757,2.475c-21.834,3.064-42.773,8.925-62.397,17.286c-0.948,0.406-1.882,0.861-2.83,1.282   c-8.676,3.825-17.092,8.136-25.216,12.898c-27.39,16.047-51.412,37.189-70.791,62.142c-0.703,0.906-1.438,1.794-2.134,2.712   c0.91,0.367,1.858,0.654,2.784,0.986c5.906,31.172,31.987,55.818,65.137,58.396c14.979,1.163,29.24-2.353,41.358-9.303   c12.004,14.333,29.516,24.034,49.629,25.599c28.414,2.203,54.196-12.44,67.707-35.483c10.175,7.1,22.271,11.717,35.529,12.75   c23.624,1.836,45.405-7.995,59.865-24.577c26.86-3.489,49.43-21.942,58.449-47.254C413.71,61.817,394.347,46.244,372.949,33.75z"/>
</g>
<path style="fill:#E4F2F4;" d="M248.078,0C173.409,0,106.49,33.039,61.015,85.242c4.101-0.379,8.117-1.075,12.011-2.077  c12.555,23.02,36.968,38.639,65.029,38.639c18.736,0,35.797-7.012,48.834-18.483c13.036,11.472,30.097,18.483,48.833,18.483  c32.116,0,59.375-20.488,69.627-49.082c12.271,9.031,27.381,14.433,43.784,14.433c23.877,0,45.062-11.354,58.595-28.903  C364.58,21.923,308.899,0,248.078,0z"/>
<g>
	<path style="fill:#A3D5E0;" d="M446.34,362.604l-26.433,13.483l14.65,8.102c1.239,0.686,2.013,1.982,2.021,3.397   c0.015,1.411-0.735,2.724-1.967,3.427l-14.658,8.424l17.733,8.553c9.456-11.204,17.918-23.257,25.293-36.029L446.34,362.604z"/>
	<path style="fill:#A3D5E0;" d="M469.98,350.275l3.298,1.862c0.78-1.698,1.561-3.396,2.31-5.114L469.98,350.275z"/>
	<path style="fill:#A3D5E0;" d="M410.995,415.285v15.875c0,1.389-0.734,2.67-1.936,3.374c-1.193,0.704-2.67,0.723-3.887,0.05   l-13.771-7.65l1.89,22.229c10.642-7.696,20.672-16.17,29.952-25.419L410.995,415.285z"/>
	<path style="fill:#A3D5E0;" d="M483.032,327.694l-3.297-5.691c-0.521-0.91-1.393-1.568-2.41-1.832   c-1.002-0.257-2.097-0.107-2.991,0.432l-15.439,9.269v-30.827c0-1.381-0.727-2.663-1.912-3.366   c-1.193-0.708-2.662-0.738-3.879-0.073l-15.668,8.538c-1.255,0.685-2.043,2.005-2.043,3.439v35.689l-24.397,16.716v-16.356   c0-1.4-0.75-2.693-1.958-3.394c-1.209-0.699-2.709-0.699-3.917,0l-13.702,7.911l2.479-28.973l30.342-18.196   c1.179-0.708,1.897-1.981,1.897-3.358v-17.1c0-1.389-0.734-2.67-1.928-3.374c-1.201-0.707-2.67-0.727-3.887-0.049l-26.241,14.57   v-14.712c0-2.162-1.752-3.917-3.917-3.917h-16.38c-2.165,0-3.917,1.755-3.917,3.917v14.78l-26.96-14.654   c-1.225-0.662-2.686-0.635-3.871,0.072c-1.194,0.708-1.921,1.985-1.921,3.366v17.1c0,1.388,0.734,2.674,1.936,3.377l30.978,18.186   l2.096,29.19l-14.78-8.171c-1.209-0.673-2.693-0.654-3.879,0.054c-1.193,0.704-1.928,1.989-1.928,3.374v16.353l-24.397-16.708   v-35.695c0-1.378-0.72-2.651-1.897-3.359l-14.238-8.537c-1.216-0.728-2.724-0.742-3.947-0.05c-1.231,0.696-1.989,1.996-1.989,3.408   v30.942l-16.196-9.41c-0.918-0.536-2.02-0.678-3.045-0.379c-1.024,0.295-1.89,0.998-2.387,1.943l-7.122,13.549   c-0.957,1.817-0.345,4.066,1.399,5.148l15.025,9.322l-27.006,15.271c-1.209,0.685-1.966,1.967-1.989,3.358   c-0.016,1.393,0.712,2.693,1.905,3.408l14.245,8.546c1.193,0.724,2.678,0.746,3.901,0.073l33.081-18.22l26.211,13.476   l-14.674,8.117c-1.239,0.686-2.013,1.982-2.02,3.397c-0.016,1.411,0.734,2.724,1.966,3.427l14.682,8.439l-26.188,12.727   l-33.164-16.923c-1.217-0.62-2.671-0.563-3.825,0.148l-12.815,7.842c-1.17,0.716-1.882,1.989-1.874,3.358   c0.008,1.37,0.727,2.636,1.905,3.34l26.195,15.71l-16.089,8.829c-0.911,0.497-1.592,1.343-1.883,2.345   c-0.282,0.998-0.168,2.073,0.337,2.983l7.107,12.83c0.505,0.914,1.354,1.588,2.364,1.871c0.986,0.283,2.073,0.16,2.983-0.353   l16.969-9.548v30.346c0,1.385,0.734,2.666,1.928,3.374c1.187,0.7,2.663,0.727,3.879,0.058l14.237-7.834   c1.255-0.688,2.028-2.001,2.028-3.432v-34.989l24.397-16.847v15.871c0,1.377,0.719,2.651,1.896,3.358   c1.179,0.704,2.64,0.742,3.856,0.1l14.85-7.896l-2.111,29.474l-30.924,17.489c-1.224,0.696-1.989,1.997-1.989,3.408v2.54   c20.129-7.742,38.979-18.028,56.178-30.472l-1.89-22.229l13.771,7.65c1.217,0.673,2.693,0.654,3.887-0.05   c1.201-0.704,1.936-1.985,1.936-3.374v-15.875l12.249,8.458c5.041-5.03,9.838-10.306,14.443-15.753l-17.733-8.553l14.658-8.424   c1.231-0.703,1.981-2.016,1.967-3.427c-0.008-1.415-0.781-2.712-2.021-3.397l-14.65-8.102l26.433-13.483l16.64,9.356   c3.718-6.435,7.153-13.041,10.298-19.823l-3.298-1.862l5.607-3.252C478.334,340.715,480.805,334.262,483.032,327.694z"/>
</g>
<g style="opacity:0.5;">
	<path style="fill:#E4F2F4;" d="M483.032,327.694l-3.297-5.691c-0.521-0.91-1.393-1.568-2.41-1.832   c-1.002-0.257-2.097-0.107-2.991,0.432l-15.439,9.269v-30.827c0-1.381-0.727-2.663-1.912-3.366   c-1.193-0.708-2.662-0.738-3.879-0.073l-15.668,8.538c-1.255,0.685-2.043,2.005-2.043,3.439v35.689l-24.397,16.716v-16.356   c0-1.4-0.75-2.693-1.958-3.394c-1.209-0.699-2.709-0.699-3.917,0l-13.702,7.911l2.479-28.973l30.342-18.196   c1.179-0.708,1.897-1.981,1.897-3.358v-17.1c0-1.389-0.734-2.67-1.928-3.374c-1.201-0.707-2.67-0.727-3.887-0.049l-26.241,14.57   v-14.712c0-2.162-1.752-3.917-3.917-3.917h-16.38c-2.165,0-3.917,1.755-3.917,3.917v14.78l-26.96-14.654   c-1.225-0.662-2.686-0.635-3.871,0.072c-1.194,0.708-1.921,1.985-1.921,3.366v17.1c0,1.388,0.734,2.674,1.936,3.377l30.978,18.186   l2.096,29.19l-14.78-8.171c-1.209-0.673-2.693-0.654-3.879,0.054c-1.193,0.704-1.928,1.989-1.928,3.374v16.353l-24.397-16.708   v-35.695c0-1.378-0.72-2.651-1.897-3.359l-14.238-8.537c-1.216-0.728-2.724-0.742-3.947-0.05c-1.231,0.696-1.989,1.996-1.989,3.408   v30.942l-16.196-9.41c-0.918-0.536-2.02-0.678-3.045-0.379c-1.024,0.295-1.89,0.998-2.387,1.943l-7.122,13.549   c-0.957,1.817-0.345,4.066,1.399,5.148l15.025,9.322l-27.006,15.271c-1.209,0.685-1.966,1.967-1.989,3.358   c-0.016,1.393,0.712,2.693,1.905,3.408l14.245,8.546c1.193,0.724,2.678,0.746,3.901,0.073l33.081-18.22l26.211,13.476   l-14.674,8.117c-1.239,0.686-2.013,1.982-2.02,3.397c-0.016,1.411,0.734,2.724,1.966,3.427l14.682,8.439l-26.188,12.727   l-33.164-16.923c-1.217-0.62-2.671-0.563-3.825,0.148l-12.815,7.842c-1.17,0.716-1.882,1.989-1.874,3.358   c0.008,1.37,0.727,2.636,1.905,3.34l26.195,15.71l-16.089,8.829c-0.911,0.497-1.592,1.343-1.883,2.345   c-0.282,0.998-0.168,2.073,0.337,2.983l7.107,12.83c0.505,0.914,1.354,1.588,2.364,1.871c0.986,0.283,2.073,0.16,2.983-0.353   l16.969-9.548v30.346c0,1.385,0.734,2.666,1.928,3.374c1.187,0.7,2.663,0.727,3.879,0.058l14.237-7.834   c1.255-0.688,2.028-2.001,2.028-3.432v-34.989l24.397-16.847v15.871c0,1.377,0.719,2.651,1.896,3.358   c1.179,0.704,2.64,0.742,3.856,0.1l14.85-7.896l-2.111,29.474l-30.924,17.489c-1.224,0.696-1.989,1.997-1.989,3.408v2.54   c20.129-7.742,38.979-18.028,56.178-30.472l-1.89-22.229l13.771,7.65c1.217,0.673,2.693,0.654,3.887-0.05   c1.201-0.704,1.936-1.985,1.936-3.374v-15.875l12.249,8.458c5.041-5.03,9.838-10.306,14.443-15.753l-17.733-8.553l14.658-8.424   c1.231-0.703,1.981-2.016,1.967-3.427c-0.008-1.415-0.781-2.712-2.021-3.397l-14.65-8.102l26.433-13.483l16.64,9.356   c3.718-6.435,7.153-13.041,10.298-19.823l-3.298-1.862l5.607-3.252C478.334,340.715,480.805,334.262,483.032,327.694z"/>
</g>
<g>
</g>
<g>
</g>
<g>
</g>
<g>
</g>
<g>
</g>
<g>
</g>
<g>
</g>
<g>
</g>
<g>
</g>
<g>
</g>
<g>
</g>
<g>
</g>
<g>
</g>
<g>
</g>
<g>
</g>
</svg>
