<?xml version="1.0" encoding="iso-8859-1"?>
<!-- Generator: Adobe Illustrator 19.0.0, SVG Export Plug-In . SVG Version: 6.00 Build 0)  -->
<svg xmlns="http://www.w3.org/2000/svg" xmlns:xlink="http://www.w3.org/1999/xlink" version="1.1" id="Layer_1" x="0px" y="0px" viewBox="0 0 496.161 496.161" style="enable-background:new 0 0 496.161 496.161;" xml:space="preserve">
<g>
	<path style="fill:#A3D5E0;" d="M248.077,0C111.072,0,0.002,111.063,0.002,248.083c0,137.005,111.07,248.078,248.075,248.078   c137.013,0,248.083-111.073,248.083-248.078C496.16,111.063,385.09,0,248.077,0z"/>
	<path style="fill:#A3D5E0;" d="M469.984,350.275l3.293,1.862c0.784-1.698,1.564-3.396,2.311-5.114L469.984,350.275z"/>
	<path style="fill:#A3D5E0;" d="M446.34,362.604l-26.429,13.483l14.651,8.103c1.235,0.685,2.008,1.981,2.02,3.396   c0.012,1.411-0.738,2.724-1.966,3.428l-14.659,8.423l17.727,8.553c9.459-11.204,17.917-23.257,25.296-36.029L446.34,362.604z"/>
	<path style="fill:#A3D5E0;" d="M410.995,415.285v15.875c0,1.389-0.734,2.67-1.932,3.374c-1.194,0.704-2.67,0.723-3.887,0.05   l-13.774-7.65l1.893,22.229c10.638-7.696,20.672-16.17,29.948-25.419L410.995,415.285z"/>
	<path style="fill:#A3D5E0;" d="M483.027,327.694l-3.29-5.691c-0.524-0.91-1.393-1.568-2.41-1.832   c-1.006-0.257-2.096-0.107-2.995,0.432l-15.435,9.269v-30.827c0-1.381-0.727-2.663-1.917-3.366   c-1.19-0.708-2.663-0.738-3.875-0.073l-15.668,8.538c-1.258,0.685-2.042,2.005-2.042,3.439v35.689l-24.401,16.716v-16.356   c0-1.4-0.746-2.693-1.958-3.393c-1.209-0.7-2.708-0.7-3.917,0l-13.702,7.91l2.482-28.973l30.338-18.196   c1.178-0.708,1.901-1.981,1.901-3.358v-17.1c0-1.389-0.734-2.67-1.932-3.373c-1.197-0.708-2.67-0.728-3.887-0.05l-26.237,14.57   v-14.712c0-2.161-1.752-3.917-3.917-3.917h-16.38c-2.165,0-3.917,1.756-3.917,3.917v14.78l-26.964-14.654   c-1.22-0.662-2.686-0.635-3.871,0.072c-1.19,0.708-1.917,1.985-1.917,3.366v17.1c0,1.388,0.734,2.674,1.936,3.377l30.973,18.186   l2.096,29.19l-14.777-8.171c-1.213-0.673-2.693-0.654-3.883,0.054c-1.193,0.704-1.928,1.989-1.928,3.374v16.353l-24.394-16.708   v-35.695c0-1.378-0.723-2.651-1.901-3.359l-14.238-8.537c-1.212-0.728-2.72-0.742-3.948-0.05c-1.228,0.696-1.985,1.996-1.985,3.408   v30.942l-16.196-9.41c-0.918-0.536-2.023-0.677-3.049-0.379c-1.025,0.295-1.89,0.998-2.383,1.943l-7.123,13.549   c-0.956,1.817-0.344,4.066,1.4,5.148l15.025,9.322l-27.006,15.271c-1.212,0.685-1.97,1.967-1.989,3.358   c-0.019,1.393,0.708,2.693,1.901,3.409l14.245,8.545c1.193,0.724,2.682,0.746,3.906,0.073l33.077-18.22l26.211,13.477   l-14.674,8.117c-1.235,0.685-2.008,1.981-2.02,3.396c-0.012,1.411,0.738,2.724,1.966,3.428l14.682,8.438l-26.188,12.727   l-33.165-16.923c-1.213-0.62-2.667-0.563-3.822,0.148l-12.818,7.842c-1.167,0.716-1.878,1.989-1.871,3.358   c0.008,1.37,0.727,2.636,1.901,3.34l26.195,15.71l-16.089,8.829c-0.911,0.497-1.588,1.343-1.878,2.345   c-0.287,0.998-0.168,2.073,0.336,2.983l7.107,12.83c0.505,0.914,1.354,1.588,2.36,1.87c0.991,0.283,2.073,0.161,2.987-0.352   l16.969-9.548v30.346c0,1.385,0.731,2.666,1.924,3.374c1.186,0.7,2.666,0.727,3.883,0.058l14.237-7.834   c1.251-0.689,2.027-2.001,2.027-3.432v-34.989l24.394-16.847v15.871c0,1.377,0.723,2.651,1.901,3.358   c1.174,0.704,2.636,0.742,3.856,0.1l14.846-7.896l-2.108,29.474l-30.923,17.489c-1.228,0.696-1.989,1.996-1.989,3.408v2.54   c20.125-7.742,38.975-18.028,56.177-30.472l-1.893-22.229l13.774,7.65c1.216,0.673,2.693,0.654,3.887-0.05   c1.197-0.704,1.932-1.985,1.932-3.374v-15.875l12.249,8.458c5.045-5.03,9.842-10.306,14.44-15.753l-17.727-8.553l14.659-8.423   c1.228-0.704,1.978-2.017,1.966-3.428c-0.011-1.415-0.784-2.712-2.02-3.396l-14.651-8.103l26.429-13.483l16.64,9.356   c3.718-6.435,7.157-13.041,10.297-19.823l-3.293-1.862l5.604-3.252C478.333,340.715,480.806,334.262,483.027,327.694z"/>
</g>
<g style="opacity:0.5;">
	<path style="fill:#E4F2F4;" d="M483.027,327.694l-3.29-5.691c-0.524-0.91-1.393-1.568-2.41-1.832   c-1.006-0.257-2.096-0.107-2.995,0.432l-15.435,9.269v-30.827c0-1.381-0.727-2.663-1.917-3.366   c-1.19-0.708-2.663-0.738-3.875-0.073l-15.668,8.538c-1.258,0.685-2.042,2.005-2.042,3.439v35.689l-24.401,16.716v-16.356   c0-1.4-0.746-2.693-1.958-3.393c-1.209-0.7-2.708-0.7-3.917,0l-13.702,7.91l2.482-28.973l30.338-18.196   c1.178-0.708,1.901-1.981,1.901-3.358v-17.1c0-1.389-0.734-2.67-1.932-3.373c-1.197-0.708-2.67-0.728-3.887-0.05l-26.237,14.57   v-14.712c0-2.161-1.752-3.917-3.917-3.917h-16.38c-2.165,0-3.917,1.756-3.917,3.917v14.78l-26.964-14.654   c-1.22-0.662-2.686-0.635-3.871,0.072c-1.19,0.708-1.917,1.985-1.917,3.366v17.1c0,1.388,0.734,2.674,1.936,3.377l30.973,18.186   l2.096,29.19l-14.777-8.171c-1.213-0.673-2.693-0.654-3.883,0.054c-1.193,0.704-1.928,1.989-1.928,3.374v16.353l-24.394-16.708   v-35.695c0-1.378-0.723-2.651-1.901-3.359l-14.238-8.537c-1.212-0.728-2.72-0.742-3.948-0.05c-1.228,0.696-1.985,1.996-1.985,3.408   v30.942l-16.196-9.41c-0.918-0.536-2.023-0.677-3.049-0.379c-1.025,0.295-1.89,0.998-2.383,1.943l-7.123,13.549   c-0.956,1.817-0.344,4.066,1.4,5.148l15.025,9.322l-27.006,15.271c-1.212,0.685-1.97,1.967-1.989,3.358   c-0.019,1.393,0.708,2.693,1.901,3.409l14.245,8.545c1.193,0.724,2.682,0.746,3.906,0.073l33.077-18.22l26.211,13.477   l-14.674,8.117c-1.235,0.685-2.008,1.981-2.02,3.396c-0.012,1.411,0.738,2.724,1.966,3.428l14.682,8.438l-26.188,12.727   l-33.165-16.923c-1.213-0.62-2.667-0.563-3.822,0.148l-12.818,7.842c-1.167,0.716-1.878,1.989-1.871,3.358   c0.008,1.37,0.727,2.636,1.901,3.34l26.195,15.71l-16.089,8.829c-0.911,0.497-1.588,1.343-1.878,2.345   c-0.287,0.998-0.168,2.073,0.336,2.983l7.107,12.83c0.505,0.914,1.354,1.588,2.36,1.87c0.991,0.283,2.073,0.161,2.987-0.352   l16.969-9.548v30.346c0,1.385,0.731,2.666,1.924,3.374c1.186,0.7,2.666,0.727,3.883,0.058l14.237-7.834   c1.251-0.689,2.027-2.001,2.027-3.432v-34.989l24.394-16.847v15.871c0,1.377,0.723,2.651,1.901,3.358   c1.174,0.704,2.636,0.742,3.856,0.1l14.846-7.896l-2.108,29.474l-30.923,17.489c-1.228,0.696-1.989,1.996-1.989,3.408v2.54   c20.125-7.742,38.975-18.028,56.177-30.472l-1.893-22.229l13.774,7.65c1.216,0.673,2.693,0.654,3.887-0.05   c1.197-0.704,1.932-1.985,1.932-3.374v-15.875l12.249,8.458c5.045-5.03,9.842-10.306,14.44-15.753l-17.727-8.553l14.659-8.423   c1.228-0.704,1.978-2.017,1.966-3.428c-0.011-1.415-0.784-2.712-2.02-3.396l-14.651-8.103l26.429-13.483l16.64,9.356   c3.718-6.435,7.157-13.041,10.297-19.823l-3.293-1.862l5.604-3.252C478.333,340.715,480.806,334.262,483.027,327.694z"/>
</g>
<g style="opacity:0.5;">
	<path style="fill:#E4F2F4;" d="M404.775,55.78c-5.987-4.885-12.195-9.502-18.625-13.82c-26.371-17.695-56.319-30.472-88.535-37.002   c-0.987-0.198-1.997-0.344-2.988-0.531c-15.083-2.865-30.632-4.426-46.549-4.426c-19.884,0-39.193,2.406-57.723,6.824   c-6.694,1.595-13.277,3.454-19.746,5.581c-28.032,9.211-53.844,23.276-76.471,41.209c-10.917,8.657-21.115,18.17-30.426,28.51   c-19.382,21.521-35.009,46.47-45.953,73.801c10.458,18.847,29.382,32.675,52.406,35.602c20.603,2.616,40.204-4.055,54.743-16.678   c10.719,11.215,25.193,18.98,41.783,21.092c14.498,1.84,28.514-0.898,40.617-7.072c10.982,14.493,27.538,24.749,47.001,27.224   c27.507,3.493,53.244-9.509,67.462-31.252c9.548,7.375,21.081,12.439,33.915,14.069c22.863,2.903,44.491-5.607,59.33-21.031   c24.237-1.955,45.528-16.476,56.502-37.698C455.639,107.36,432.737,78.59,404.775,55.78z"/>
</g>
<g>
	<path style="fill:#E4F2F4;" d="M132.509,307.864c-9.341,0-16.919,7.574-16.919,16.92c0,9.341,7.578,16.919,16.919,16.919   c9.345,0,16.919-7.578,16.919-16.919C149.428,315.438,141.854,307.864,132.509,307.864z"/>
	<path style="fill:#E4F2F4;" d="M57.786,240.192c-9.341,0-16.919,7.574-16.919,16.919c0,9.341,7.578,16.915,16.919,16.915   c9.345,0,16.919-7.574,16.919-16.915C74.706,247.766,67.131,240.192,57.786,240.192z"/>
	<circle style="fill:#E4F2F4;" cx="208.561" cy="257.111" r="16.917"/>
	<circle style="fill:#E4F2F4;" cx="208.561" cy="396.821" r="16.919"/>
</g>
<g style="opacity:0.5;">
	<path style="fill:#E4F2F4;" d="M372.953,33.75c-5.662-3.305-11.43-6.449-17.363-9.307c-14.02-6.752-28.781-12.195-44.113-16.234   c-0.788-0.211-1.576-0.421-2.368-0.62c-15.423-3.905-31.417-6.372-47.838-7.233c-4.372-0.229-8.768-0.355-13.193-0.355   c-11.801,0-23.395,0.88-34.756,2.475c-21.834,3.064-42.77,8.925-62.397,17.286c-0.952,0.406-1.878,0.861-2.827,1.282   c-8.684,3.825-17.095,8.136-25.224,12.898C95.485,49.989,71.465,71.131,52.091,96.084c-0.708,0.906-1.442,1.794-2.134,2.712   c0.906,0.367,1.855,0.654,2.785,0.986c5.906,31.172,31.987,55.818,65.132,58.396c14.98,1.163,29.237-2.353,41.355-9.303   c12.004,14.333,29.52,24.034,49.629,25.599c28.421,2.203,54.2-12.439,67.707-35.483c10.175,7.1,22.274,11.717,35.537,12.75   c23.621,1.836,45.406-7.995,59.865-24.577c26.857-3.489,49.43-21.942,58.446-47.254C413.714,61.817,394.346,46.244,372.953,33.75z"/>
</g>
<path style="fill:#E4F2F4;" d="M248.077,0C173.404,0,106.489,33.039,61.011,85.242c4.104-0.379,8.117-1.075,12.012-2.077  c12.554,23.02,36.967,38.639,65.037,38.639c18.732,0,35.789-7.012,48.83-18.483c13.04,11.472,30.097,18.483,48.833,18.483  c32.117,0,59.379-20.488,69.627-49.082c12.271,9.031,27.377,14.433,43.784,14.433c23.881,0,45.058-11.354,58.595-28.903  C364.578,21.923,308.897,0,248.077,0z"/>
<g>
</g>
<g>
</g>
<g>
</g>
<g>
</g>
<g>
</g>
<g>
</g>
<g>
</g>
<g>
</g>
<g>
</g>
<g>
</g>
<g>
</g>
<g>
</g>
<g>
</g>
<g>
</g>
<g>
</g>
</svg>
