<?xml version="1.0" encoding="iso-8859-1"?>
<!-- Generator: Adobe Illustrator 19.0.0, SVG Export Plug-In . SVG Version: 6.00 Build 0)  -->
<svg xmlns="http://www.w3.org/2000/svg" xmlns:xlink="http://www.w3.org/1999/xlink" version="1.1" id="Layer_1" x="0px" y="0px" viewBox="0 0 496.162 496.162" style="enable-background:new 0 0 496.162 496.162;" xml:space="preserve">
<path style="fill:#A3D5E0;" d="M248.077,0C111.072,0,0.002,111.062,0.002,248.083c0,137.005,111.07,248.079,248.075,248.079  c137.013,0,248.083-111.074,248.083-248.079C496.16,111.062,385.09,0,248.077,0z"/>
<g style="opacity:0.5;">
	<path style="fill:#E4F2F4;" d="M404.774,55.78c-5.99-4.885-12.194-9.501-18.629-13.82c-26.363-17.696-56.315-30.472-88.531-37.002   c-0.987-0.199-1.997-0.344-2.983-0.531c-15.087-2.865-30.633-4.426-46.554-4.426c-19.884,0-39.193,2.406-57.723,6.824   c-6.694,1.595-13.274,3.455-19.746,5.581c-28.031,9.211-53.845,23.277-76.475,41.209c-10.909,8.657-21.107,18.17-30.426,28.51   c-19.379,21.521-35.001,46.469-45.949,73.801c10.458,18.847,29.378,32.675,52.406,35.602c20.603,2.616,40.203-4.055,54.739-16.678   c10.718,11.216,25.2,18.981,41.787,21.092c14.497,1.84,28.513-0.899,40.616-7.073c10.979,14.494,27.534,24.75,47.005,27.224   c27.503,3.493,53.239-9.509,67.454-31.252c9.548,7.375,21.085,12.439,33.923,14.069c22.859,2.903,44.487-5.608,59.321-21.031   c24.245-1.955,45.528-16.476,56.507-37.698C455.643,107.36,432.737,78.59,404.774,55.78z"/>
</g>
<g>
	<path style="fill:#7CB7C1;" d="M150.755,230.605c0,0-25.851,1.656-38.413,14.222c-6.679,6.679-6.679,17.508,0,24.187   c6.679,6.675,17.505,6.675,24.184-0.003C150.518,255.022,134.161,247.203,150.755,230.605z"/>
	<path style="fill:#7CB7C1;" d="M75.329,299.685c0,0-25.852,1.656-38.413,14.222c-6.68,6.679-6.68,17.508,0,24.191   c6.679,6.675,17.504,6.675,24.183-0.007C75.092,324.106,58.735,316.283,75.329,299.685z"/>
	<path style="fill:#7CB7C1;" d="M304.14,230.602c0,0-25.843,1.66-38.413,14.222c-6.679,6.683-6.679,17.508,0,24.188   c6.68,6.679,17.505,6.679,24.184,0C303.903,255.022,287.546,247.199,304.14,230.602z"/>
</g>
<g>
	<path style="fill:#E4F2F4;" d="M191.303,244.824c-6.679,6.683-6.679,17.508,0,24.188c6.679,6.679,17.505,6.679,24.184,0   l14.229-38.41L191.303,244.824z"/>
	<path style="fill:#E4F2F4;" d="M191.303,384.534c-6.679,6.679-6.679,17.504,0,24.187c6.679,6.679,17.505,6.675,24.184-0.004   l14.229-38.406L191.303,384.534z"/>
	<path style="fill:#E4F2F4;" d="M41.146,244.824c-6.679,6.683-6.679,17.508,0,24.188c6.679,6.679,17.504,6.679,24.184,0   l14.229-38.41L41.146,244.824z"/>
	<path style="fill:#E4F2F4;" d="M109.045,314.026c-6.679,6.679-6.679,17.504,0,24.187c6.679,6.679,17.504,6.675,24.183-0.003   l14.23-38.406L109.045,314.026z"/>
</g>
<g>
	<path style="fill:#7CB7C1;" d="M226.104,299.685c0,0-25.851,1.656-38.413,14.222c-6.679,6.679-6.679,17.508,0,24.188   c6.68,6.675,17.505,6.679,24.184,0C225.868,324.106,209.503,316.283,226.104,299.685z"/>
	<path style="fill:#7CB7C1;" d="M150.755,370.311c0,0-25.851,1.66-38.413,14.223c-6.679,6.679-6.679,17.508,0,24.191   c6.679,6.675,17.505,6.675,24.184-0.008C150.518,394.731,134.161,386.909,150.755,370.311z"/>
</g>
<g style="opacity:0.5;">
	<path style="fill:#E4F2F4;" d="M372.948,33.75c-5.661-3.305-11.422-6.449-17.358-9.307c-14.023-6.751-28.781-12.195-44.113-16.234   c-0.788-0.21-1.576-0.42-2.363-0.62c-15.432-3.905-31.421-6.373-47.847-7.233C256.899,0.127,252.499,0,248.078,0   c-11.805,0-23.396,0.88-34.756,2.475c-21.835,3.064-42.774,8.924-62.397,17.286c-0.949,0.406-1.883,0.861-2.831,1.282   c-8.676,3.825-17.091,8.136-25.216,12.899c-27.389,16.047-51.411,37.189-70.79,62.141c-0.704,0.906-1.438,1.794-2.135,2.712   c0.91,0.367,1.859,0.654,2.785,0.987c5.906,31.172,31.986,55.818,65.136,58.396c14.979,1.163,29.24-2.353,41.358-9.303   c12.004,14.333,29.517,24.034,49.629,25.599c28.414,2.204,54.196-12.439,67.707-35.483c10.176,7.1,22.271,11.717,35.529,12.75   c23.625,1.836,45.405-7.995,59.865-24.577c26.86-3.489,49.43-21.942,58.449-47.253C413.711,61.816,394.347,46.244,372.948,33.75z"/>
</g>
<path style="fill:#E4F2F4;" d="M248.077,0C173.408,0,106.489,33.039,61.014,85.242c4.101-0.379,8.117-1.075,12.012-2.077  c12.554,23.021,36.967,38.639,65.029,38.639c18.735,0,35.796-7.012,48.833-18.483c13.036,11.472,30.097,18.483,48.833,18.483  c32.117,0,59.376-20.488,69.627-49.082c12.271,9.031,27.382,14.433,43.784,14.433c23.877,0,45.062-11.354,58.595-28.904  C364.579,21.923,308.898,0,248.077,0z"/>
<g>
	<path style="fill:#A3D5E0;" d="M446.34,362.603l-26.433,13.484l14.651,8.102c1.239,0.685,2.012,1.981,2.02,3.396   c0.015,1.412-0.734,2.724-1.967,3.428l-14.658,8.423l17.734,8.553c9.456-11.204,17.917-23.257,25.292-36.03L446.34,362.603z"/>
	<path style="fill:#A3D5E0;" d="M469.98,350.274l3.297,1.863c0.78-1.699,1.561-3.397,2.311-5.115L469.98,350.274z"/>
	<path style="fill:#A3D5E0;" d="M410.994,415.285v15.875c0,1.389-0.734,2.67-1.936,3.374c-1.193,0.704-2.67,0.723-3.886,0.05   l-13.771-7.65l1.89,22.229c10.643-7.696,20.672-16.169,29.952-25.419L410.994,415.285z"/>
	<path style="fill:#A3D5E0;" d="M483.031,327.694l-3.297-5.692c-0.521-0.91-1.393-1.568-2.41-1.832   c-1.002-0.256-2.096-0.107-2.991,0.432l-15.438,9.269v-30.828c0-1.381-0.727-2.662-1.913-3.366   c-1.193-0.708-2.662-0.738-3.879-0.073l-15.668,8.538c-1.255,0.685-2.043,2.004-2.043,3.439v35.689l-24.397,16.716V343.63   c0-1.4-0.749-2.693-1.958-3.393s-2.708-0.7-3.917,0l-13.702,7.911l2.479-28.973l30.342-18.197c1.179-0.708,1.897-1.981,1.897-3.358   v-17.099c0-1.388-0.734-2.67-1.928-3.374c-1.201-0.708-2.67-0.727-3.887-0.05l-26.241,14.57v-14.712   c0-2.161-1.752-3.917-3.917-3.917h-16.38c-2.165,0-3.917,1.756-3.917,3.917v14.781l-26.96-14.655   c-1.225-0.662-2.686-0.635-3.871,0.073c-1.193,0.708-1.921,1.985-1.921,3.366v17.099c0,1.389,0.735,2.674,1.936,3.377   l30.978,18.186l2.096,29.19l-14.78-8.171c-1.209-0.673-2.693-0.654-3.879,0.054c-1.193,0.704-1.928,1.989-1.928,3.374v16.353   l-24.397-16.708v-35.693c0-1.377-0.72-2.651-1.897-3.359l-14.237-8.538c-1.217-0.727-2.724-0.742-3.948-0.05   c-1.231,0.696-1.989,1.997-1.989,3.408v30.942l-16.195-9.41c-0.919-0.535-2.021-0.677-3.045-0.378   c-1.025,0.294-1.89,0.998-2.388,1.943l-7.122,13.549c-0.956,1.817-0.345,4.066,1.399,5.149l15.026,9.322l-27.007,15.271   c-1.209,0.685-1.966,1.966-1.989,3.358c-0.015,1.393,0.712,2.693,1.905,3.409l14.245,8.545c1.193,0.723,2.678,0.746,3.902,0.073   l33.08-18.22l26.211,13.477l-14.674,8.117c-1.239,0.685-2.012,1.981-2.02,3.396c-0.016,1.412,0.734,2.724,1.966,3.428l14.682,8.438   l-26.188,12.727l-33.165-16.923c-1.217-0.62-2.67-0.563-3.825,0.149l-12.814,7.842c-1.171,0.715-1.883,1.989-1.875,3.359   c0.008,1.369,0.728,2.635,1.905,3.339l26.195,15.71l-16.089,8.829c-0.91,0.497-1.592,1.342-1.882,2.345   c-0.283,0.999-0.169,2.073,0.336,2.983l7.107,12.83c0.505,0.914,1.354,1.587,2.364,1.871c0.987,0.283,2.073,0.161,2.983-0.352   l16.969-9.548v30.346c0,1.385,0.734,2.667,1.929,3.374c1.186,0.7,2.662,0.727,3.878,0.058l14.238-7.834   c1.255-0.688,2.027-2,2.027-3.431v-34.99l24.397-16.846v15.871c0,1.377,0.719,2.651,1.897,3.358c1.178,0.704,2.639,0.742,3.855,0.1   l14.85-7.896l-2.111,29.474l-30.924,17.489c-1.224,0.696-1.989,1.997-1.989,3.408v2.54c20.129-7.743,38.979-18.029,56.178-30.472   l-1.89-22.229l13.771,7.65c1.216,0.673,2.692,0.654,3.886-0.05c1.201-0.704,1.936-1.985,1.936-3.374v-15.875l12.249,8.458   c5.042-5.03,9.839-10.305,14.444-15.752l-17.734-8.553l14.658-8.423c1.232-0.704,1.981-2.016,1.967-3.428   c-0.008-1.415-0.78-2.712-2.02-3.396l-14.651-8.102l26.433-13.484l16.64,9.356c3.719-6.434,7.153-13.041,10.298-19.822   l-3.297-1.863l5.607-3.251C478.334,340.715,480.806,334.262,483.031,327.694z"/>
</g>
<g style="opacity:0.5;">
	<path style="fill:#E4F2F4;" d="M483.031,327.694l-3.297-5.692c-0.521-0.91-1.393-1.568-2.41-1.832   c-1.002-0.256-2.096-0.107-2.991,0.432l-15.438,9.269v-30.828c0-1.381-0.727-2.662-1.913-3.366   c-1.193-0.708-2.662-0.738-3.879-0.073l-15.668,8.538c-1.255,0.685-2.043,2.004-2.043,3.439v35.689l-24.397,16.716V343.63   c0-1.4-0.749-2.693-1.958-3.393s-2.708-0.7-3.917,0l-13.702,7.911l2.479-28.973l30.342-18.197c1.179-0.708,1.897-1.981,1.897-3.358   v-17.099c0-1.388-0.734-2.67-1.928-3.374c-1.201-0.708-2.67-0.727-3.887-0.05l-26.241,14.57v-14.712   c0-2.161-1.752-3.917-3.917-3.917h-16.38c-2.165,0-3.917,1.756-3.917,3.917v14.781l-26.96-14.655   c-1.225-0.662-2.686-0.635-3.871,0.073c-1.193,0.708-1.921,1.985-1.921,3.366v17.099c0,1.389,0.735,2.674,1.936,3.377   l30.978,18.186l2.096,29.19l-14.78-8.171c-1.209-0.673-2.693-0.654-3.879,0.054c-1.193,0.704-1.928,1.989-1.928,3.374v16.353   l-24.397-16.708v-35.693c0-1.377-0.72-2.651-1.897-3.359l-14.237-8.538c-1.217-0.727-2.724-0.742-3.948-0.05   c-1.231,0.696-1.989,1.997-1.989,3.408v30.942l-16.195-9.41c-0.919-0.535-2.021-0.677-3.045-0.378   c-1.025,0.294-1.89,0.998-2.388,1.943l-7.122,13.549c-0.956,1.817-0.345,4.066,1.399,5.149l15.026,9.322l-27.007,15.271   c-1.209,0.685-1.966,1.966-1.989,3.358c-0.015,1.393,0.712,2.693,1.905,3.409l14.245,8.545c1.193,0.723,2.678,0.746,3.902,0.073   l33.08-18.22l26.211,13.477l-14.674,8.117c-1.239,0.685-2.012,1.981-2.02,3.396c-0.016,1.412,0.734,2.724,1.966,3.428l14.682,8.438   l-26.188,12.727l-33.165-16.923c-1.217-0.62-2.67-0.563-3.825,0.149l-12.814,7.842c-1.171,0.715-1.883,1.989-1.875,3.359   c0.008,1.369,0.728,2.635,1.905,3.339l26.195,15.71l-16.089,8.829c-0.91,0.497-1.592,1.342-1.882,2.345   c-0.283,0.999-0.169,2.073,0.336,2.983l7.107,12.83c0.505,0.914,1.354,1.587,2.364,1.871c0.987,0.283,2.073,0.161,2.983-0.352   l16.969-9.548v30.346c0,1.385,0.734,2.667,1.929,3.374c1.186,0.7,2.662,0.727,3.878,0.058l14.238-7.834   c1.255-0.688,2.027-2,2.027-3.431v-34.99l24.397-16.846v15.871c0,1.377,0.719,2.651,1.897,3.358c1.178,0.704,2.639,0.742,3.855,0.1   l14.85-7.896l-2.111,29.474l-30.924,17.489c-1.224,0.696-1.989,1.997-1.989,3.408v2.54c20.129-7.743,38.979-18.029,56.178-30.472   l-1.89-22.229l13.771,7.65c1.216,0.673,2.692,0.654,3.886-0.05c1.201-0.704,1.936-1.985,1.936-3.374v-15.875l12.249,8.458   c5.042-5.03,9.839-10.305,14.444-15.752l-17.734-8.553l14.658-8.423c1.232-0.704,1.981-2.016,1.967-3.428   c-0.008-1.415-0.78-2.712-2.02-3.396l-14.651-8.102l26.433-13.484l16.64,9.356c3.719-6.434,7.153-13.041,10.298-19.822   l-3.297-1.863l5.607-3.251C478.334,340.715,480.806,334.262,483.031,327.694z"/>
</g>
<g>
</g>
<g>
</g>
<g>
</g>
<g>
</g>
<g>
</g>
<g>
</g>
<g>
</g>
<g>
</g>
<g>
</g>
<g>
</g>
<g>
</g>
<g>
</g>
<g>
</g>
<g>
</g>
<g>
</g>
</svg>
