<?xml version="1.0" encoding="iso-8859-1"?>
<!-- Generator: Adobe Illustrator 19.0.0, SVG Export Plug-In . SVG Version: 6.00 Build 0)  -->
<svg xmlns="http://www.w3.org/2000/svg" xmlns:xlink="http://www.w3.org/1999/xlink" version="1.1" id="Layer_1" x="0px" y="0px" viewBox="0 0 496.162 496.162" style="enable-background:new 0 0 496.162 496.162;" xml:space="preserve">
<g>
	<path style="fill:#A3D5E0;" d="M248.077,0C111.072,0,0.002,111.062,0.002,248.083c0,137.005,111.07,248.079,248.075,248.079   c137.013,0,248.083-111.074,248.083-248.079C496.16,111.062,385.09,0,248.077,0z"/>
	<path style="fill:#A3D5E0;" d="M469.984,350.274l3.293,1.863c0.788-1.698,1.564-3.396,2.314-5.114L469.984,350.274z"/>
	<path style="fill:#A3D5E0;" d="M446.34,362.603l-26.429,13.484l14.651,8.102c1.235,0.685,2.008,1.981,2.02,3.397   c0.012,1.412-0.738,2.724-1.966,3.427l-14.659,8.423l17.73,8.553c9.456-11.204,17.917-23.257,25.296-36.03L446.34,362.603z"/>
	<path style="fill:#A3D5E0;" d="M410.995,415.285v15.875c0,1.388-0.734,2.67-1.932,3.374c-1.193,0.704-2.67,0.723-3.887,0.05   l-13.774-7.65l1.894,22.229c10.638-7.696,20.675-16.169,29.948-25.419L410.995,415.285z"/>
	<path style="fill:#A3D5E0;" d="M483.031,327.694l-3.293-5.692c-0.524-0.91-1.393-1.568-2.41-1.832   c-1.006-0.256-2.096-0.107-2.995,0.432l-15.435,9.269v-30.828c0-1.381-0.727-2.663-1.917-3.366   c-1.19-0.708-2.663-0.738-3.875-0.073l-15.668,8.538c-1.258,0.685-2.042,2.004-2.042,3.439v35.689l-24.401,16.716v-16.357   c0-1.4-0.746-2.693-1.958-3.393c-1.209-0.7-2.708-0.7-3.917,0l-13.702,7.911l2.482-28.972l30.338-18.197   c1.178-0.708,1.901-1.981,1.901-3.358v-17.099c0-1.389-0.734-2.67-1.932-3.374c-1.197-0.708-2.67-0.727-3.886-0.049l-26.238,14.57   v-14.712c0-2.162-1.752-3.917-3.917-3.917h-16.379c-2.166,0-3.917,1.755-3.917,3.917v14.781l-26.964-14.655   c-1.22-0.662-2.686-0.635-3.871,0.073c-1.19,0.708-1.917,1.985-1.917,3.366v17.099c0,1.388,0.734,2.674,1.936,3.377l30.973,18.186   l2.096,29.19l-14.777-8.171c-1.213-0.673-2.693-0.654-3.883,0.054c-1.193,0.704-1.928,1.989-1.928,3.374v16.353l-24.394-16.708   v-35.694c0-1.377-0.723-2.651-1.901-3.359l-14.238-8.538c-1.212-0.727-2.72-0.742-3.948-0.049   c-1.228,0.696-1.985,1.997-1.985,3.408v30.942l-16.196-9.41c-0.918-0.536-2.023-0.677-3.049-0.378   c-1.025,0.294-1.89,0.998-2.383,1.943l-7.123,13.549c-0.956,1.817-0.344,4.066,1.4,5.148l15.025,9.322l-27.006,15.271   c-1.212,0.685-1.97,1.966-1.989,3.358c-0.019,1.393,0.708,2.693,1.901,3.408l14.245,8.546c1.193,0.723,2.682,0.746,3.906,0.073   l33.077-18.22l26.211,13.476l-14.674,8.117c-1.235,0.685-2.008,1.981-2.02,3.397c-0.012,1.412,0.738,2.724,1.966,3.427   l14.682,8.438l-26.188,12.727l-33.165-16.923c-1.213-0.62-2.667-0.562-3.822,0.149l-12.818,7.842   c-1.167,0.715-1.878,1.989-1.871,3.358c0.008,1.37,0.727,2.636,1.901,3.34l26.195,15.71l-16.089,8.829   c-0.911,0.498-1.587,1.343-1.878,2.345c-0.287,0.998-0.168,2.073,0.337,2.983l7.107,12.83c0.505,0.914,1.354,1.587,2.36,1.871   c0.991,0.283,2.073,0.161,2.987-0.352l16.969-9.548v30.346c0,1.385,0.73,2.666,1.924,3.374c1.186,0.7,2.667,0.727,3.883,0.057   l14.237-7.834c1.251-0.688,2.027-2,2.027-3.431v-34.99l24.394-16.846v15.871c0,1.377,0.723,2.65,1.901,3.358   c1.174,0.704,2.636,0.742,3.856,0.1l14.846-7.896l-2.107,29.474l-30.924,17.489c-1.228,0.696-1.989,1.997-1.989,3.409v2.54   c20.125-7.742,38.979-18.028,56.178-30.472l-1.894-22.229l13.774,7.65c1.217,0.673,2.693,0.654,3.887-0.05   c1.197-0.704,1.932-1.985,1.932-3.374v-15.875l12.249,8.458c5.045-5.03,9.842-10.305,14.444-15.752l-17.73-8.553l14.659-8.423   c1.228-0.704,1.978-2.016,1.966-3.427c-0.011-1.416-0.784-2.712-2.02-3.397l-14.651-8.102l26.429-13.484l16.644,9.357   c3.714-6.434,7.157-13.041,10.294-19.823l-3.293-1.863l5.608-3.251C478.338,340.715,480.806,334.262,483.031,327.694z"/>
</g>
<g style="opacity:0.5;">
	<path style="fill:#E4F2F4;" d="M483.031,327.694l-3.293-5.692c-0.524-0.91-1.393-1.568-2.41-1.832   c-1.006-0.256-2.096-0.107-2.995,0.432l-15.435,9.269v-30.828c0-1.381-0.727-2.663-1.917-3.366   c-1.19-0.708-2.663-0.738-3.875-0.073l-15.668,8.538c-1.258,0.685-2.042,2.004-2.042,3.439v35.689l-24.401,16.716v-16.357   c0-1.4-0.746-2.693-1.958-3.393c-1.209-0.7-2.708-0.7-3.917,0l-13.702,7.911l2.482-28.972l30.338-18.197   c1.178-0.708,1.901-1.981,1.901-3.358v-17.099c0-1.389-0.734-2.67-1.932-3.374c-1.197-0.708-2.67-0.727-3.886-0.049l-26.238,14.57   v-14.712c0-2.162-1.752-3.917-3.917-3.917h-16.379c-2.166,0-3.917,1.755-3.917,3.917v14.781l-26.964-14.655   c-1.22-0.662-2.686-0.635-3.871,0.073c-1.19,0.708-1.917,1.985-1.917,3.366v17.099c0,1.388,0.734,2.674,1.936,3.377l30.973,18.186   l2.096,29.19l-14.777-8.171c-1.213-0.673-2.693-0.654-3.883,0.054c-1.193,0.704-1.928,1.989-1.928,3.374v16.353l-24.394-16.708   v-35.694c0-1.377-0.723-2.651-1.901-3.359l-14.238-8.538c-1.212-0.727-2.72-0.742-3.948-0.049   c-1.228,0.696-1.985,1.997-1.985,3.408v30.942l-16.196-9.41c-0.918-0.536-2.023-0.677-3.049-0.378   c-1.025,0.294-1.89,0.998-2.383,1.943l-7.123,13.549c-0.956,1.817-0.344,4.066,1.4,5.148l15.025,9.322l-27.006,15.271   c-1.212,0.685-1.97,1.966-1.989,3.358c-0.019,1.393,0.708,2.693,1.901,3.408l14.245,8.546c1.193,0.723,2.682,0.746,3.906,0.073   l33.077-18.22l26.211,13.476l-14.674,8.117c-1.235,0.685-2.008,1.981-2.02,3.397c-0.012,1.412,0.738,2.724,1.966,3.427   l14.682,8.438l-26.188,12.727l-33.165-16.923c-1.213-0.62-2.667-0.562-3.822,0.149l-12.818,7.842   c-1.167,0.715-1.878,1.989-1.871,3.358c0.008,1.37,0.727,2.636,1.901,3.34l26.195,15.71l-16.089,8.829   c-0.911,0.498-1.587,1.343-1.878,2.345c-0.287,0.998-0.168,2.073,0.337,2.983l7.107,12.83c0.505,0.914,1.354,1.587,2.36,1.871   c0.991,0.283,2.073,0.161,2.987-0.352l16.969-9.548v30.346c0,1.385,0.73,2.666,1.924,3.374c1.186,0.7,2.667,0.727,3.883,0.057   l14.237-7.834c1.251-0.688,2.027-2,2.027-3.431v-34.99l24.394-16.846v15.871c0,1.377,0.723,2.65,1.901,3.358   c1.174,0.704,2.636,0.742,3.856,0.1l14.846-7.896l-2.107,29.474l-30.924,17.489c-1.228,0.696-1.989,1.997-1.989,3.409v2.54   c20.125-7.742,38.979-18.028,56.178-30.472l-1.894-22.229l13.774,7.65c1.217,0.673,2.693,0.654,3.887-0.05   c1.197-0.704,1.932-1.985,1.932-3.374v-15.875l12.249,8.458c5.045-5.03,9.842-10.305,14.444-15.752l-17.73-8.553l14.659-8.423   c1.228-0.704,1.978-2.016,1.966-3.427c-0.011-1.416-0.784-2.712-2.02-3.397l-14.651-8.102l26.429-13.484l16.644,9.357   c3.714-6.434,7.157-13.041,10.294-19.823l-3.293-1.863l5.608-3.251C478.338,340.715,480.806,334.262,483.031,327.694z"/>
</g>
<g style="opacity:0.5;">
	<path style="fill:#E4F2F4;" d="M404.775,55.78c-5.987-4.885-12.195-9.502-18.625-13.82c-26.367-17.696-56.315-30.472-88.535-37.002   c-0.987-0.199-1.993-0.344-2.984-0.532C279.545,1.561,263.999,0,248.078,0c-19.884,0-39.193,2.406-57.723,6.824   c-6.69,1.595-13.273,3.454-19.746,5.581c-28.032,9.211-53.844,23.277-76.471,41.209c-10.914,8.657-21.112,18.17-30.426,28.51   c-19.382,21.521-35.005,46.469-45.953,73.8c10.462,18.847,29.382,32.675,52.406,35.602c20.603,2.617,40.203-4.055,54.743-16.678   c10.718,11.215,25.197,18.981,41.787,21.092c14.494,1.84,28.514-0.899,40.617-7.073c10.979,14.494,27.534,24.749,47.001,27.224   c27.503,3.493,53.244-9.51,67.458-31.252c9.548,7.375,21.081,12.44,33.918,14.069c22.86,2.903,44.492-5.608,59.326-21.031   c24.24-1.955,45.528-16.475,56.502-37.698C455.643,107.359,432.737,78.59,404.775,55.78z"/>
</g>
<g>
	<path style="fill:#7CB7C1;" d="M131.552,222.645c0,0-17.103,19.448-17.103,37.216c0,9.448,7.654,17.103,17.103,17.103   c9.441,0,17.095-7.654,17.095-17.103C148.647,240.081,131.552,246.117,131.552,222.645z"/>
	<path style="fill:#7CB7C1;" d="M56.126,291.725c0,0-17.103,19.448-17.103,37.22c0,9.445,7.654,17.103,17.103,17.103   c9.445,0,17.095-7.658,17.095-17.103C73.221,309.161,56.126,315.197,56.126,291.725z"/>
</g>
<g>
	<path style="fill:#E4F2F4;" d="M132.513,307.864c-9.345,0-16.919,7.574-16.919,16.919c0,9.341,7.574,16.919,16.919,16.919   c9.341,0,16.915-7.578,16.915-16.919C149.428,315.438,141.854,307.864,132.513,307.864z"/>
	<path style="fill:#E4F2F4;" d="M57.79,240.191c-9.345,0-16.919,7.574-16.919,16.919c0,9.341,7.574,16.916,16.919,16.916   c9.341,0,16.919-7.574,16.919-16.916C74.709,247.766,67.131,240.191,57.79,240.191z"/>
</g>
<g>
	<path style="fill:#7CB7C1;" d="M284.937,222.645c0,0-17.103,19.448-17.103,37.216c0,9.448,7.658,17.103,17.103,17.103   c9.444,0,17.099-7.654,17.099-17.103C302.036,240.081,284.937,246.117,284.937,222.645z"/>
	<path style="fill:#7CB7C1;" d="M206.902,291.725c0,0-17.103,19.448-17.103,37.22c0,9.445,7.654,17.103,17.103,17.103   c9.444,0,17.099-7.658,17.099-17.103C224.001,309.161,206.902,315.197,206.902,291.725z"/>
</g>
<path style="fill:#E4F2F4;" d="M208.566,240.191c-9.345,0-16.919,7.574-16.919,16.919c0,9.341,7.574,16.916,16.919,16.916  c9.341,0,16.919-7.574,16.919-16.916C225.485,247.766,217.907,240.191,208.566,240.191z"/>
<path style="fill:#7CB7C1;" d="M131.552,362.351c0,0-17.103,19.452-17.103,37.22c0,9.445,7.654,17.103,17.103,17.103  c9.441,0,17.095-7.658,17.095-17.103C148.647,379.786,131.552,385.823,131.552,362.351z"/>
<path style="fill:#E4F2F4;" d="M208.566,379.897c-9.345,0-16.919,7.578-16.919,16.919c0,9.345,7.574,16.919,16.919,16.919  c9.341,0,16.919-7.574,16.919-16.919C225.485,387.475,217.907,379.897,208.566,379.897z"/>
<g style="opacity:0.5;">
	<path style="fill:#E4F2F4;" d="M372.953,33.75c-5.662-3.305-11.426-6.45-17.363-9.307c-14.02-6.751-28.781-12.195-44.113-16.234   c-0.788-0.21-1.572-0.421-2.364-0.62c-15.427-3.906-31.42-6.373-47.842-7.233C256.902,0.127,252.503,0,248.078,0   c-11.801,0-23.392,0.88-34.756,2.475c-21.834,3.064-42.77,8.924-62.394,17.286c-0.953,0.406-1.882,0.861-2.831,1.282   c-8.68,3.825-17.095,8.136-25.22,12.898C95.488,49.988,71.469,71.13,52.09,96.082c-0.708,0.907-1.438,1.794-2.134,2.712   c0.91,0.367,1.859,0.654,2.785,0.987c5.906,31.172,31.987,55.818,65.136,58.396c14.98,1.163,29.237-2.353,41.355-9.303   c12.003,14.333,29.516,24.034,49.629,25.599c28.417,2.203,54.196-12.44,67.707-35.483c10.175,7.1,22.271,11.717,35.533,12.75   c23.621,1.836,45.406-7.995,59.865-24.577c26.857-3.489,49.43-21.942,58.446-47.253C413.714,61.816,394.351,46.244,372.953,33.75z"/>
</g>
<path style="fill:#E4F2F4;" d="M248.077,0C173.408,0,106.493,33.039,61.014,85.242c4.101-0.379,8.117-1.075,12.011-2.077  c12.555,23.02,36.967,38.639,65.033,38.639c18.732,0,35.793-7.012,48.83-18.483c13.04,11.472,30.101,18.483,48.833,18.483  c32.117,0,59.379-20.488,69.631-49.082c12.271,9.031,27.377,14.433,43.78,14.433c23.881,0,45.062-11.354,58.599-28.904  C364.579,21.923,308.899,0,248.077,0z"/>
<g>
</g>
<g>
</g>
<g>
</g>
<g>
</g>
<g>
</g>
<g>
</g>
<g>
</g>
<g>
</g>
<g>
</g>
<g>
</g>
<g>
</g>
<g>
</g>
<g>
</g>
<g>
</g>
<g>
</g>
</svg>
