<?xml version="1.0" encoding="iso-8859-1"?>
<!-- Generator: Adobe Illustrator 19.0.0, SVG Export Plug-In . SVG Version: 6.00 Build 0)  -->
<svg xmlns="http://www.w3.org/2000/svg" xmlns:xlink="http://www.w3.org/1999/xlink" version="1.1" id="Layer_1" x="0px" y="0px" viewBox="0 0 496.162 496.162" style="enable-background:new 0 0 496.162 496.162;" xml:space="preserve">
<path style="fill:#334D5C;" d="M248.077,0C111.072,0,0.002,111.062,0.002,248.083c0,137.005,111.07,248.079,248.075,248.079  c137.013,0,248.083-111.073,248.083-248.079C496.16,111.062,385.09,0,248.077,0z"/>
<path style="fill:#54890A;" d="M378.694,340.302c-18.82-40.77-7.115-111.663-45.728-152.341  c-38.604-40.674-131.535,8.186-173.628-16.093c-55.206-31.841-57.895-127.985-86.676-99.204  c-96.875,96.878-96.883,253.958-0.004,350.833c96.886,96.886,253.966,96.882,350.84,0.004  C447.717,399.284,399.465,385.294,378.694,340.302z"/>
<g style="opacity:0.3;">
	<path style="fill:#FFFFFF;" d="M327.643,131.053c-11.38-7.352-23.809-13.147-36.979-17.137   c-0.915-5.952-5.685-10.003-15.466-11.288c-37.09-4.87-72.741,4.59-101.435,24.064c-4.115-0.937-8.993,0.486-14.73,4.893   c-27.309,20.966-45.157,49.664-52.919,80.655c-4.624,1.749-7.772,6.434-8.878,14.827c-4.725,35.992,4.051,70.629,22.37,98.872   c-5.325,5.091-5.589,11.95,1.251,20.859c23.724,30.896,57.332,49.698,92.977,55.447c1.824,4.885,6.771,7.979,15.599,8.641   c61.579,4.605,117.091-29.527,142.705-81.788c0.409,0.291,0.826,0.601,1.231,0.883c10.352,7.123,16.472-1.706,23.602-2.735   c7.131-1.029,15.274,5.738,17.413-6.013C428.476,243.81,391.593,168.961,327.643,131.053z"/>
</g>
<g style="opacity:0.3;">
	<path style="fill:#FFFFFF;" d="M377.607,190.073c1.787-3.959,0.834-8.821-3.691-14.72c-19.409-25.277-46.357-41.328-75.266-47.49   c0.146-6.465-3.947-10.891-13.725-12.172c-33.911-4.456-66.444,4.744-92.143,23.3c-4.166-1.901-9.157-0.75-15.045,4.319   c-41.091,35.372-54.36,91.018-37.816,139.361c-0.436,0.077-0.888,0.142-1.315,0.218c-10.849,2-9.166,11.284-12.952,16.349   c-3.787,5.068-13.045,5.921-7.077,14.543c39.316,56.809,108.676,80.384,171.906,64.214c11.629-2.501,22.944-6.622,33.602-12.317   c4.258,3.125,9.735,2.682,16.602-2.593c26.05-20.002,42.308-48.007,48.033-77.913c3.137-1.97,5.283-5.879,6.109-12.18   C398.766,243.022,392.029,214.13,377.607,190.073z"/>
</g>
<g style="opacity:0.3;">
	<path style="fill:#FFFFFF;" d="M357.843,200.967c1.641-3.592,0.646-7.899-3.726-12.975c-30.507-35.445-78.51-46.89-120.209-32.622   c-0.068-0.375-0.122-0.765-0.191-1.132c-1.725-9.356-9.731-7.911-14.1-11.174c-4.368-3.267-5.106-11.254-12.547-6.105   c-49.001,33.911-69.336,93.746-55.39,148.286c2.157,10.03,5.711,19.792,10.627,28.98c-2.701,3.676-2.314,8.4,2.233,14.325   c17.256,22.466,41.412,36.493,67.206,41.432c1.702,2.704,5.076,4.556,10.508,5.271c25.852,3.393,50.776-2.417,71.524-14.857   c3.412,1.542,7.612,0.719,12.696-3.187c21.804-16.739,35.647-39.985,40.965-64.922c5.577,0.126,9.395-3.404,10.5-11.839   C381.785,251.201,373.852,223.135,357.843,200.967z"/>
</g>
<circle style="fill:#54890A;" cx="249.061" cy="254.941" r="19.13"/>
<g>
	<path style="fill:none;stroke:#9B9B9B;stroke-width:7.834;stroke-linecap:round;stroke-linejoin:round;stroke-miterlimit:10;" d="   M174.571,184.855H323.55C282.412,143.715,215.716,143.715,174.571,184.855z"/>
	<path style="fill:none;stroke:#9B9B9B;stroke-width:7.834;stroke-linecap:round;stroke-linejoin:round;stroke-miterlimit:10;" d="   M174.571,333.833c41.145,41.141,107.841,41.141,148.979,0H174.571z"/>
	<path style="fill:none;stroke:#9B9B9B;stroke-width:7.834;stroke-linecap:round;stroke-linejoin:round;stroke-miterlimit:10;" d="   M249.064,190.701l68.64,68.644C317.704,221.433,286.973,190.701,249.064,190.701z"/>
	<path style="fill:none;stroke:#9B9B9B;stroke-width:7.834;stroke-linecap:round;stroke-linejoin:round;stroke-miterlimit:10;" d="   M180.416,259.345c0,37.908,30.732,68.644,68.648,68.644L180.416,259.345z"/>
	<path style="fill:none;stroke:#9B9B9B;stroke-width:7.834;stroke-linecap:round;stroke-linejoin:round;stroke-miterlimit:10;" d="   M248.081,292.735c21.146,0,38.287-17.141,38.287-38.287L248.081,292.735z"/>
	<path style="fill:none;stroke:#9B9B9B;stroke-width:7.834;stroke-linecap:round;stroke-linejoin:round;stroke-miterlimit:10;" d="   M209.794,254.448l38.287-38.287C226.938,216.161,209.794,233.302,209.794,254.448z"/>
</g>
<g>
</g>
<g>
</g>
<g>
</g>
<g>
</g>
<g>
</g>
<g>
</g>
<g>
</g>
<g>
</g>
<g>
</g>
<g>
</g>
<g>
</g>
<g>
</g>
<g>
</g>
<g>
</g>
<g>
</g>
</svg>
