<?xml version="1.0" encoding="iso-8859-1"?>
<!-- Generator: Adobe Illustrator 19.0.0, SVG Export Plug-In . SVG Version: 6.00 Build 0)  -->
<svg xmlns="http://www.w3.org/2000/svg" xmlns:xlink="http://www.w3.org/1999/xlink" version="1.1" id="Layer_1" x="0px" y="0px" viewBox="0 0 496.162 496.162" style="enable-background:new 0 0 496.162 496.162;" xml:space="preserve">
<path style="fill:#334D5C;" d="M248.077,0C111.072,0,0.002,111.062,0.002,248.082c0,137.006,111.07,248.08,248.075,248.08  c137.013,0,248.083-111.074,248.083-248.08C496.16,111.062,385.09,0,248.077,0z"/>
<path style="fill:#1A5437;" d="M24.024,354.705c39.875,83.646,125.216,141.457,224.053,141.457  c98.783,0,184.071-57.727,223.983-141.285L24.024,354.705z"/>
<g>
	<path style="fill:#BFAC00;" d="M176.858,170.23c-0.138-0.572-0.581-1.023-1.147-1.186l-40.425-11.258   c-0.681-0.193-1.416,0.084-1.806,0.678l-44.511,68.051c-0.329,0.506-0.359,1.148-0.068,1.676c0.282,0.527,0.833,0.857,1.43,0.857   h27.374l-26.616,34.461c-0.383,0.494-0.451,1.16-0.176,1.719s0.849,0.914,1.469,0.914h21.812l-27.526,35.02   c-0.513,0.658-0.451,1.6,0.146,2.18c0.313,0.311,0.727,0.467,1.14,0.467c0.367,0,0.742-0.125,1.041-0.375l63.093-52.252   c0.528-0.436,0.728-1.164,0.498-1.811c-0.237-0.645-0.85-1.082-1.538-1.082l-19.791,0.004l31.458-37.744   c0.405-0.484,0.489-1.162,0.222-1.736s-0.842-0.941-1.477-0.941h-23.632l38.559-36.061   C176.82,171.41,176.996,170.805,176.858,170.23z"/>
	<path style="fill:#BFAC00;" d="M438.001,170.23c-0.146-0.572-0.58-1.023-1.155-1.186l-40.418-11.258   c-0.688-0.193-1.415,0.084-1.805,0.678l-44.519,68.051c-0.329,0.506-0.353,1.148-0.069,1.676s0.842,0.857,1.438,0.857h27.374   l-26.624,34.461c-0.375,0.494-0.444,1.16-0.169,1.719c0.276,0.559,0.842,0.914,1.47,0.914h21.812l-27.526,35.02   c-0.521,0.658-0.459,1.6,0.145,2.18c0.314,0.311,0.728,0.467,1.141,0.467c0.367,0,0.734-0.125,1.04-0.375l63.086-52.252   c0.536-0.436,0.727-1.164,0.497-1.811c-0.236-0.645-0.849-1.082-1.537-1.082l-19.784,0.004l31.451-37.744   c0.405-0.484,0.497-1.162,0.229-1.736s-0.85-0.941-1.484-0.941h-23.625l38.559-36.061   C437.955,171.41,438.139,170.805,438.001,170.23z"/>
</g>
<g>
	<path style="fill:#496370;" d="M222.295,226.865c0,0-15.836,18.012-15.836,34.469c0,8.748,7.092,15.84,15.836,15.84   s15.837-7.092,15.837-15.84C238.132,243.014,222.295,248.603,222.295,226.865z"/>
	<path style="fill:#496370;" d="M286.33,226.865c0,0-15.837,18.012-15.837,34.469c0,8.748,7.092,15.84,15.837,15.84   c8.752,0,15.836-7.092,15.836-15.84C302.166,243.014,286.33,248.603,286.33,226.865z"/>
	<path style="fill:#496370;" d="M192.267,287.578c0,0-15.836,18.014-15.836,34.471c0,8.748,7.084,15.84,15.836,15.84   c8.745,0,15.837-7.092,15.837-15.84C208.103,303.728,192.267,309.318,192.267,287.578z"/>
	<path style="fill:#496370;" d="M256.302,287.578c0,0-15.837,18.014-15.837,34.471c0,8.748,7.092,15.84,15.837,15.84   c8.752,0,15.836-7.092,15.836-15.84C272.138,303.728,256.302,309.318,256.302,287.578z"/>
	<path style="fill:#496370;" d="M404.774,55.779c-5.982-4.885-12.194-9.502-18.621-13.82   c-26.371-17.699-56.314-30.471-88.539-37.002c-0.987-0.199-1.989-0.344-2.983-0.535C279.544,1.561,263.998,0,248.077,0   c-19.884,0-39.193,2.406-57.723,6.824c-6.687,1.596-13.274,3.455-19.746,5.578c-28.031,9.211-53.845,23.279-76.467,41.213   c-10.917,8.652-21.115,18.17-30.426,28.51c-19.387,21.52-35.009,46.465-45.957,73.801c10.466,18.846,29.386,32.674,52.406,35.598   c20.603,2.619,40.203-4.051,54.747-16.676c10.718,11.217,25.192,18.982,41.787,21.09c14.489,1.844,28.513-0.895,40.616-7.07   c10.979,14.494,27.534,24.75,46.997,27.221c27.504,3.496,53.247-9.506,67.462-31.252c9.548,7.379,21.077,12.439,33.915,14.074   c22.859,2.902,44.495-5.613,59.329-21.035c24.237-1.951,45.528-16.473,56.499-37.695C455.643,107.359,432.737,78.59,404.774,55.779   z"/>
</g>
<g style="opacity:0.3;">
	<path style="fill:#243D49;" d="M372.956,33.75c-5.66-3.305-11.43-6.449-17.366-9.307c-14.016-6.752-28.781-12.195-44.113-16.234   c-0.788-0.211-1.568-0.42-2.363-0.619c-15.424-3.906-31.421-6.373-47.839-7.234c-4.368-0.229-8.768-0.355-13.197-0.355   c-11.797,0-23.388,0.881-34.756,2.475c-21.835,3.064-42.767,8.924-62.39,17.287c-0.957,0.404-1.883,0.859-2.831,1.277   c-8.684,3.828-17.099,8.141-25.224,12.898C95.488,49.989,71.473,71.131,52.095,96.083c-0.712,0.908-1.438,1.795-2.135,2.713   c0.91,0.367,1.859,0.654,2.784,0.982c5.906,31.176,31.987,55.822,65.137,58.396c14.979,1.164,29.232-2.348,41.352-9.299   c12.003,14.334,29.516,24.033,49.628,25.596c28.422,2.207,54.196-12.438,67.707-35.48c10.176,7.096,22.271,11.717,35.537,12.75   c23.617,1.836,45.405-7.994,59.865-24.582c26.853-3.488,49.43-21.938,58.442-47.248C413.718,61.816,394.354,46.24,372.956,33.75z"/>
</g>
<path style="fill:#334D5C;" d="M248.077,0c-74.669,0-141.58,33.039-187.063,85.242c4.101-0.383,8.117-1.078,12.012-2.078  c12.555,23.018,36.967,38.641,65.037,38.641c18.728,0,35.788-7.016,48.825-18.484c13.044,11.469,30.104,18.484,48.833,18.484  c32.117,0,59.383-20.488,69.635-49.082c12.271,9.031,27.374,14.432,43.776,14.432c23.885,0,45.062-11.354,58.603-28.902  C364.579,21.918,308.898,0,248.077,0z"/>
<g>
</g>
<g>
</g>
<g>
</g>
<g>
</g>
<g>
</g>
<g>
</g>
<g>
</g>
<g>
</g>
<g>
</g>
<g>
</g>
<g>
</g>
<g>
</g>
<g>
</g>
<g>
</g>
<g>
</g>
</svg>
