<?xml version="1.0" encoding="iso-8859-1"?>
<!-- Generator: Adobe Illustrator 19.0.0, SVG Export Plug-In . SVG Version: 6.00 Build 0)  -->
<svg xmlns="http://www.w3.org/2000/svg" xmlns:xlink="http://www.w3.org/1999/xlink" version="1.1" id="Layer_1" x="0px" y="0px" viewBox="0 0 496.162 496.162" style="enable-background:new 0 0 496.162 496.162;" xml:space="preserve">
<path style="fill:#A3D5E0;" d="M248.077,0C111.072,0,0.002,111.062,0.002,248.082c0,137.006,111.07,248.08,248.075,248.08  c137.013,0,248.083-111.074,248.083-248.08C496.16,111.062,385.09,0,248.077,0z"/>
<g style="opacity:0.5;">
	<path style="fill:#E4F2F4;" d="M404.774,55.779c-5.982-4.885-12.194-9.502-18.621-13.82   c-26.371-17.699-56.314-30.471-88.539-37.002c-0.987-0.199-1.989-0.344-2.983-0.535C279.544,1.561,263.998,0,248.077,0   c-19.884,0-39.193,2.406-57.723,6.824c-6.687,1.596-13.273,3.455-19.746,5.578c-28.031,9.211-53.845,23.279-76.467,41.213   c-10.917,8.652-21.115,18.17-30.426,28.51c-19.387,21.52-35.009,46.465-45.957,73.801c10.466,18.846,29.386,32.674,52.406,35.598   c20.603,2.619,40.203-4.051,54.747-16.676c10.718,11.217,25.192,18.982,41.787,21.09c14.489,1.844,28.513-0.895,40.616-7.07   c10.979,14.494,27.534,24.75,46.997,27.221c27.504,3.496,53.247-9.506,67.462-31.252c9.548,7.379,21.077,12.439,33.915,14.074   c22.859,2.902,44.495-5.613,59.329-21.035c24.237-1.951,45.528-16.473,56.499-37.695C455.643,107.359,432.737,78.59,404.774,55.779   z"/>
</g>
<g>
	<path style="fill:#E4F2F4;" d="M35.019,232.725c-8.225,0-14.896,6.672-14.896,14.898c0,8.221,6.671,14.893,14.896,14.893   s14.896-6.672,14.896-14.893C49.914,239.396,43.243,232.725,35.019,232.725z"/>
	<path style="fill:#E4F2F4;" d="M95.732,232.725c-8.224,0-14.896,6.672-14.896,14.898c0,8.221,6.672,14.893,14.896,14.893   c8.225,0,14.896-6.672,14.896-14.893C110.628,239.396,103.957,232.725,95.732,232.725z"/>
	<path style="fill:#E4F2F4;" d="M156.447,232.725c-8.225,0-14.896,6.672-14.896,14.898c0,8.221,6.671,14.893,14.896,14.893   s14.896-6.672,14.896-14.893C171.343,239.396,164.672,232.725,156.447,232.725z"/>
	<path style="fill:#E4F2F4;" d="M217.161,232.725c-8.224,0-14.896,6.672-14.896,14.898c0,8.221,6.672,14.893,14.896,14.893   c8.225,0,14.896-6.672,14.896-14.893C232.057,239.396,225.386,232.725,217.161,232.725z"/>
	<path style="fill:#E4F2F4;" d="M277.876,232.725c-8.225,0-14.896,6.672-14.896,14.898c0,8.221,6.671,14.893,14.896,14.893   s14.896-6.672,14.896-14.893C292.771,239.396,286.101,232.725,277.876,232.725z"/>
	<path style="fill:#E4F2F4;" d="M338.59,232.725c-8.224,0-14.896,6.672-14.896,14.898c0,8.221,6.672,14.893,14.896,14.893   c8.225,0,14.896-6.672,14.896-14.893C353.486,239.396,346.814,232.725,338.59,232.725z"/>
	<path style="fill:#E4F2F4;" d="M399.305,232.725c-8.225,0-14.896,6.672-14.896,14.898c0,8.221,6.671,14.893,14.896,14.893   s14.896-6.672,14.896-14.893C414.2,239.396,407.529,232.725,399.305,232.725z"/>
	<path style="fill:#E4F2F4;" d="M460.019,232.725c-8.225,0-14.896,6.672-14.896,14.898c0,8.221,6.671,14.893,14.896,14.893   c8.224,0,14.896-6.672,14.896-14.893C474.915,239.396,468.243,232.725,460.019,232.725z"/>
	<path style="fill:#E4F2F4;" d="M95.732,354.154c-8.224,0-14.896,6.67-14.896,14.898c0,8.221,6.672,14.893,14.896,14.893   c8.225,0,14.896-6.672,14.896-14.893C110.628,360.824,103.957,354.154,95.732,354.154z"/>
	<path style="fill:#E4F2F4;" d="M156.447,354.154c-8.225,0-14.896,6.67-14.896,14.898c0,8.221,6.671,14.893,14.896,14.893   s14.896-6.672,14.896-14.893C171.343,360.824,164.672,354.154,156.447,354.154z"/>
	<path style="fill:#E4F2F4;" d="M217.161,354.154c-8.224,0-14.896,6.67-14.896,14.898c0,8.221,6.672,14.893,14.896,14.893   c8.225,0,14.896-6.672,14.896-14.893C232.057,360.824,225.386,354.154,217.161,354.154z"/>
	<path style="fill:#E4F2F4;" d="M277.876,354.154c-8.225,0-14.896,6.67-14.896,14.898c0,8.221,6.671,14.893,14.896,14.893   s14.896-6.672,14.896-14.893C292.771,360.824,286.101,354.154,277.876,354.154z"/>
	<path style="fill:#E4F2F4;" d="M338.59,354.154c-8.224,0-14.896,6.67-14.896,14.898c0,8.221,6.672,14.893,14.896,14.893   c8.225,0,14.896-6.672,14.896-14.893C353.486,360.824,346.814,354.154,338.59,354.154z"/>
	<path style="fill:#E4F2F4;" d="M399.305,354.154c-8.225,0-14.896,6.67-14.896,14.898c0,8.221,6.671,14.893,14.896,14.893   s14.896-6.672,14.896-14.893C414.2,360.824,407.529,354.154,399.305,354.154z"/>
	<path style="fill:#E4F2F4;" d="M65.582,293.439c-8.225,0-14.896,6.67-14.896,14.898c0,8.221,6.671,14.893,14.896,14.893   s14.896-6.672,14.896-14.893C80.477,300.109,73.807,293.439,65.582,293.439z"/>
	<path style="fill:#E4F2F4;" d="M126.297,293.439c-8.225,0-14.896,6.67-14.896,14.898c0,8.221,6.671,14.893,14.896,14.893   c8.224,0,14.896-6.672,14.896-14.893C141.192,300.109,134.52,293.439,126.297,293.439z"/>
	<path style="fill:#E4F2F4;" d="M187.011,293.439c-8.224,0-14.896,6.67-14.896,14.898c0,8.221,6.672,14.893,14.896,14.893   c8.225,0,14.896-6.672,14.896-14.893C201.906,300.109,195.235,293.439,187.011,293.439z"/>
	<path style="fill:#E4F2F4;" d="M247.726,293.439c-8.225,0-14.896,6.67-14.896,14.898c0,8.221,6.671,14.893,14.896,14.893   c8.224,0,14.896-6.672,14.896-14.893C262.621,300.109,255.949,293.439,247.726,293.439z"/>
	<path style="fill:#E4F2F4;" d="M308.439,293.439c-8.224,0-14.896,6.67-14.896,14.898c0,8.221,6.672,14.893,14.896,14.893   c8.225,0,14.896-6.672,14.896-14.893C323.335,300.109,316.664,293.439,308.439,293.439z"/>
	<path style="fill:#E4F2F4;" d="M369.154,293.439c-8.225,0-14.896,6.67-14.896,14.898c0,8.221,6.671,14.893,14.896,14.893   c8.224,0,14.896-6.672,14.896-14.893C384.05,300.109,377.378,293.439,369.154,293.439z"/>
	<path style="fill:#E4F2F4;" d="M429.868,293.439c-8.224,0-14.896,6.67-14.896,14.898c0,8.221,6.672,14.893,14.896,14.893   c8.225,0,14.896-6.672,14.896-14.893C444.764,300.109,438.093,293.439,429.868,293.439z"/>
	<path style="fill:#E4F2F4;" d="M126.297,414.867c-8.225,0-14.896,6.672-14.896,14.9c0,8.221,6.671,14.891,14.896,14.891   c8.224,0,14.896-6.67,14.896-14.891C141.192,421.539,134.52,414.867,126.297,414.867z"/>
	<path style="fill:#E4F2F4;" d="M187.011,414.867c-8.224,0-14.896,6.672-14.896,14.9c0,8.221,6.672,14.891,14.896,14.891   c8.225,0,14.896-6.67,14.896-14.891C201.906,421.539,195.235,414.867,187.011,414.867z"/>
	<path style="fill:#E4F2F4;" d="M247.726,414.867c-8.225,0-14.896,6.672-14.896,14.9c0,8.221,6.671,14.891,14.896,14.891   c8.224,0,14.896-6.67,14.896-14.891C262.621,421.539,255.949,414.867,247.726,414.867z"/>
	<path style="fill:#E4F2F4;" d="M308.439,414.867c-8.224,0-14.896,6.672-14.896,14.9c0,8.221,6.672,14.891,14.896,14.891   c8.225,0,14.896-6.67,14.896-14.891C323.335,421.539,316.664,414.867,308.439,414.867z"/>
	<path style="fill:#E4F2F4;" d="M369.154,414.867c-8.225,0-14.896,6.672-14.896,14.9c0,8.221,6.671,14.891,14.896,14.891   c8.224,0,14.896-6.67,14.896-14.891C384.05,421.539,377.378,414.867,369.154,414.867z"/>
</g>
<g style="opacity:0.5;">
	<path style="fill:#E4F2F4;" d="M372.956,33.75c-5.661-3.305-11.43-6.449-17.366-9.307c-14.016-6.752-28.781-12.195-44.113-16.234   c-0.788-0.211-1.568-0.42-2.363-0.619c-15.424-3.906-31.421-6.373-47.839-7.234c-4.368-0.229-8.768-0.355-13.197-0.355   c-11.797,0-23.388,0.881-34.756,2.475c-21.835,3.064-42.767,8.926-62.39,17.287c-0.957,0.404-1.883,0.861-2.831,1.277   c-8.684,3.828-17.099,8.141-25.224,12.898C95.488,49.989,71.473,71.131,52.095,96.083c-0.712,0.908-1.438,1.795-2.135,2.713   c0.91,0.367,1.859,0.654,2.784,0.982c5.906,31.176,31.987,55.822,65.137,58.396c14.979,1.164,29.232-2.348,41.352-9.299   c12.003,14.334,29.516,24.033,49.628,25.596c28.422,2.207,54.196-12.438,67.707-35.48c10.176,7.096,22.271,11.717,35.537,12.75   c23.617,1.836,45.405-7.994,59.865-24.582c26.853-3.488,49.43-21.938,58.442-47.248C413.718,61.816,394.354,46.24,372.956,33.75z"/>
</g>
<g>
</g>
<g>
</g>
<g>
</g>
<g>
</g>
<g>
</g>
<g>
</g>
<g>
</g>
<g>
</g>
<g>
</g>
<g>
</g>
<g>
</g>
<g>
</g>
<g>
</g>
<g>
</g>
<g>
</g>
</svg>
