<?xml version="1.0" encoding="iso-8859-1"?>
<!-- Generator: Adobe Illustrator 19.0.0, SVG Export Plug-In . SVG Version: 6.00 Build 0)  -->
<svg xmlns="http://www.w3.org/2000/svg" xmlns:xlink="http://www.w3.org/1999/xlink" version="1.1" id="Layer_1" x="0px" y="0px" viewBox="0 0 496.162 496.162" style="enable-background:new 0 0 496.162 496.162;" xml:space="preserve">
<path style="fill:#A3D5E0;" d="M248.077,0C111.072,0,0.002,111.062,0.002,248.082c0,137.006,111.07,248.08,248.075,248.08  c137.013,0,248.083-111.074,248.083-248.08C496.16,111.062,385.09,0,248.077,0z"/>
<g style="opacity:0.5;">
	<path style="fill:#E4F2F4;" d="M404.774,55.779c-5.982-4.885-12.194-9.502-18.621-13.82   c-26.371-17.699-56.315-30.471-88.539-37.002c-0.987-0.199-1.989-0.344-2.983-0.535C279.544,1.561,263.998,0,248.077,0   c-19.884,0-39.193,2.406-57.723,6.824c-6.687,1.596-13.273,3.455-19.746,5.578c-28.031,9.211-53.845,23.279-76.467,41.213   c-10.917,8.652-21.115,18.17-30.426,28.51c-19.387,21.52-35.009,46.465-45.957,73.801c10.466,18.846,29.386,32.674,52.406,35.598   c20.603,2.619,40.203-4.051,54.747-16.676c10.718,11.217,25.192,18.982,41.787,21.09c14.489,1.844,28.513-0.895,40.616-7.07   c10.979,14.494,27.534,24.75,46.997,27.221c27.504,3.496,53.247-9.506,67.462-31.252c9.548,7.379,21.077,12.439,33.915,14.074   c22.859,2.902,44.495-5.613,59.329-21.035c24.237-1.951,45.528-16.473,56.499-37.695C455.643,107.359,432.737,78.59,404.774,55.779   z"/>
</g>
<g>
	<path style="fill:#E4F2F4;" d="M56.096,229.144c-11.469,0-20.771,9.303-20.771,20.775c0,11.467,9.303,20.766,20.771,20.766   s20.771-9.299,20.771-20.766C76.866,238.447,67.563,229.144,56.096,229.144z"/>
	<path style="fill:#E4F2F4;" d="M133.718,229.144c-11.476,0-20.771,9.303-20.771,20.775c0,11.467,9.296,20.766,20.771,20.766   c11.468,0,20.764-9.299,20.764-20.766C154.481,238.447,145.185,229.144,133.718,229.144z"/>
	<path style="fill:#E4F2F4;" d="M211.561,229.144c-11.468,0-20.771,9.303-20.771,20.775c0,11.467,9.304,20.766,20.771,20.766   s20.771-9.299,20.771-20.766C232.332,238.447,223.029,229.144,211.561,229.144z"/>
	<path style="fill:#E4F2F4;" d="M289.184,229.144c-11.476,0-20.771,9.303-20.771,20.775c0,11.467,9.296,20.766,20.771,20.766   c11.468,0,20.764-9.299,20.764-20.766C309.947,238.447,300.651,229.144,289.184,229.144z"/>
	<path style="fill:#E4F2F4;" d="M366.285,229.144c-11.468,0-20.771,9.303-20.771,20.775c0,11.467,9.304,20.766,20.771,20.766   s20.771-9.299,20.771-20.766C387.057,238.447,377.753,229.144,366.285,229.144z"/>
	<path style="fill:#E4F2F4;" d="M443.907,229.144c-11.476,0-20.771,9.303-20.771,20.775c0,11.467,9.296,20.766,20.771,20.766   c11.468,0,20.764-9.299,20.764-20.766C464.671,238.447,455.375,229.144,443.907,229.144z"/>
	<path style="fill:#E4F2F4;" d="M133.718,350.572c-11.476,0-20.771,9.303-20.771,20.775c0,11.469,9.296,20.768,20.771,20.768   c11.468,0,20.764-9.299,20.764-20.768C154.481,359.875,145.185,350.572,133.718,350.572z"/>
	<path style="fill:#E4F2F4;" d="M211.561,350.572c-11.468,0-20.771,9.303-20.771,20.775c0,11.469,9.304,20.768,20.771,20.768   s20.771-9.299,20.771-20.768C232.332,359.875,223.029,350.572,211.561,350.572z"/>
	<path style="fill:#E4F2F4;" d="M289.184,350.572c-11.476,0-20.771,9.303-20.771,20.775c0,11.469,9.296,20.768,20.771,20.768   c11.468,0,20.764-9.299,20.764-20.768C309.947,359.875,300.651,350.572,289.184,350.572z"/>
	<path style="fill:#E4F2F4;" d="M366.285,350.572c-11.468,0-20.771,9.303-20.771,20.775c0,11.469,9.304,20.768,20.771,20.768   s20.771-9.299,20.771-20.768C387.057,359.875,377.753,350.572,366.285,350.572z"/>
	<path style="fill:#E4F2F4;" d="M95.266,289.859c-11.468,0-20.771,9.303-20.771,20.773c0,11.469,9.303,20.768,20.771,20.768   c11.469,0,20.771-9.299,20.771-20.768C116.037,299.162,106.734,289.859,95.266,289.859z"/>
	<path style="fill:#E4F2F4;" d="M172.888,289.859c-11.476,0-20.771,9.303-20.771,20.773c0,11.469,9.295,20.768,20.771,20.768   c11.469,0,20.764-9.299,20.764-20.768C193.651,299.162,184.356,289.859,172.888,289.859z"/>
	<path style="fill:#E4F2F4;" d="M250.732,289.859c-11.469,0-20.771,9.303-20.771,20.773c0,11.469,9.303,20.768,20.771,20.768   c11.468,0,20.771-9.299,20.771-20.768C271.503,299.162,262.2,289.859,250.732,289.859z"/>
	<path style="fill:#E4F2F4;" d="M328.353,289.859c-11.476,0-20.771,9.303-20.771,20.773c0,11.469,9.295,20.768,20.771,20.768   c11.469,0,20.764-9.299,20.764-20.768C349.117,299.162,339.822,289.859,328.353,289.859z"/>
	<path style="fill:#E4F2F4;" d="M405.456,289.859c-11.469,0-20.771,9.303-20.771,20.773c0,11.469,9.303,20.768,20.771,20.768   s20.771-9.299,20.771-20.768C426.227,299.162,416.924,289.859,405.456,289.859z"/>
	<path style="fill:#E4F2F4;" d="M172.888,409.328c-11.476,0-20.771,9.303-20.771,20.775c0,11.469,9.295,20.768,20.771,20.768   c11.469,0,20.764-9.299,20.764-20.768C193.651,418.631,184.356,409.328,172.888,409.328z"/>
	<path style="fill:#E4F2F4;" d="M250.732,409.328c-11.469,0-20.771,9.303-20.771,20.775c0,11.469,9.303,20.768,20.771,20.768   c11.468,0,20.771-9.299,20.771-20.768C271.503,418.631,262.2,409.328,250.732,409.328z"/>
	<path style="fill:#E4F2F4;" d="M328.353,409.328c-11.476,0-20.771,9.303-20.771,20.775c0,11.469,9.295,20.768,20.771,20.768   c11.469,0,20.764-9.299,20.764-20.768C349.117,418.631,339.822,409.328,328.353,409.328z"/>
</g>
<g style="opacity:0.5;">
	<path style="fill:#E4F2F4;" d="M372.956,33.75c-5.661-3.305-11.43-6.449-17.366-9.307c-14.016-6.752-28.781-12.195-44.113-16.234   c-0.788-0.211-1.568-0.42-2.363-0.619c-15.424-3.906-31.421-6.373-47.839-7.234c-4.368-0.229-8.768-0.355-13.197-0.355   c-11.797,0-23.388,0.881-34.756,2.475c-21.835,3.064-42.767,8.924-62.39,17.287c-0.957,0.404-1.883,0.859-2.831,1.277   c-8.684,3.828-17.099,8.141-25.224,12.898C95.488,49.989,71.473,71.131,52.095,96.083c-0.712,0.908-1.438,1.795-2.135,2.713   c0.91,0.367,1.859,0.654,2.784,0.982c5.906,31.176,31.987,55.822,65.137,58.396c14.979,1.164,29.232-2.348,41.352-9.299   c12.003,14.334,29.516,24.033,49.628,25.596c28.422,2.207,54.196-12.438,67.707-35.48c10.176,7.096,22.271,11.717,35.537,12.75   c23.617,1.836,45.405-7.994,59.865-24.582c26.853-3.488,49.43-21.938,58.442-47.248C413.718,61.816,394.354,46.24,372.956,33.75z"/>
</g>
<g>
</g>
<g>
</g>
<g>
</g>
<g>
</g>
<g>
</g>
<g>
</g>
<g>
</g>
<g>
</g>
<g>
</g>
<g>
</g>
<g>
</g>
<g>
</g>
<g>
</g>
<g>
</g>
<g>
</g>
</svg>
