<?xml version="1.0" encoding="iso-8859-1"?>
<!-- Generator: Adobe Illustrator 19.0.0, SVG Export Plug-In . SVG Version: 6.00 Build 0)  -->
<svg xmlns="http://www.w3.org/2000/svg" xmlns:xlink="http://www.w3.org/1999/xlink" version="1.1" id="Layer_1" x="0px" y="0px" viewBox="0 0 496.162 496.162" style="enable-background:new 0 0 496.162 496.162;" xml:space="preserve">
<path style="fill:#A3D5E0;" d="M248.077,0C111.072,0,0.002,111.062,0.002,248.084c0,137.004,111.07,248.078,248.075,248.078  c137.013,0,248.083-111.074,248.083-248.078C496.16,111.062,385.09,0,248.077,0z"/>
<g style="opacity:0.5;">
	<path style="fill:#E4F2F4;" d="M404.774,55.779c-5.982-4.885-12.194-9.502-18.621-13.82   c-26.371-17.699-56.315-30.471-88.539-37.002c-0.987-0.197-1.989-0.344-2.983-0.535C279.544,1.561,263.998,0,248.077,0   c-19.884,0-39.193,2.406-57.723,6.824c-6.687,1.596-13.274,3.455-19.746,5.578c-28.031,9.211-53.845,23.279-76.467,41.213   c-10.917,8.652-21.115,18.17-30.426,28.51c-19.387,21.52-35.009,46.465-45.957,73.801c10.466,18.846,29.386,32.674,52.406,35.598   c20.603,2.619,40.203-4.051,54.747-16.676c10.718,11.217,25.192,18.982,41.787,21.09c14.489,1.844,28.513-0.895,40.616-7.07   c10.979,14.494,27.534,24.75,46.997,27.221c27.504,3.496,53.247-9.506,67.462-31.252c9.548,7.379,21.077,12.439,33.915,14.074   c22.859,2.902,44.495-5.613,59.329-21.035c24.237-1.951,45.528-16.473,56.499-37.695C455.643,107.359,432.737,78.59,404.774,55.779   z"/>
</g>
<g>
	<path style="fill:#E4F2F4;" d="M35.019,232.725c-8.225,0-14.896,6.672-14.896,14.898c0,8.221,6.671,14.893,14.896,14.893   s14.896-6.672,14.896-14.893C49.914,239.396,43.243,232.725,35.019,232.725z"/>
	<path style="fill:#E4F2F4;" d="M95.732,232.725c-8.224,0-14.896,6.672-14.896,14.898c0,8.221,6.672,14.893,14.896,14.893   c8.225,0,14.896-6.672,14.896-14.893C110.628,239.396,103.957,232.725,95.732,232.725z"/>
	<path style="fill:#E4F2F4;" d="M156.447,232.725c-8.225,0-14.896,6.672-14.896,14.898c0,8.221,6.671,14.893,14.896,14.893   s14.896-6.672,14.896-14.893C171.343,239.396,164.672,232.725,156.447,232.725z"/>
	<path style="fill:#E4F2F4;" d="M338.59,232.725c-8.224,0-14.896,6.672-14.896,14.898c0,8.221,6.672,14.893,14.896,14.893   c8.225,0,14.896-6.672,14.896-14.893C353.486,239.396,346.814,232.725,338.59,232.725z"/>
	<path style="fill:#E4F2F4;" d="M399.305,232.725c-8.225,0-14.896,6.672-14.896,14.898c0,8.221,6.671,14.893,14.896,14.893   s14.896-6.672,14.896-14.893C414.2,239.396,407.529,232.725,399.305,232.725z"/>
	<path style="fill:#E4F2F4;" d="M460.019,232.725c-8.225,0-14.896,6.672-14.896,14.898c0,8.221,6.672,14.893,14.896,14.893   s14.896-6.672,14.896-14.893C474.915,239.396,468.243,232.725,460.019,232.725z"/>
	<path style="fill:#E4F2F4;" d="M95.732,354.154c-8.224,0-14.896,6.67-14.896,14.898c0,8.221,6.672,14.893,14.896,14.893   c8.225,0,14.896-6.672,14.896-14.893C110.628,360.824,103.957,354.154,95.732,354.154z"/>
	<path style="fill:#E4F2F4;" d="M399.305,354.154c-8.225,0-14.896,6.67-14.896,14.898c0,8.221,6.671,14.893,14.896,14.893   s14.896-6.672,14.896-14.893C414.2,360.824,407.529,354.154,399.305,354.154z"/>
	<path style="fill:#E4F2F4;" d="M65.582,293.439c-8.225,0-14.896,6.67-14.896,14.898c0,8.221,6.671,14.893,14.896,14.893   s14.896-6.672,14.896-14.893C80.477,300.109,73.807,293.439,65.582,293.439z"/>
	<path style="fill:#E4F2F4;" d="M126.297,293.439c-8.225,0-14.896,6.67-14.896,14.898c0,8.221,6.671,14.893,14.896,14.893   c8.224,0,14.896-6.672,14.896-14.893C141.192,300.109,134.52,293.439,126.297,293.439z"/>
	<path style="fill:#E4F2F4;" d="M369.154,293.439c-8.225,0-14.896,6.67-14.896,14.898c0,8.221,6.671,14.893,14.896,14.893   c8.224,0,14.896-6.672,14.896-14.893C384.05,300.109,377.378,293.439,369.154,293.439z"/>
	<path style="fill:#E4F2F4;" d="M429.868,293.439c-8.224,0-14.896,6.67-14.896,14.898c0,8.221,6.672,14.893,14.896,14.893   c8.225,0,14.896-6.672,14.896-14.893C444.764,300.109,438.093,293.439,429.868,293.439z"/>
</g>
<g>
</g>
<g>
</g>
<g>
</g>
<g>
</g>
<g>
</g>
<g>
</g>
<g>
</g>
<g>
</g>
<g>
</g>
<g>
</g>
<g>
</g>
<g>
</g>
<g>
</g>
<g>
</g>
<g>
</g>
</svg>
