<?xml version="1.0" encoding="iso-8859-1"?>
<!-- Generator: Adobe Illustrator 19.0.0, SVG Export Plug-In . SVG Version: 6.00 Build 0)  -->
<svg xmlns="http://www.w3.org/2000/svg" xmlns:xlink="http://www.w3.org/1999/xlink" version="1.1" id="Layer_1" x="0px" y="0px" viewBox="0 0 496.162 496.162" style="enable-background:new 0 0 496.162 496.162;" xml:space="preserve">
<g>
	<path style="fill:#A3D5E0;" d="M248.077,0C111.072,0,0.002,111.062,0.002,248.083c0,137.002,111.07,248.079,248.075,248.079   c137.013,0,248.083-111.077,248.083-248.079C496.16,111.062,385.09,0,248.077,0z"/>
	<path style="fill:#A3D5E0;" d="M469.987,350.274l3.29,1.859c0.788-1.698,1.568-3.396,2.318-5.11L469.987,350.274z"/>
	<path style="fill:#A3D5E0;" d="M446.34,362.6l-26.425,13.488l14.65,8.102c1.232,0.681,2.005,1.981,2.021,3.396   c0.008,1.408-0.742,2.724-1.967,3.428l-14.658,8.423l17.727,8.554c9.456-11.208,17.917-23.258,25.3-36.034L446.34,362.6z"/>
	<path style="fill:#A3D5E0;" d="M410.995,415.281v15.875c0,1.392-0.735,2.67-1.929,3.373c-1.193,0.704-2.67,0.728-3.886,0.054   l-13.779-7.65l1.897,22.225c10.635-7.696,20.672-16.165,29.944-25.415L410.995,415.281z"/>
	<path style="fill:#A3D5E0;" d="M483.032,327.69l-3.29-5.692c-0.528-0.91-1.393-1.568-2.41-1.828   c-1.01-0.26-2.096-0.107-2.998,0.429l-15.432,9.272v-30.832c0-1.377-0.727-2.662-1.921-3.366c-1.186-0.703-2.662-0.734-3.871-0.068   l-15.668,8.538c-1.263,0.681-2.043,2.004-2.043,3.435v35.689l-24.404,16.717v-16.356c0-1.4-0.742-2.693-1.959-3.39   c-1.209-0.704-2.708-0.704-3.917,0l-13.702,7.91l2.486-28.972l30.334-18.201c1.179-0.703,1.905-1.981,1.905-3.358v-17.099   c0-1.385-0.734-2.67-1.936-3.374c-1.193-0.704-2.67-0.727-3.887-0.046l-26.233,14.566v-14.712c0-2.157-1.752-3.917-3.917-3.917   h-16.38c-2.165,0-3.917,1.76-3.917,3.917v14.781l-26.968-14.651c-1.217-0.665-2.686-0.635-3.871,0.069   c-1.186,0.711-1.913,1.989-1.913,3.366v17.099c0,1.393,0.734,2.678,1.936,3.382l30.97,18.186l2.096,29.187L357.35,340.2   c-1.217-0.674-2.693-0.65-3.887,0.054c-1.193,0.703-1.928,1.989-1.928,3.374v16.356l-24.39-16.709v-35.697   c0-1.377-0.728-2.646-1.905-3.358l-14.237-8.538c-1.209-0.727-2.716-0.742-3.948-0.046c-1.224,0.696-1.981,1.997-1.981,3.404   v30.946l-16.196-9.41c-0.918-0.535-2.027-0.681-3.052-0.382c-1.025,0.298-1.89,1.002-2.38,1.942l-7.122,13.55   c-0.957,1.82-0.345,4.069,1.399,5.148l15.025,9.326l-27.006,15.271c-1.217,0.681-1.974,1.966-1.989,3.358   c-0.022,1.393,0.704,2.693,1.897,3.404l14.245,8.546c1.193,0.727,2.686,0.75,3.909,0.076l33.073-18.224l26.211,13.48l-14.674,8.117   c-1.231,0.681-2.004,1.981-2.02,3.396c-0.008,1.408,0.742,2.724,1.966,3.428l14.682,8.438l-26.188,12.723l-33.165-16.923   c-1.209-0.619-2.662-0.559-3.817,0.153l-12.822,7.842c-1.163,0.711-1.875,1.989-1.867,3.358s0.727,2.632,1.897,3.336l26.195,15.714   l-16.089,8.828c-0.91,0.498-1.584,1.339-1.874,2.342c-0.291,1.002-0.169,2.073,0.336,2.983l7.107,12.83   c0.505,0.918,1.354,1.591,2.356,1.874c0.994,0.283,2.073,0.161,2.991-0.352l16.969-9.548v30.342c0,1.385,0.727,2.67,1.921,3.374   c1.186,0.704,2.67,0.727,3.886,0.061l14.238-7.834c1.247-0.688,2.027-2.004,2.027-3.435v-34.986l24.39-16.846v15.867   c0,1.377,0.727,2.654,1.904,3.358c1.171,0.704,2.632,0.742,3.856,0.1l14.842-7.896l-2.104,29.478l-30.924,17.488   c-1.231,0.696-1.989,1.997-1.989,3.405v2.54c20.121-7.743,38.979-18.025,56.178-30.473l-1.897-22.225l13.779,7.65   c1.216,0.674,2.692,0.65,3.886-0.054c1.193-0.703,1.929-1.981,1.929-3.373v-15.87l12.248,8.461   c5.05-5.033,9.846-10.305,14.444-15.752l-17.727-8.554l14.658-8.423c1.225-0.704,1.975-2.02,1.967-3.428   c-0.016-1.415-0.788-2.716-2.021-3.396l-14.65-8.102l26.425-13.488l16.647,9.356c3.711-6.434,7.153-13.036,10.29-19.822   l-3.29-1.859l5.608-3.251C478.342,340.712,480.806,334.263,483.032,327.69z"/>
</g>
<g style="opacity:0.5;">
	<path style="fill:#E4F2F4;" d="M483.032,327.69l-3.29-5.692c-0.528-0.91-1.393-1.568-2.41-1.828   c-1.01-0.26-2.096-0.107-2.998,0.429l-15.432,9.272v-30.832c0-1.377-0.727-2.662-1.921-3.366c-1.186-0.703-2.662-0.734-3.871-0.068   l-15.668,8.538c-1.263,0.681-2.043,2.004-2.043,3.435v35.689l-24.404,16.717v-16.356c0-1.4-0.742-2.693-1.959-3.39   c-1.209-0.704-2.708-0.704-3.917,0l-13.702,7.91l2.486-28.972l30.334-18.201c1.179-0.703,1.905-1.981,1.905-3.358v-17.099   c0-1.385-0.734-2.67-1.936-3.374c-1.193-0.704-2.67-0.727-3.887-0.046l-26.233,14.566v-14.712c0-2.157-1.752-3.917-3.917-3.917   h-16.38c-2.165,0-3.917,1.76-3.917,3.917v14.781l-26.968-14.651c-1.217-0.665-2.686-0.635-3.871,0.069   c-1.186,0.711-1.913,1.989-1.913,3.366v17.099c0,1.393,0.734,2.678,1.936,3.382l30.97,18.186l2.096,29.187L357.35,340.2   c-1.217-0.674-2.693-0.65-3.887,0.054c-1.193,0.703-1.928,1.989-1.928,3.374v16.356l-24.39-16.709v-35.697   c0-1.377-0.728-2.646-1.905-3.358l-14.237-8.538c-1.209-0.727-2.716-0.742-3.948-0.046c-1.224,0.696-1.981,1.997-1.981,3.404   v30.946l-16.196-9.41c-0.918-0.535-2.027-0.681-3.052-0.382c-1.025,0.298-1.89,1.002-2.38,1.942l-7.122,13.55   c-0.957,1.82-0.345,4.069,1.399,5.148l15.025,9.326l-27.006,15.271c-1.217,0.681-1.974,1.966-1.989,3.358   c-0.022,1.393,0.704,2.693,1.897,3.404l14.245,8.546c1.193,0.727,2.686,0.75,3.909,0.076l33.073-18.224l26.211,13.48l-14.674,8.117   c-1.231,0.681-2.004,1.981-2.02,3.396c-0.008,1.408,0.742,2.724,1.966,3.428l14.682,8.438l-26.188,12.723l-33.165-16.923   c-1.209-0.619-2.662-0.559-3.817,0.153l-12.822,7.842c-1.163,0.711-1.875,1.989-1.867,3.358s0.727,2.632,1.897,3.336l26.195,15.714   l-16.089,8.828c-0.91,0.498-1.584,1.339-1.874,2.342c-0.291,1.002-0.169,2.073,0.336,2.983l7.107,12.83   c0.505,0.918,1.354,1.591,2.356,1.874c0.994,0.283,2.073,0.161,2.991-0.352l16.969-9.548v30.342c0,1.385,0.727,2.67,1.921,3.374   c1.186,0.704,2.67,0.727,3.886,0.061l14.238-7.834c1.247-0.688,2.027-2.004,2.027-3.435v-34.986l24.39-16.846v15.867   c0,1.377,0.727,2.654,1.904,3.358c1.171,0.704,2.632,0.742,3.856,0.1l14.842-7.896l-2.104,29.478l-30.924,17.488   c-1.231,0.696-1.989,1.997-1.989,3.405v2.54c20.121-7.743,38.979-18.025,56.178-30.473l-1.897-22.225l13.779,7.65   c1.216,0.674,2.692,0.65,3.886-0.054c1.193-0.703,1.929-1.981,1.929-3.373v-15.87l12.248,8.461   c5.05-5.033,9.846-10.305,14.444-15.752l-17.727-8.554l14.658-8.423c1.225-0.704,1.975-2.02,1.967-3.428   c-0.016-1.415-0.788-2.716-2.021-3.396l-14.65-8.102l26.425-13.488l16.647,9.356c3.711-6.434,7.153-13.036,10.29-19.822   l-3.29-1.859l5.608-3.251C478.342,340.712,480.806,334.263,483.032,327.69z"/>
</g>
<g style="opacity:0.5;">
	<path style="fill:#E4F2F4;" d="M404.774,55.776c-5.981-4.885-12.194-9.502-18.621-13.82   c-26.371-17.696-56.315-30.473-88.539-36.998c-0.987-0.203-1.989-0.345-2.983-0.536C279.544,1.558,263.998,0,248.077,0   c-19.884,0-39.193,2.402-57.723,6.824c-6.687,1.592-13.274,3.451-19.746,5.577c-28.031,9.212-53.845,23.277-76.467,41.214   c-10.917,8.652-21.115,18.17-30.426,28.506c-19.387,21.521-35.009,46.469-45.957,73.801c10.466,18.847,29.386,32.675,52.406,35.602   c20.603,2.616,40.203-4.055,54.747-16.679c10.718,11.216,25.192,18.981,41.787,21.093c14.489,1.844,28.513-0.896,40.616-7.069   c10.979,14.49,27.534,24.749,46.997,27.221c27.504,3.496,53.247-9.51,67.462-31.252c9.548,7.375,21.077,12.439,33.915,14.069   c22.859,2.906,44.495-5.608,59.329-21.031c24.237-1.951,45.528-16.472,56.499-37.698   C455.643,107.359,432.737,78.586,404.774,55.776z"/>
</g>
<g>
	<path style="fill:#7CB7C1;" d="M131.553,222.642c0,0-17.1,19.451-17.1,37.22c0,9.448,7.651,17.099,17.1,17.099   c9.44,0,17.099-7.65,17.099-17.099C148.651,240.077,131.553,246.113,131.553,222.642z"/>
	<path style="fill:#7CB7C1;" d="M56.126,291.726c0,0-17.099,19.447-17.099,37.22c0,9.44,7.65,17.099,17.099,17.099   s17.099-7.658,17.099-17.099C73.225,309.161,56.126,315.197,56.126,291.726z"/>
</g>
<g>
	<path style="fill:#E4F2F4;" d="M132.517,307.86c-9.349,0-16.923,7.574-16.923,16.923c0,9.342,7.574,16.915,16.923,16.915   c9.341,0,16.915-7.573,16.915-16.915C149.432,315.435,141.857,307.86,132.517,307.86z"/>
	<path style="fill:#E4F2F4;" d="M57.794,240.187c-9.349,0-16.923,7.574-16.923,16.92c0,9.341,7.574,16.915,16.923,16.915   c9.341,0,16.915-7.574,16.915-16.915C74.709,247.762,67.135,240.187,57.794,240.187z"/>
</g>
<g>
	<path style="fill:#7CB7C1;" d="M284.937,222.642c0,0-17.099,19.451-17.099,37.22c0,9.448,7.658,17.099,17.099,17.099   c9.448,0,17.099-7.65,17.099-17.099C302.036,240.077,284.937,246.113,284.937,222.642z"/>
	<path style="fill:#7CB7C1;" d="M206.902,291.726c0,0-17.099,19.447-17.099,37.22c0,9.44,7.65,17.099,17.099,17.099   s17.099-7.658,17.099-17.099C224.001,309.161,206.902,315.197,206.902,291.726z"/>
</g>
<path style="fill:#E4F2F4;" d="M208.57,240.187c-9.35,0-16.923,7.574-16.923,16.92c0,9.341,7.573,16.915,16.923,16.915  c9.341,0,16.915-7.574,16.915-16.915C225.485,247.762,217.911,240.187,208.57,240.187z"/>
<path style="fill:#7CB7C1;" d="M131.553,362.348c0,0-17.1,19.455-17.1,37.22c0,9.448,7.651,17.106,17.1,17.106  c9.44,0,17.099-7.658,17.099-17.106C148.651,379.783,131.553,385.819,131.553,362.348z"/>
<path style="fill:#E4F2F4;" d="M208.57,379.897c-9.35,0-16.923,7.574-16.923,16.915c0,9.35,7.573,16.923,16.923,16.923  c9.341,0,16.915-7.573,16.915-16.923C225.485,387.472,217.911,379.897,208.57,379.897z"/>
<g style="opacity:0.5;">
	<path style="fill:#E4F2F4;" d="M372.956,33.747c-5.661-3.306-11.43-6.45-17.366-9.304c-14.016-6.755-28.781-12.194-44.113-16.238   c-0.788-0.21-1.568-0.42-2.363-0.619c-15.424-3.905-31.421-6.369-47.839-7.233C256.907,0.124,252.507,0,248.078,0   c-11.797,0-23.388,0.88-34.756,2.472c-21.835,3.063-42.767,8.928-62.39,17.29c-0.957,0.405-1.883,0.856-2.831,1.277   c-8.684,3.825-17.099,8.141-25.224,12.899c-27.389,16.05-51.404,37.188-70.782,62.141c-0.712,0.906-1.438,1.794-2.135,2.712   c0.91,0.367,1.859,0.658,2.784,0.987c5.906,31.172,31.987,55.818,65.137,58.396c14.979,1.162,29.232-2.353,41.352-9.304   c12.003,14.338,29.516,24.038,49.628,25.599c28.422,2.204,54.196-12.439,67.707-35.482c10.176,7.1,22.271,11.721,35.537,12.749   c23.617,1.836,45.405-7.99,59.865-24.577c26.853-3.488,49.43-21.941,58.442-47.249C413.719,61.816,394.354,46.24,372.956,33.747z"/>
</g>
<path style="fill:#E4F2F4;" d="M248.077,0c-74.669,0-141.58,33.035-187.063,85.242c4.101-0.383,8.117-1.079,12.012-2.081  c12.555,23.021,36.967,38.643,65.037,38.643c18.728,0,35.789-7.016,48.825-18.487c13.044,11.472,30.104,18.487,48.833,18.487  c32.117,0,59.383-20.491,69.635-49.085c12.271,9.031,27.374,14.433,43.776,14.433c23.885,0,45.062-11.354,58.603-28.904  C364.579,21.919,308.898,0,248.077,0z"/>
<g>
</g>
<g>
</g>
<g>
</g>
<g>
</g>
<g>
</g>
<g>
</g>
<g>
</g>
<g>
</g>
<g>
</g>
<g>
</g>
<g>
</g>
<g>
</g>
<g>
</g>
<g>
</g>
<g>
</g>
</svg>
