<?xml version="1.0" encoding="iso-8859-1"?>
<!-- Generator: Adobe Illustrator 19.0.0, SVG Export Plug-In . SVG Version: 6.00 Build 0)  -->
<svg xmlns="http://www.w3.org/2000/svg" xmlns:xlink="http://www.w3.org/1999/xlink" version="1.1" id="Layer_1" x="0px" y="0px" viewBox="0 0 496.162 496.162" style="enable-background:new 0 0 496.162 496.162;" xml:space="preserve">
<path style="fill:#D0E8EA;" d="M248.077,0C111.072,0,0.002,111.062,0.002,248.083c0,137.002,111.07,248.079,248.075,248.079  c137.013,0,248.083-111.077,248.083-248.079C496.16,111.062,385.09,0,248.077,0z"/>
<g style="opacity:0.5;">
	<path style="fill:#F9F9F9;" d="M404.775,55.776c-5.99-4.885-12.195-9.502-18.629-13.82c-26.372-17.696-56.315-30.473-88.532-36.998   c-0.987-0.203-1.997-0.345-2.991-0.535C279.544,1.558,263.99,0,248.077,0c-19.884,0-39.193,2.402-57.723,6.824   c-6.694,1.592-13.281,3.451-19.746,5.578c-28.032,9.211-53.844,23.276-76.475,41.213c-10.917,8.652-21.115,18.17-30.426,28.506   c-19.379,21.521-35.009,46.469-45.949,73.801c10.458,18.847,29.378,32.675,52.406,35.602c20.603,2.616,40.203-4.055,54.739-16.679   c10.718,11.216,25.193,18.981,41.787,21.093c14.498,1.844,28.513-0.896,40.616-7.069c10.979,14.49,27.534,24.75,46.997,27.221   c27.511,3.496,53.248-9.51,67.462-31.252c9.548,7.375,21.084,12.439,33.915,14.069c22.867,2.906,44.495-5.608,59.33-21.031   c24.237-1.951,45.528-16.472,56.506-37.698C455.635,107.36,432.737,78.586,404.775,55.776z"/>
</g>
<g style="opacity:0.5;">
	<path style="fill:#FFFFFF;" d="M372.949,33.747c-5.661-3.306-11.43-6.449-17.359-9.304c-14.023-6.755-28.781-12.194-44.113-16.237   c-0.788-0.211-1.576-0.421-2.372-0.62c-15.423-3.905-31.413-6.369-47.839-7.233C256.898,0.124,252.498,0,248.077,0   c-11.805,0-23.395,0.88-34.756,2.472c-21.834,3.063-42.774,8.928-62.397,17.29c-0.956,0.405-1.882,0.856-2.831,1.277   c-8.683,3.825-17.091,8.141-25.224,12.899C95.48,49.989,71.465,71.126,52.087,96.079c-0.704,0.906-1.438,1.794-2.135,2.712   c0.911,0.367,1.859,0.658,2.785,0.987c5.906,31.172,31.987,55.818,65.137,58.396c14.979,1.163,29.232-2.353,41.351-9.304   c12.004,14.338,29.523,24.038,49.629,25.599c28.422,2.204,54.204-12.439,67.707-35.482c10.175,7.1,22.278,11.721,35.537,12.749   c23.625,1.836,45.406-7.99,59.865-24.577c26.861-3.488,49.43-21.941,58.45-47.249C413.71,61.816,394.347,46.24,372.949,33.747z"/>
</g>
<path style="fill:#F9F9F9;" d="M248.077,0c-74.676,0-141.588,33.035-187.07,85.242c4.108-0.383,8.117-1.078,12.011-2.081  c12.554,23.021,36.967,38.643,65.037,38.643c18.736,0,35.789-7.016,48.833-18.487c13.036,11.472,30.097,18.487,48.833,18.487  c32.117,0,59.375-20.491,69.627-49.085c12.271,9.031,27.373,14.433,43.784,14.433c23.877,0,45.054-11.354,58.595-28.904  C364.579,21.919,308.899,0,248.077,0z"/>
<g>
	<path style="fill:#F5F5F5;" d="M336.204,290.501c-1.385-14.811-7.383-25.942-17.352-32.178c-8.76-5.478-19.991-6.763-33.111-3.768   c-15.852,3.614-26.012,15.175-25.882,29.436c0.107,13.663,9.739,24.749,23.969,27.587c3.779,0.75,7.375-1.438,8.24-4.758   c0.42-1.6,0.168-3.26-0.719-4.683c-0.964-1.538-2.609-2.646-4.499-3.015c-8.989-1.79-13.075-8.974-13.128-15.309   c-0.054-6.472,3.933-14.306,15.301-16.899c9.134-2.081,16.586-1.415,21.979,1.958c6.35,3.963,10.39,12.058,11.376,22.791   c0.704,7.528-2.027,13.45-8.576,18.621c-15.661,12.356-50.019,18.622-102.111,18.622c-80.3,0-179.19-15.21-203.978-19.241   c1.17,4.59,2.494,9.119,3.917,13.603c32.515,5.194,122.14,18.308,198.094,18.308c7.123,0,14.039-0.115,20.572-0.345   c45.49-1.591,76.612-8.76,92.51-21.299C332.776,312.068,337.282,302.168,336.204,290.501z"/>
	<path style="fill:#F5F5F5;" d="M300.774,390.814c-15.623-14.421-57.218-21.728-123.609-21.728   c-50.623,0-105.286,4.285-141.174,7.75c2.494,4.094,5.133,8.079,7.849,12.012c40.823-3.771,90.284-6.924,134.259-6.924   c61.112,0,100.122,6.189,112.822,17.91c3.458,3.19,4.659,6.641,3.779,10.841c-1.652,7.888-5.263,13.625-10.175,16.15   c-4.116,2.119-9.571,2.172-16.043,0.16c-9.693-3.007-9.571-10.313-9.311-12.478c0.551-4.399,3.948-9.181,10.321-9.961   c1.92-0.229,3.665-1.201,4.781-2.663c1.018-1.323,1.446-2.93,1.216-4.536c-0.505-3.458-3.848-5.914-7.742-5.433   c-11.973,1.462-20.955,9.992-22.347,21.23c-1.454,11.782,5.83,21.957,18.553,25.912c4.628,1.438,9.066,2.165,13.205,2.165   c0.413,0,0.826-0.007,1.232-0.022c4.644-0.161,8.966-1.263,12.86-3.267c8.691-4.468,14.589-13.083,17.061-24.91   C310.092,404.532,307.552,397.058,300.774,390.814z"/>
	<path style="fill:#F5F5F5;" d="M436.93,308.082c-1.561-16.869-8.354-29.523-19.646-36.584c-9.899-6.189-22.638-7.636-37.533-4.231   c-17.864,4.078-29.324,17.092-29.187,33.157c0.13,15.378,10.963,27.841,26.953,31.016c3.779,0.742,7.36-1.438,8.24-4.751   c0.42-1.599,0.168-3.252-0.712-4.667c-0.964-1.553-2.616-2.654-4.514-3.037c-11.032-2.188-16.035-10.986-16.104-18.736   c-0.062-7.903,4.781-17.466,18.598-20.618c10.895-2.486,19.868-1.675,26.402,2.41c7.643,4.789,12.509,14.444,13.687,27.205   c0.62,6.625-1.484,12.118-6.419,16.801c-21.261,20.151-90.697,22.867-155.818,22.867c-9.196,0-18.483-0.054-27.764-0.138   c-82.526-0.727-170.736-2.043-212.975-2.708c1.875,4.353,3.894,8.622,5.998,12.837c42.935,0.674,127.083,1.905,206.762,2.609   c9.609,0.084,19.134,0.138,28.514,0.138c18.759,0,34.657-0.237,48.604-0.728c64.012-2.233,99.977-10.267,116.617-26.034   C434.428,327.491,437.894,318.472,436.93,308.082z"/>
</g>
<g>
</g>
<g>
</g>
<g>
</g>
<g>
</g>
<g>
</g>
<g>
</g>
<g>
</g>
<g>
</g>
<g>
</g>
<g>
</g>
<g>
</g>
<g>
</g>
<g>
</g>
<g>
</g>
<g>
</g>
</svg>
