<?xml version="1.0" encoding="iso-8859-1"?>
<!-- Generator: Adobe Illustrator 19.0.0, SVG Export Plug-In . SVG Version: 6.00 Build 0)  -->
<svg xmlns="http://www.w3.org/2000/svg" xmlns:xlink="http://www.w3.org/1999/xlink" version="1.1" id="Layer_1" x="0px" y="0px" viewBox="0 0 496.3 496.3" style="enable-background:new 0 0 496.3 496.3;" xml:space="preserve">
<path style="fill:#D8DBBA;" d="M248.146,0C111.141,0,0.071,111.063,0.071,248.083c0,137.005,111.07,248.079,248.075,248.079  c137.013,0,248.083-111.074,248.083-248.079C496.229,111.063,385.159,0,248.146,0z"/>
<g style="opacity:0.7;">
	<path style="fill:#CDCEB6;" d="M426.411,304.777c-20.604-2.62-40.203,4.051-54.747,16.674   c-10.719-11.215-25.193-18.981-41.779-21.088c-14.498-1.844-28.514,0.895-40.617,7.069c-10.985-14.494-27.541-24.749-47.004-27.22   c-27.504-3.497-53.24,9.505-67.463,31.252c-9.548-7.379-21.077-12.439-33.914-14.073c-22.86-2.903-44.488,5.611-59.33,21.035   c-24.236,1.951-45.528,16.471-56.499,37.698c15.875,32.817,38.78,61.586,66.743,84.4c5.982,4.881,12.195,9.501,18.621,13.816   c26.372,17.7,56.323,30.472,88.54,37.001c0.986,0.203,1.996,0.345,2.983,0.536c15.087,2.865,30.633,4.422,46.553,4.422   c19.884,0,39.194-2.406,57.724-6.824c6.694-1.596,13.273-3.454,19.746-5.577c28.031-9.211,53.844-23.277,76.467-41.213   c10.917-8.653,21.115-18.17,30.426-28.51c19.387-21.521,35.009-46.465,45.956-73.796   C468.358,321.528,449.431,307.703,426.411,304.777z"/>
</g>
<g style="opacity:0.6;">
	<path style="fill:#D8D8C0;" d="M443.831,396.522c-5.906-31.172-31.986-55.822-65.129-58.396   c-14.979-1.163-29.24,2.353-41.358,9.299c-12.004-14.333-29.516-24.034-49.629-25.595c-28.422-2.207-54.196,12.436-67.707,35.479   c-10.175-7.096-22.271-11.717-35.536-12.746c-23.617-1.836-45.406,7.991-59.865,24.577c-26.854,3.489-49.43,21.938-58.442,47.25   c16.693,18.093,36.064,33.67,57.455,46.159c5.661,3.305,11.43,6.45,17.367,9.307c14.016,6.751,28.781,12.194,44.112,16.238   c0.788,0.206,1.576,0.421,2.364,0.619c15.423,3.902,31.421,6.369,47.839,7.23c4.376,0.229,8.768,0.355,13.196,0.355   c11.798,0,23.396-0.88,34.757-2.475c21.834-3.061,42.767-8.925,62.397-17.287c0.948-0.406,1.874-0.861,2.823-1.278   c8.683-3.829,17.099-8.14,25.224-12.898c27.389-16.051,51.411-37.193,70.782-62.142c0.712-0.91,1.446-1.798,2.135-2.716   C445.713,397.138,444.764,396.851,443.831,396.522z"/>
</g>
<path style="fill:#EDECD3;" d="M423.549,413.135c-12.555-23.017-36.968-38.639-65.037-38.639c-18.729,0-35.789,7.016-48.825,18.487  c-13.044-11.472-30.098-18.487-48.833-18.487c-32.117,0-59.384,20.492-69.628,49.082c-12.271-9.027-27.381-14.429-43.783-14.429  c-23.885,0-45.062,11.354-58.596,28.904c43.149,36.328,98.829,58.247,159.65,58.247c74.669,0,141.588-33.039,187.063-85.242  C431.46,411.441,427.443,412.137,423.549,413.135z"/>
<g>
	<path style="fill:#E4E5DA;" d="M495.701,232.614c-66.827,5.413-195.547,11.537-228.75-17.769   c-5.814-5.133-8.132-11.04-7.092-18.055c1.446-9.75,5.639-16.992,11.797-20.385c5.264-2.899,12.104-3.163,20.366-0.788   c10.695,3.068,14.076,10.86,13.671,17.125c-0.397,6.178-4.743,12.971-13.571,14.226c-2.25,0.317-3.733,2.192-3.328,4.185   c0.413,1.989,2.555,3.347,4.812,3.03c11.469-1.629,19.646-10.011,20.335-20.867c0.728-11.357-6.931-21.031-19.531-24.642   c-10.68-3.072-19.846-2.556-27.235,1.511c-8.347,4.598-13.702,13.411-15.5,25.492c-1.385,9.318,1.813,17.485,9.509,24.283   c14.185,12.52,43.264,19.149,77.432,22.24c52.184,4.713,116.211,1.186,157.416-2.184   C495.946,237.541,495.854,235.069,495.701,232.614z"/>
	<path style="fill:#E4E5DA;" d="M276.706,284.698c-5.593,4.609-7.911,10.344-6.886,17.038c1.477,9.72,5.83,16.954,12.593,20.917   c3.029,1.779,6.419,2.834,10.129,3.171c3.657,0.329,7.628-0.039,11.896-1.109c10.222-2.571,16.426-10.217,15.799-19.486   c-0.612-8.867-7.313-15.951-16.686-17.619c-2.265-0.398-4.399,0.884-4.797,2.857c-0.405,1.974,1.086,3.906,3.335,4.303   c6.419,1.144,9.602,6.212,9.9,10.73c0.313,4.598-2.143,10.217-9.977,12.184c-6.166,1.545-11.27,1.178-15.147-1.094   c-4.583-2.689-7.735-8.247-8.859-15.668c-0.658-4.3,0.788-7.846,4.406-10.83c24.765-20.442,136.516-9.41,209.976,1.278   c0.421-2.391,0.85-4.782,1.201-7.199C427.084,274.424,305.838,260.664,276.706,284.698z"/>
	<path style="fill:#E4E5DA;" d="M335.591,252.207c-69.168-3.213-138.336-8.086-157.922-28.819c-4.43-4.69-6.136-10.015-5.202-16.272   c1.714-11.491,6.679-20.029,13.985-24.061c6.273-3.454,14.405-3.787,24.19-0.979c12.769,3.672,16.801,12.986,16.326,20.484   c-0.474,7.391-5.691,15.535-16.295,17.03c-2.25,0.321-3.727,2.195-3.32,4.188c0.405,1.989,2.555,3.347,4.804,3.03   c13.006-1.844,22.271-11.361,23.059-23.675c0.827-12.902-7.88-23.893-22.186-28c-12.203-3.504-22.653-2.934-31.062,1.694   c-9.51,5.249-15.63,15.335-17.688,29.175c-1.24,8.297,1.147,15.703,7.092,21.995c15.01,15.894,52.046,23.208,97.804,27.343   c20.68,1.871,43.142,3.087,66.169,4.158c58.656,2.724,120.435,5.279,160.141,6.87c0.176-2.425,0.359-4.843,0.467-7.287   C456.286,257.489,394.393,254.934,335.591,252.207z"/>
	<path style="fill:#E4E5DA;" d="M155.927,139.694c0-8.316-7.482-15.056-16.725-15.056c-1.852,0-3.596,0.333-5.256,0.83   c-3.06-3.534-7.78-5.849-13.144-5.849c-9.081,0-16.426,6.514-16.686,14.631c-5.922,2.314-10.083,7.62-10.083,13.81   c0,8.105,7.13,14.666,16.059,14.991c2.288,5.869,8.424,10.099,15.73,10.099c9.234,0,16.725-6.74,16.725-15.057   c0-1.247-0.215-2.437-0.536-3.599C149.906,153.286,155.927,147.142,155.927,139.694z"/>
	<path style="fill:#E4E5DA;" d="M301.676,398.947c0-11.468-10.32-20.756-23.059-20.756c-2.547,0-4.949,0.455-7.229,1.14   c-4.23-4.873-10.733-8.056-18.132-8.056c-12.516,0-22.646,8.974-22.989,20.163c-8.179,3.19-13.909,10.504-13.909,19.031   c0,11.177,9.831,20.224,22.148,20.675c3.137,8.087,11.605,13.917,21.666,13.917c12.738,0,23.059-9.292,23.059-20.752   c0-1.722-0.29-3.362-0.734-4.965C293.369,417.679,301.676,409.21,301.676,398.947z"/>
	<path style="fill:#E4E5DA;" d="M138.943,334.22c-1.14-7.291-6.112-13.324-13.121-14.865c-9.188-2.023-18.392,4.418-20.985,14.448   c-7.214,1.117-13.533,7.019-15.361,15.282c-2.303,10.462,3.458,20.622,12.883,22.699c1.408,0.31,2.808,0.363,4.2,0.291   c-0.597,9.242,4.858,17.596,13.289,19.455c9.426,2.073,18.92-4.724,21.223-15.19c0.467-2.088,0.513-4.15,0.375-6.155   c4.766-2.578,8.561-7.352,9.899-13.427C153.617,346.484,148.07,336.527,138.943,334.22z"/>
	<path style="fill:#E4E5DA;" d="M212.969,273.158c-1.515-0.761-3.083-1.198-4.644-1.48c-1.041-4.15-3.956-7.983-8.34-10.194   c-7.421-3.733-16.119-1.431-19.661,5.099c-5.8-0.547-11.377,2.081-13.924,7.142c-3.344,6.633-0.207,14.934,6.962,18.874   c-0.559,5.734,2.73,11.72,8.698,14.727c7.559,3.798,16.448,1.37,19.876-5.436c0.521-1.018,0.818-2.077,1.04-3.156   c6.955,2.257,14.406-0.291,17.475-6.377C223.871,285.551,220.52,276.96,212.969,273.158z"/>
	<path style="fill:#E4E5DA;" d="M92.183,217.944c-1.561-8.22-8.576-15.229-18.108-16.992c-12.073-2.23-23.487,4.77-25.5,15.645   c-0.306,1.626-0.306,3.232-0.168,4.828c-10.611-0.321-19.968,6.258-21.766,15.986c-2.005,10.871,6.158,21.49,18.231,23.716   c2.417,0.448,4.781,0.425,7.068,0.184c3.145,5.359,8.76,9.521,15.769,10.818c11.865,2.196,23.043-4.548,25.338-15.098   c8.301-1.587,15.011-7.521,16.502-15.611C111.508,230.82,103.774,220.526,92.183,217.944z"/>
	<path style="fill:#E4E5DA;" d="M399.741,329.683c-0.888-5.692-5.547-10.691-12.088-12.13c-8.263-1.832-16.295,2.724-17.94,10.179   c-0.237,1.113-0.291,2.215-0.229,3.316c-7.299-0.467-13.9,3.844-15.37,10.508c-1.645,7.444,3.727,14.957,12.004,16.774   c1.652,0.367,3.282,0.405,4.866,0.298c2.042,3.771,5.807,6.771,10.611,7.823c8.124,1.798,15.997-2.594,17.817-9.804   c5.769-0.899,10.535-4.831,11.751-10.374C412.754,339.013,407.674,331.741,399.741,329.683z"/>
	<path style="fill:#E4E5DA;" d="M295.656,56.736c-5.523-13.477-21.835-19.521-36.891-13.985c-7.78-8.193-20.871-11.036-32.989-6.074   c-15.354,6.285-23.196,22.581-17.542,36.409c0.849,2.062,2.012,3.894,3.335,5.604c-12.286,7.39-18.116,21.697-13.052,34.06   c5.661,13.828,22.699,19.926,38.038,13.633c3.076-1.251,5.746-3.003,8.171-4.954c7.482,3.795,16.908,4.418,25.813,0.769   c15.086-6.174,22.867-22.006,17.764-35.659C296.574,78.663,299.879,67.015,295.656,56.736z"/>
	<path style="fill:#E4E5DA;" d="M422.677,145.757c-4.009-9.789-15.859-14.18-26.8-10.16c-5.646-5.952-15.156-8.018-23.962-4.415   c-11.154,4.567-16.854,16.407-12.745,26.452c0.611,1.496,1.469,2.827,2.425,4.07c-8.928,5.367-13.166,15.76-9.479,24.742   c4.108,10.045,16.479,14.475,27.634,9.903c2.233-0.91,4.169-2.18,5.929-3.599c5.439,2.758,12.279,3.213,18.759,0.558   c10.956-4.483,16.609-15.985,12.898-25.9C423.35,161.686,425.745,153.225,422.677,145.757z"/>
</g>
<g>
</g>
<g>
</g>
<g>
</g>
<g>
</g>
<g>
</g>
<g>
</g>
<g>
</g>
<g>
</g>
<g>
</g>
<g>
</g>
<g>
</g>
<g>
</g>
<g>
</g>
<g>
</g>
<g>
</g>
</svg>
