<?xml version="1.0" encoding="iso-8859-1"?>
<!-- Generator: Adobe Illustrator 19.0.0, SVG Export Plug-In . SVG Version: 6.00 Build 0)  -->
<svg xmlns="http://www.w3.org/2000/svg" xmlns:xlink="http://www.w3.org/1999/xlink" version="1.1" id="Layer_1" x="0px" y="0px" viewBox="0 0 496.162 496.162" style="enable-background:new 0 0 496.162 496.162;" xml:space="preserve">
<path style="fill:#A3D5E0;" d="M248.077,0C111.072,0,0.002,111.062,0.002,248.083c0,137.005,111.07,248.079,248.075,248.079  c137.013,0,248.083-111.074,248.083-248.079C496.16,111.062,385.09,0,248.077,0z"/>
<g style="opacity:0.5;">
	<path style="fill:#E4F2F4;" d="M423.958,273.417l-20.515-11.893c-1.745-1.014-3.879-1.075-5.681-0.153l-50.31,25.671   l-40.073-19.329l22.232-12.776c1.863-1.071,2.999-3.057,2.984-5.203c-0.019-2.142-1.189-4.108-3.064-5.148l-22.221-12.291   l40.084-20.45l49.074,27.6c1.863,1.048,4.143,1.014,5.971-0.084l21.594-12.96c1.809-1.09,2.911-3.06,2.884-5.172   c-0.031-2.115-1.178-4.055-3.018-5.095l-40.647-22.986l24.52-14.218c2.834-1.645,3.798-5.275,2.157-8.113l-11.881-20.549   c-0.796-1.377-2.112-2.379-3.657-2.777c-1.526-0.39-3.179-0.165-4.541,0.658l-23.411,14.058v-46.756   c0-2.096-1.102-4.04-2.907-5.107c-1.805-1.075-4.036-1.117-5.875-0.111l-23.766,12.952c-1.905,1.037-3.095,3.038-3.095,5.214   v54.131l-37.009,25.35v-24.807c0-2.123-1.132-4.085-2.972-5.145c-1.833-1.063-4.108-1.063-5.941,0l-20.782,11.996l3.768-43.94   l46.01-27.599c1.79-1.071,2.884-3.003,2.884-5.092V87.357c0-2.104-1.113-4.051-2.93-5.118c-1.813-1.071-4.047-1.102-5.895-0.073   l-39.791,22.099V81.952c0-3.282-2.658-5.94-5.94-5.94h-24.845c-3.282,0-5.94,2.659-5.94,5.94v22.416l-40.896-22.229   c-1.851-1.002-4.074-0.96-5.872,0.115c-1.802,1.067-2.907,3.011-2.907,5.103v25.935c0,2.104,1.117,4.055,2.938,5.122l46.974,27.576   l3.179,44.273l-22.409-12.39c-1.84-1.021-4.085-0.995-5.891,0.08c-1.81,1.071-2.922,3.014-2.922,5.118v24.803l-36.998-25.346   v-54.131c0-2.088-1.098-4.02-2.884-5.095l-21.593-12.948c-1.84-1.105-4.124-1.128-5.987-0.073c-1.863,1.056-3.01,3.026-3.01,5.168   v46.924l-24.566-14.272c-1.392-0.807-3.068-1.021-4.625-0.57c-1.553,0.448-2.865,1.511-3.611,2.946l-10.802,20.549   c-1.454,2.758-0.524,6.17,2.123,7.811l22.787,14.138l-40.96,23.159c-1.836,1.041-2.988,2.98-3.014,5.095   c-0.031,2.112,1.071,4.082,2.884,5.172l21.605,12.96c1.809,1.094,4.066,1.128,5.921,0.111l50.168-27.633l39.752,20.438   l-22.255,12.31c-1.874,1.04-3.045,3.006-3.064,5.148c-0.015,2.146,1.121,4.131,2.984,5.203l22.267,12.795l-39.717,19.306   l-50.302-25.667c-1.84-0.941-4.043-0.853-5.795,0.222l-19.44,11.896c-1.771,1.083-2.85,3.014-2.838,5.091s1.102,4.001,2.884,5.069   l39.729,23.823l-24.401,13.393c-1.381,0.757-2.41,2.039-2.85,3.553c-0.436,1.519-0.256,3.148,0.513,4.529l10.78,19.459   c0.765,1.389,2.05,2.41,3.577,2.838c1.503,0.429,3.144,0.241,4.533-0.539l25.736-14.475v46.021c0,2.1,1.105,4.043,2.918,5.115   c1.798,1.067,4.043,1.102,5.887,0.092l21.594-11.881c1.897-1.044,3.075-3.037,3.075-5.206v-53.068l36.998-25.553v24.076   c0,2.085,1.094,4.017,2.884,5.091c1.778,1.067,3.997,1.125,5.845,0.153l22.52-11.977l-3.198,44.702L184.76,380.32   c-1.863,1.056-3.018,3.03-3.018,5.172v24.841c0,2.13,1.144,4.101,2.991,5.156c1.844,1.056,4.116,1.044,5.964-0.034l40.72-23.912   v27.435c0,3.278,2.659,5.94,5.94,5.94h24.845c3.282,0,5.94-2.662,5.94-5.94v-27.324l39.618,23.774   c1.84,1.102,4.124,1.128,5.986,0.073c1.863-1.052,3.011-3.026,3.011-5.168v-24.841c0-2.123-1.128-4.082-2.968-5.145l-45.934-26.543   l-3.783-44.388l20.894,11.598c1.844,1.021,4.085,0.995,5.895-0.073c1.817-1.067,2.93-3.014,2.93-5.118v-24.076l37.009,25.561   v53.064c0,2.253,1.27,4.307,3.282,5.313l23.762,11.885c1.84,0.907,4.028,0.815,5.78-0.264c1.752-1.083,2.819-2.991,2.819-5.053   v-45.857l24.566,14.272c1.373,0.8,3.033,1.014,4.56,0.589c1.538-0.425,2.842-1.45,3.615-2.842l10.803-19.459   c0.769-1.381,0.949-3.015,0.517-4.533c-0.444-1.519-1.469-2.8-2.858-3.561l-24.302-13.331l40.637-23.85   c1.825-1.067,2.941-3.026,2.938-5.137C426.912,276.428,425.787,274.477,423.958,273.417z"/>
</g>
<g>
</g>
<g>
</g>
<g>
</g>
<g>
</g>
<g>
</g>
<g>
</g>
<g>
</g>
<g>
</g>
<g>
</g>
<g>
</g>
<g>
</g>
<g>
</g>
<g>
</g>
<g>
</g>
<g>
</g>
</svg>
