<?xml version="1.0" encoding="iso-8859-1"?>
<!-- Generator: Adobe Illustrator 19.0.0, SVG Export Plug-In . SVG Version: 6.00 Build 0)  -->
<svg xmlns="http://www.w3.org/2000/svg" xmlns:xlink="http://www.w3.org/1999/xlink" version="1.1" id="Layer_1" x="0px" y="0px" viewBox="0 0 496.162 496.162" style="enable-background:new 0 0 496.162 496.162;" xml:space="preserve">
<path style="fill:#A3D5E0;" d="M248.077,0C111.072,0,0.002,111.062,0.002,248.083c0,137.005,111.07,248.079,248.075,248.079  c137.013,0,248.083-111.074,248.083-248.079C496.16,111.062,385.09,0,248.077,0z"/>
<g>
	<path style="fill:#E4F2F4;" d="M250.365,302.673c-5.34-4.712-7.471-10.137-6.515-16.582c1.332-8.951,5.18-15.604,10.833-18.717   c4.831-2.666,11.116-2.907,18.705-0.727c9.82,2.815,12.926,9.972,12.559,15.729c-0.363,5.673-4.357,11.912-12.47,13.063   c-2.062,0.294-3.424,2.012-3.049,3.844c0.375,1.829,2.341,3.076,4.414,2.781c10.535-1.496,18.044-9.192,18.679-19.165   c0.666-10.428-6.373-19.314-17.937-22.63c-9.812-2.819-18.227-2.349-25.017,1.389c-7.666,4.223-12.585,12.317-14.237,23.411   c-1.274,8.561,1.667,16.062,8.737,22.301c13.029,11.499,39.736,17.588,71.115,20.427c59.708,5.394,136.332-0.964,168.215-4.146   c0.742-2.318,1.415-4.663,2.088-7.008C442.648,321.046,286.131,334.243,250.365,302.673z"/>
	<path style="fill:#E4F2F4;" d="M259.32,366.83c-5.134,4.235-7.261,9.498-6.323,15.646c1.358,8.928,5.355,15.569,11.567,19.21   c2.785,1.633,5.895,2.605,9.307,2.911c3.358,0.306,7.004-0.034,10.921-1.017c9.391-2.36,15.087-9.384,14.509-17.895   c-0.559-8.144-6.713-14.651-15.328-16.181c-2.077-0.367-4.032,0.807-4.399,2.621c-0.371,1.817,0.999,3.588,3.064,3.955   c5.891,1.048,8.81,5.708,9.089,9.854c0.291,4.223-1.97,9.383-9.162,11.189c-5.661,1.419-10.347,1.083-13.908-1.006   c-4.212-2.467-7.104-7.574-8.14-14.391c-0.601-3.944,0.723-7.203,4.047-9.945c23.265-19.203,130.15-8.16,197.456,1.851   c1.213-2.065,2.429-4.131,3.584-6.231C406.488,358.456,287.141,343.875,259.32,366.83z"/>
	<path style="fill:#E4F2F4;" d="M313.405,336.989c-63.526-2.953-127.052-7.429-145.038-26.471c-4.07-4.303-5.635-9.196-4.778-14.945   c1.572-10.55,6.132-18.396,12.841-22.094c5.765-3.175,13.235-3.481,22.217-0.899c11.728,3.37,15.435,11.923,14.999,18.809   c-0.436,6.79-5.229,14.268-14.968,15.645c-2.062,0.295-3.427,2.016-3.052,3.845c0.378,1.828,2.349,3.075,4.414,2.785   c11.946-1.695,20.458-10.436,21.181-21.747c0.753-11.847-7.241-21.942-20.377-25.713c-11.204-3.221-20.809-2.697-28.524,1.557   c-8.741,4.819-14.36,14.081-16.25,26.792c-1.132,7.62,1.06,14.421,6.519,20.201c13.786,14.597,47.796,21.314,89.82,25.113   c18.993,1.717,39.622,2.834,60.768,3.817c61.215,2.842,126.165,5.485,160.821,6.859c0.995-2.192,2.008-4.369,2.941-6.591   C443.081,342.609,376.28,339.904,313.405,336.989z"/>
</g>
<g style="opacity:0.5;">
	<path style="fill:#E4F2F4;" d="M404.775,55.78c-5.987-4.885-12.195-9.502-18.625-13.82c-26.371-17.696-56.319-30.472-88.535-37.002   c-0.987-0.199-1.997-0.344-2.988-0.532C279.544,1.561,263.995,0,248.078,0c-19.884,0-39.193,2.406-57.723,6.824   c-6.694,1.595-13.277,3.454-19.746,5.581c-28.032,9.211-53.844,23.277-76.471,41.209c-10.917,8.657-21.115,18.17-30.426,28.51   c-19.382,21.521-35.008,46.469-45.953,73.8c10.458,18.847,29.382,32.675,52.406,35.602c20.603,2.617,40.203-4.055,54.743-16.678   c10.718,11.215,25.193,18.981,41.783,21.092c14.498,1.84,28.513-0.899,40.616-7.073c10.982,14.494,27.538,24.749,47.001,27.224   c27.507,3.493,53.244-9.509,67.462-31.252c9.548,7.375,21.081,12.44,33.915,14.069c22.863,2.903,44.491-5.608,59.33-21.031   c24.237-1.955,45.528-16.475,56.502-37.698C455.639,107.359,432.737,78.59,404.775,55.78z"/>
</g>
<g>
	<path style="fill:#E4F2F4;" d="M51,273.192c-9.341,0-16.916,7.578-16.916,16.919c0,9.345,7.574,16.919,16.916,16.919   c9.345,0,16.919-7.574,16.919-16.919C67.919,280.769,60.345,273.192,51,273.192z"/>
	<path style="fill:#E4F2F4;" d="M121.507,273.192c-9.341,0-16.915,7.578-16.915,16.919c0,9.345,7.574,16.919,16.915,16.919   c9.345,0,16.919-7.574,16.919-16.919C138.426,280.769,130.852,273.192,121.507,273.192z"/>
	<path style="fill:#E4F2F4;" d="M340.862,273.192c-9.341,0-16.915,7.578-16.915,16.919c0,9.345,7.574,16.919,16.915,16.919   c9.345,0,16.919-7.574,16.919-16.919C357.782,280.769,350.207,273.192,340.862,273.192z"/>
	<path style="fill:#E4F2F4;" d="M411.37,273.192c-9.341,0-16.916,7.578-16.916,16.919c0,9.345,7.574,16.919,16.916,16.919   c9.345,0,16.919-7.574,16.919-16.919C428.289,280.769,420.715,273.192,411.37,273.192z"/>
	<path style="fill:#E4F2F4;" d="M86.254,218.353c-9.341,0-16.916,7.578-16.916,16.919c0,9.345,7.574,16.919,16.916,16.919   c9.345,0,16.919-7.574,16.919-16.919C103.173,225.931,95.599,218.353,86.254,218.353z"/>
	<path style="fill:#E4F2F4;" d="M156.761,218.353c-9.341,0-16.915,7.578-16.915,16.919c0,9.345,7.574,16.919,16.915,16.919   c9.345,0,16.919-7.574,16.919-16.919C173.68,225.931,166.106,218.353,156.761,218.353z"/>
	<path style="fill:#E4F2F4;" d="M232.493,218.353c-9.345,0-16.919,7.578-16.919,16.919c0,9.345,7.574,16.919,16.919,16.919   c9.341,0,16.919-7.574,16.919-16.919C249.412,225.931,241.834,218.353,232.493,218.353z"/>
	<path style="fill:#E4F2F4;" d="M303,218.353c-9.345,0-16.919,7.578-16.919,16.919c0,9.345,7.574,16.919,16.919,16.919   c9.341,0,16.919-7.574,16.919-16.919C319.919,225.931,312.341,218.353,303,218.353z"/>
	<path style="fill:#E4F2F4;" d="M379.383,218.353c-9.345,0-16.919,7.578-16.919,16.919c0,9.345,7.574,16.919,16.919,16.919   c9.341,0,16.919-7.574,16.919-16.919C396.302,225.931,388.724,218.353,379.383,218.353z"/>
	<path style="fill:#E4F2F4;" d="M449.89,218.353c-9.345,0-16.919,7.578-16.919,16.919c0,9.345,7.574,16.919,16.919,16.919   c9.341,0,16.919-7.574,16.919-16.919C466.809,225.931,459.231,218.353,449.89,218.353z"/>
	<path style="fill:#E4F2F4;" d="M232.493,433.791c-9.345,0-16.919,7.578-16.919,16.919c0,9.345,7.574,16.919,16.919,16.919   c9.341,0,16.919-7.574,16.919-16.919C249.412,441.369,241.834,433.791,232.493,433.791z"/>
	<path style="fill:#E4F2F4;" d="M303,433.791c-9.345,0-16.919,7.578-16.919,16.919c0,9.345,7.574,16.919,16.919,16.919   c9.341,0,16.919-7.574,16.919-16.919C319.919,441.369,312.341,433.791,303,433.791z"/>
	<path style="fill:#E4F2F4;" d="M123.466,383.849c-9.341,0-16.915,7.578-16.915,16.919c0,9.345,7.574,16.919,16.915,16.919   c9.345,0,16.919-7.574,16.919-16.919C140.385,391.427,132.811,383.849,123.466,383.849z"/>
	<path style="fill:#E4F2F4;" d="M193.973,383.849c-9.341,0-16.915,7.578-16.915,16.919c0,9.345,7.574,16.919,16.915,16.919   c9.345,0,16.919-7.574,16.919-16.919C210.892,391.427,203.318,383.849,193.973,383.849z"/>
	<path style="fill:#E4F2F4;" d="M340.212,383.849c-9.345,0-16.919,7.578-16.919,16.919c0,9.345,7.574,16.919,16.919,16.919   c9.341,0,16.919-7.574,16.919-16.919C357.131,391.427,349.554,383.849,340.212,383.849z"/>
	<path style="fill:#E4F2F4;" d="M86.254,329.989c-9.341,0-16.916,7.578-16.916,16.919c0,9.345,7.574,16.919,16.916,16.919   c9.345,0,16.919-7.574,16.919-16.919C103.173,337.567,95.599,329.989,86.254,329.989z"/>
	<path style="fill:#E4F2F4;" d="M156.761,329.989c-9.341,0-16.915,7.578-16.915,16.919c0,9.345,7.574,16.919,16.915,16.919   c9.345,0,16.919-7.574,16.919-16.919C173.68,337.567,166.106,329.989,156.761,329.989z"/>
</g>
<g style="opacity:0.5;">
	<path style="fill:#E4F2F4;" d="M372.953,33.75c-5.662-3.305-11.43-6.45-17.363-9.307c-14.02-6.751-28.781-12.195-44.113-16.234   c-0.788-0.21-1.576-0.421-2.368-0.62c-15.423-3.906-31.417-6.373-47.838-7.233C256.899,0.127,252.503,0,248.078,0   c-11.801,0-23.395,0.88-34.756,2.475c-21.834,3.064-42.77,8.924-62.397,17.286c-0.952,0.406-1.878,0.861-2.827,1.282   c-8.684,3.825-17.095,8.136-25.224,12.898C95.485,49.988,71.466,71.13,52.091,96.082c-0.708,0.907-1.442,1.794-2.134,2.712   c0.907,0.367,1.855,0.654,2.785,0.987c5.906,31.172,31.987,55.818,65.133,58.396c14.979,1.163,29.236-2.353,41.354-9.303   c12.004,14.333,29.52,24.034,49.629,25.599c28.421,2.203,54.2-12.44,67.707-35.483c10.175,7.1,22.274,11.717,35.537,12.75   c23.621,1.836,45.406-7.995,59.865-24.577c26.857-3.489,49.43-21.942,58.446-47.253C413.714,61.816,394.347,46.244,372.953,33.75z"/>
</g>
<path style="fill:#E4F2F4;" d="M248.077,0C173.404,0,106.489,33.039,61.011,85.242c4.104-0.379,8.117-1.075,12.012-2.077  c12.554,23.02,36.967,38.639,65.037,38.639c18.732,0,35.789-7.012,48.83-18.483c13.04,11.472,30.097,18.483,48.833,18.483  c32.117,0,59.379-20.488,69.627-49.082c12.271,9.031,27.377,14.433,43.784,14.433c23.881,0,45.058-11.354,58.595-28.904  C364.579,21.923,308.898,0,248.077,0z"/>
<g>
</g>
<g>
</g>
<g>
</g>
<g>
</g>
<g>
</g>
<g>
</g>
<g>
</g>
<g>
</g>
<g>
</g>
<g>
</g>
<g>
</g>
<g>
</g>
<g>
</g>
<g>
</g>
<g>
</g>
</svg>
