<?xml version="1.0" encoding="iso-8859-1"?>
<!-- Generator: Adobe Illustrator 19.0.0, SVG Export Plug-In . SVG Version: 6.00 Build 0)  -->
<svg xmlns="http://www.w3.org/2000/svg" xmlns:xlink="http://www.w3.org/1999/xlink" version="1.1" id="Layer_1" x="0px" y="0px" viewBox="0 0 496.162 496.162" style="enable-background:new 0 0 496.162 496.162;" xml:space="preserve">
<path style="fill:#A3D5E0;" d="M248.077,0C111.072,0,0.002,111.062,0.002,248.083c0,137.005,111.07,248.079,248.075,248.079  c137.013,0,248.083-111.074,248.083-248.079C496.16,111.062,385.09,0,248.077,0z"/>
<g>
	<path style="fill:#DAE7E8;" d="M126.656,200.952c-2.586-16.483,0-38.456,0-38.456c0-4.996-4.055-9.05-9.051-9.05   s-9.051,4.055-9.051,9.05c0,0-6.464,14.219,0,38.456c6.465,24.241-2.226,81.948-2.226,81.948c0,6.357,5.156,11.51,11.506,11.51   c6.357,0,11.514-5.153,11.514-11.51C129.349,282.9,129.242,217.439,126.656,200.952z"/>
	<path style="fill:#DAE7E8;" d="M311.745,164.008c6.464-24.241,0-38.459,0-38.459c0-4.996-4.056-9.051-9.051-9.051   c-4.996,0-9.051,4.055-9.051,9.051c0,0,2.586,21.972,0,38.459c-2.578,16.483-2.693,81.948-2.693,81.948   c0,6.354,5.157,11.506,11.515,11.506c6.35,0,11.506-5.152,11.506-11.506C313.971,245.956,305.28,188.245,311.745,164.008z"/>
</g>
<g>
	<path style="fill:#E4F2F4;" d="M248.077,0C137.88,0,44.513,71.88,12.174,171.299c18.66,0.073,52.398,1.702,89.84,10.642   c56.813,13.564,45.712-4.72,65.749-6.813c15.538-1.622,31.657-4.021,48.105-7.406c27.259-5.608,41.719,9.67,84.875,1.308   c43.149-8.362,93.627,14.57,120.121,15.668c34.235,1.419,54.708-0.601,66.307-2.754C458.221,77.048,362.177,0,248.077,0z"/>
	<path style="fill:#E4F2F4;" d="M446.057,214.402c-2.608-16.651,0-38.842,0-38.842c0-5.049-4.093-9.143-9.143-9.143   c-5.049,0-9.142,4.093-9.142,9.143c0,0-6.526,14.36,0,38.842c6.533,24.478-2.242,82.763-2.242,82.763   c0,6.419,5.203,11.625,11.621,11.625c6.419,0,11.621-5.206,11.621-11.625C448.772,297.164,448.666,231.049,446.057,214.402z"/>
	<path style="fill:#E4F2F4;" d="M76.155,194.086c-3.849-24.551,0-57.276,0-57.276c0-7.444-6.036-13.48-13.48-13.48   c-7.443,0-13.48,6.036-13.48,13.48c0,0-9.624,21.177,0,57.276c9.633,36.099-3.313,122.044-3.313,122.044   c0,9.467,7.674,17.141,17.138,17.141c9.471,0,17.145-7.674,17.145-17.141C80.164,316.13,80.003,218.636,76.155,194.086z"/>
	<path style="fill:#E4F2F4;" d="M187.226,170.235c-3.13-20.006,0-46.672,0-46.672c0-6.063-4.92-10.982-10.979-10.982   c-6.067,0-10.986,4.919-10.986,10.982c0,0-7.842,17.259,0,46.672c7.85,29.416-2.701,99.453-2.701,99.453   c0,7.712,6.259,13.966,13.97,13.966c7.712,0,13.971-6.254,13.971-13.966C190.5,269.688,190.362,190.241,187.226,170.235z"/>
	<path style="fill:#E4F2F4;" d="M252.301,196.35c7.841-29.416,0-46.672,0-46.672c0-6.063-4.92-10.982-10.986-10.982   c-6.06,0-10.979,4.919-10.979,10.982c0,0,3.129,26.666,0,46.672c-3.137,20.006-3.274,99.449-3.274,99.449   c0,7.715,6.258,13.966,13.97,13.966c7.712,0,13.97-6.25,13.97-13.966C255.001,295.799,244.451,225.767,252.301,196.35z"/>
	<path style="fill:#E4F2F4;" d="M367.853,212.015c7.842-29.412,0-46.672,0-46.672c0-6.063-4.919-10.982-10.986-10.982   c-6.059,0-10.979,4.919-10.979,10.982c0,0,3.129,26.666,0,46.672c-2.395,15.274-1.407,81.708,1.201,114.352   c0.818,10.171-6.525,13.056-4.476,21.938c2.051,8.882,6.259,13.966,13.97,13.966c7.712,0,13.97-6.25,13.97-13.966   C370.554,348.305,360.004,241.431,367.853,212.015z"/>
</g>
<g>
</g>
<g>
</g>
<g>
</g>
<g>
</g>
<g>
</g>
<g>
</g>
<g>
</g>
<g>
</g>
<g>
</g>
<g>
</g>
<g>
</g>
<g>
</g>
<g>
</g>
<g>
</g>
<g>
</g>
</svg>
