<?xml version="1.0" encoding="iso-8859-1"?>
<!-- Generator: Adobe Illustrator 19.0.0, SVG Export Plug-In . SVG Version: 6.00 Build 0)  -->
<svg xmlns="http://www.w3.org/2000/svg" xmlns:xlink="http://www.w3.org/1999/xlink" version="1.1" id="Layer_1" x="0px" y="0px" viewBox="0 0 496.162 496.162" style="enable-background:new 0 0 496.162 496.162;" xml:space="preserve">
<path style="fill:#334D5C;" d="M248.077,0C111.072,0,0.002,111.062,0.002,248.083c0,137.005,111.07,248.079,248.075,248.079  c137.013,0,248.083-111.074,248.083-248.079C496.16,111.062,385.09,0,248.077,0z"/>
<path style="fill:#91915D;" d="M24.021,354.704c39.878,83.651,125.219,141.458,224.056,141.458  c98.779,0,184.071-57.727,223.984-141.286L24.021,354.704z"/>
<path style="fill:#496370;" d="M404.775,55.78c-5.987-4.885-12.195-9.502-18.625-13.82c-26.367-17.696-56.315-30.472-88.535-37.002  c-0.987-0.199-1.993-0.344-2.984-0.532C279.545,1.561,263.999,0,248.078,0c-19.884,0-39.193,2.406-57.723,6.824  c-6.69,1.595-13.273,3.455-19.746,5.581c-28.032,9.211-53.844,23.277-76.471,41.209c-10.914,8.657-21.112,18.17-30.426,28.51  c-19.382,21.521-35.005,46.469-45.953,73.8c10.462,18.847,29.382,32.675,52.406,35.602c20.603,2.616,40.204-4.055,54.743-16.678  c10.719,11.215,25.197,18.981,41.787,21.092c14.494,1.84,28.514-0.899,40.617-7.073c10.979,14.494,27.534,24.75,47.001,27.224  c27.503,3.493,53.244-9.509,67.458-31.252c9.548,7.375,21.081,12.439,33.918,14.069c22.86,2.903,44.492-5.607,59.326-21.031  c24.24-1.955,45.528-16.475,56.502-37.698C455.643,107.36,432.737,78.59,404.775,55.78z"/>
<g style="opacity:0.3;">
	<path style="fill:#243D49;" d="M372.953,33.75c-5.662-3.305-11.426-6.45-17.363-9.307c-14.02-6.751-28.781-12.195-44.113-16.234   c-0.788-0.21-1.572-0.42-2.364-0.62c-15.427-3.905-31.42-6.373-47.842-7.233C256.902,0.127,252.503,0,248.078,0   c-11.801,0-23.392,0.88-34.756,2.475c-21.834,3.064-42.77,8.924-62.394,17.286c-0.953,0.406-1.882,0.861-2.831,1.282   c-8.68,3.825-17.095,8.136-25.22,12.898C95.488,49.988,71.469,71.13,52.09,96.083c-0.708,0.906-1.438,1.794-2.134,2.712   c0.91,0.367,1.859,0.654,2.785,0.987c5.906,31.172,31.987,55.818,65.136,58.396c14.98,1.163,29.237-2.353,41.355-9.303   c12.003,14.333,29.516,24.034,49.629,25.599c28.417,2.204,54.196-12.44,67.707-35.483c10.175,7.1,22.271,11.717,35.533,12.75   c23.621,1.836,45.406-7.995,59.865-24.577c26.857-3.489,49.43-21.942,58.446-47.253C413.714,61.816,394.351,46.244,372.953,33.75z"/>
</g>
<path style="fill:#334D5C;" d="M248.077,0C173.408,0,106.493,33.039,61.014,85.242c4.101-0.379,8.117-1.075,12.011-2.077  c12.555,23.02,36.967,38.639,65.033,38.639c18.732,0,35.793-7.012,48.83-18.483c13.04,11.472,30.101,18.483,48.833,18.483  c32.117,0,59.379-20.488,69.631-49.082c12.271,9.031,27.377,14.433,43.78,14.433c23.881,0,45.062-11.354,58.599-28.904  C364.579,21.923,308.898,0,248.077,0z"/>
<g>
	<path style="fill:#3B5563;" d="M402.476,242.192c-0.937-10.064-4.961-17.592-11.651-21.777c-5.922-3.699-13.473-4.541-22.443-2.494   c-10.569,2.414-17.344,10.061-17.263,19.478c0.072,9.001,6.449,16.303,15.855,18.174c1.848,0.367,3.68-0.662,4.108-2.284   c0.428-1.629-0.711-3.248-2.552-3.611c-7.241-1.438-10.527-7.253-10.573-12.379c-0.046-5.198,3.106-11.483,12.084-13.53   c6.935-1.583,12.581-1.052,16.797,1.584c4.931,3.083,8.063,9.261,8.817,17.382c0.543,5.849-1.645,10.623-6.687,14.601   c-39.159,30.896-221.578-0.509-223.417-0.834c-1.836-0.314-3.657,0.742-4.04,2.379c-0.386,1.637,0.803,3.225,2.655,3.546   c5.39,0.941,96.458,16.617,164.325,14.241c28.379-0.991,52.716-5.141,65.01-14.846C400.173,256.56,403.195,249.957,402.476,242.192   z"/>
	<path style="fill:#3B5563;" d="M377.719,314.623c-31.397-28.965-208.27-7.448-215.786-6.514c-1.875,0.233-3.19,1.76-2.945,3.412   c0.249,1.648,1.97,2.827,3.84,2.57c50.226-6.216,185.846-17.493,209.93,4.728c2.854,2.632,3.883,5.627,3.148,9.15   c-1.274,6.083-4.127,10.531-8.041,12.547c-3.309,1.699-7.543,1.771-12.57,0.21c-6.38-1.981-8.155-6.736-7.688-10.523   c0.459-3.718,3.32-7.766,8.672-8.416c1.875-0.226,3.198-1.756,2.953-3.405c-0.241-1.652-1.939-2.808-3.829-2.578   c-7.827,0.949-13.69,6.495-14.597,13.798c-0.941,7.631,3.833,14.233,12.168,16.823c3.477,1.083,6.74,1.568,9.777,1.461   c3.083-0.107,5.933-0.826,8.519-2.158c5.769-2.968,9.697-8.744,11.365-16.712C383.782,323.532,382.129,318.689,377.719,314.623z"/>
	<path style="fill:#3B5563;" d="M474.23,254.712c-1.067-11.529-5.666-20.144-13.289-24.917c-6.736-4.208-15.351-5.156-25.595-2.815   c-12.007,2.739-19.704,11.426-19.616,22.125c0.092,10.213,7.313,18.502,17.979,20.622c1.848,0.364,3.68-0.662,4.112-2.287   c0.428-1.626-0.715-3.244-2.556-3.611c-8.694-1.725-12.638-8.691-12.692-14.823c-0.054-6.216,3.71-13.733,14.433-16.181   c8.209-1.875,14.918-1.232,19.945,1.913c5.856,3.665,9.571,10.952,10.458,20.522c0.486,5.217-1.163,9.54-5.038,13.212   c-17.137,16.242-74.523,17.11-131.837,16.609c-79.936-0.704-166.93-2.176-167.798-2.191c-1.909-0.073-3.462,1.292-3.516,2.96   c-0.053,1.668,1.435,3.045,3.324,3.076c0.869,0.019,87.893,1.488,167.864,2.192c19.08,0.168,37.698,0.188,54.873-0.413   c38.008-1.332,68.946-5.685,82.079-18.136C472.558,267.638,474.873,261.628,474.23,254.712z"/>
</g>
<path style="fill:#351F0D;" d="M161.626,168.418l-15.186-8.255c-49.702,64.065-47.185,263.973-47.185,263.973l9.303,7.345  l8.309-5.145C107.224,412.836,126.208,172.5,161.626,168.418z"/>
<path style="fill:#68B147;" d="M301.998,228.1c-70.534-52.907-146.147-76.467-146.147-76.467  c50.7,52.999,108.58,96.415,108.58,96.415C325.649,283.268,301.998,228.1,301.998,228.1z"/>
<path style="fill:#86C06D;" d="M155.851,151.633c50.7,52.999,108.58,96.415,108.58,96.415c27.24,15.672,37.675,13.454,40.869,6.163  C309.292,245.111,155.851,151.633,155.851,151.633z"/>
<path style="fill:#68B147;" d="M154.374,156.522c32.151-60.443,124.741-69.444,124.741-69.444  C181.388-5.512,154.374,156.522,154.374,156.522z"/>
<path style="fill:#86C06D;" d="M154.374,156.522c32.151-60.443,124.741-69.444,124.741-69.444  C192.956,34.358,154.374,156.522,154.374,156.522z"/>
<path style="fill:#68B147;" d="M158.035,148.814c0,0,136.768-71.949,209.938,5.546C367.972,154.36,316.783,36.761,158.035,148.814z"/>
<path style="fill:#86C06D;" d="M158.035,148.814c0,0,133.604-43.994,209.938,5.546C367.972,154.36,311.886,76.735,158.035,148.814z"/>
<path style="fill:#68B147;" d="M158.371,153.423c163.543-13.216,203.293,44.506,204.707,46.643  C306.539,109.789,158.371,153.423,158.371,153.423z"/>
<path style="fill:#86C06D;" d="M158.371,153.423c0,0,135.081,11.671,204.75,46.71C363.122,200.133,316.251,136.512,158.371,153.423z  "/>
<path style="fill:#F1E042;" d="M158.604,142.453c-4.024-2.808-13.323,2.605-17.164,8.113c-3.841,5.512-0.765,9.027,3.263,11.828  c4.024,2.808,7.475,3.84,11.311-1.664C159.859,155.217,162.629,145.256,158.604,142.453z"/>
<path style="fill:#FCEE35;" d="M175.191,149.204c-4.296-5.405-14.666-8.404-16.919-6.614c-1.259,1.002-1.68,12.573,2.616,17.979  s8.986,4.736,12.933,1.587C177.773,159.023,179.483,154.609,175.191,149.204z"/>
<path style="fill:#FCEF57;" d="M157.836,140.574c-1.997,0-11.396,10.979-11.396,19.589c0,8.614,5.099,11.598,11.396,11.598  c6.292,0,11.395-2.984,11.395-11.598C169.231,151.553,161.435,140.574,157.836,140.574z"/>
<g>
</g>
<g>
</g>
<g>
</g>
<g>
</g>
<g>
</g>
<g>
</g>
<g>
</g>
<g>
</g>
<g>
</g>
<g>
</g>
<g>
</g>
<g>
</g>
<g>
</g>
<g>
</g>
<g>
</g>
</svg>
