<?xml version="1.0" encoding="iso-8859-1"?>
<!-- Generator: Adobe Illustrator 19.0.0, SVG Export Plug-In . SVG Version: 6.00 Build 0)  -->
<svg xmlns="http://www.w3.org/2000/svg" xmlns:xlink="http://www.w3.org/1999/xlink" version="1.1" id="Layer_1" x="0px" y="0px" viewBox="0 0 496.162 496.162" style="enable-background:new 0 0 496.162 496.162;" xml:space="preserve">
<path style="fill:#334D5C;" d="M248.077,0C111.072,0,0.002,111.062,0.002,248.083c0,137.005,111.07,248.079,248.075,248.079  c137.013,0,248.083-111.074,248.083-248.079C496.16,111.062,385.09,0,248.077,0z"/>
<path style="fill:#1A5437;" d="M24.021,354.704c39.878,83.647,125.219,141.458,224.056,141.458  c98.776,0,184.071-57.731,223.984-141.29L24.021,354.704z"/>
<path style="fill:#496370;" d="M404.775,55.776c-5.987-4.881-12.195-9.502-18.625-13.817c-26.367-17.7-56.319-30.472-88.535-37.002  c-0.987-0.203-1.997-0.344-2.984-0.535C279.545,1.557,263.999,0,248.078,0c-19.884,0-39.193,2.406-57.723,6.824  c-6.694,1.595-13.273,3.455-19.746,5.578c-28.032,9.211-53.844,23.276-76.471,41.213c-10.914,8.653-21.112,18.17-30.426,28.51  c-19.382,21.521-35.005,46.465-45.953,73.797c10.458,18.851,29.382,32.675,52.406,35.602c20.603,2.62,40.204-4.051,54.744-16.674  c10.718,11.215,25.197,18.981,41.783,21.088c14.498,1.844,28.513-0.895,40.616-7.069c10.982,14.494,27.538,24.75,47.005,27.22  c27.503,3.497,53.24-9.505,67.458-31.252c9.548,7.379,21.081,12.439,33.918,14.073c22.86,2.903,44.488-5.611,59.326-21.035  c24.24-1.951,45.528-16.472,56.502-37.698C455.643,107.36,432.737,78.59,404.775,55.776z"/>
<path style="fill:#64899B;" d="M401.102,52.895C358.944,19.792,305.838,0,248.077,0C171.389,0,102.84,34.814,57.335,89.484  c57.937,72.749,193.316,141.939,202.845,172.951c15.906,51.767-18.174,94.449-26.7,112.688  c-7.604,16.272,10.053,28.276,10.053,28.276c4.961,1.155-7.498-15.962,1.412-25.95c15.347-17.206,57.559-60.718,51.583-115.989  c-4.032-37.266-23.586-52.59-20.679-80.682C281.866,122.684,357.518,75.48,401.102,52.895z"/>
<g style="opacity:0.3;">
	<path style="fill:#243D49;" d="M372.953,33.75c-5.662-3.305-11.426-6.45-17.363-9.307c-14.02-6.751-28.781-12.195-44.113-16.238   c-0.788-0.206-1.576-0.42-2.364-0.62c-15.427-3.901-31.42-6.369-47.842-7.229C256.899,0.127,252.503,0,248.078,0   c-11.801,0-23.395,0.88-34.756,2.475c-21.834,3.06-42.77,8.924-62.397,17.286c-0.949,0.406-1.878,0.861-2.827,1.278   c-8.68,3.829-17.095,8.14-25.22,12.899C95.489,49.989,71.466,71.131,52.091,96.079c-0.708,0.91-1.442,1.798-2.134,2.716   c0.907,0.367,1.855,0.654,2.785,0.983c5.906,31.172,31.987,55.822,65.133,58.396c14.979,1.163,29.24-2.353,41.358-9.299   c12.003,14.333,29.516,24.034,49.629,25.595c28.417,2.208,54.196-12.436,67.707-35.479c10.175,7.096,22.271,11.717,35.533,12.746   c23.621,1.836,45.406-7.991,59.865-24.577c26.857-3.489,49.43-21.938,58.446-47.25C413.714,61.816,394.347,46.24,372.953,33.75z"/>
</g>
<path style="fill:#334D5C;" d="M248.077,0C173.408,0,106.489,33.039,61.014,85.242c4.101-0.383,8.117-1.079,12.011-2.077  c12.555,23.017,36.967,38.639,65.033,38.639c18.732,0,35.793-7.016,48.83-18.487c13.04,11.472,30.097,18.487,48.833,18.487  c32.117,0,59.379-20.492,69.627-49.082c12.271,9.027,27.381,14.429,43.784,14.429c23.881,0,45.062-11.354,58.595-28.904  C364.579,21.919,308.898,0,248.077,0z"/>
<g style="opacity:0.4;">
	<circle style="fill:#64899B;" cx="267.191" cy="391.921" r="20.746"/>
	<path style="fill:#64899B;" d="M240.702,368.525c-11.46,0-20.748,9.288-20.748,20.744c0,11.46,9.288,20.748,20.748,20.748   c11.457,0,20.748-9.288,20.748-20.748C261.446,377.812,252.159,368.525,240.702,368.525z"/>
	<circle style="fill:#64899B;" cx="211.571" cy="398.101" r="20.746"/>
	<path style="fill:#64899B;" d="M199.206,385.298c-11.457,0-20.744,9.288-20.744,20.745s9.288,20.748,20.744,20.748   c11.46,0,20.749-9.288,20.749-20.744C219.954,394.586,210.666,385.298,199.206,385.298z"/>
	<path style="fill:#64899B;" d="M281.751,385.742c-11.457,0-20.745,9.288-20.745,20.745c0,11.46,9.288,20.748,20.749,20.748   c11.457,0,20.744-9.288,20.744-20.748C302.499,395.03,293.207,385.742,281.751,385.742z"/>
	<path style="fill:#64899B;" d="M249.971,395.451c-11.457,0-20.752,9.292-20.752,20.748c0,11.457,9.295,20.745,20.752,20.745   c11.457,0,20.744-9.288,20.744-20.745C270.715,404.742,261.427,395.451,249.971,395.451z"/>
	<circle style="fill:#64899B;" cx="222.601" cy="416.201" r="20.746"/>
</g>
<g>
</g>
<g>
</g>
<g>
</g>
<g>
</g>
<g>
</g>
<g>
</g>
<g>
</g>
<g>
</g>
<g>
</g>
<g>
</g>
<g>
</g>
<g>
</g>
<g>
</g>
<g>
</g>
<g>
</g>
</svg>
